SplineFontDB: 3.2
FontName: Altinn-DIN
FullName: Altinn-DIN
FamilyName: Altinn-DIN
Weight: Book
Copyright: Copyright (c) Altinn. All rights reserved.
Version: 2.00
ItalicAngle: 0
UnderlinePosition: -153.6
UnderlineWidth: 51.2
Ascent: 782
Descent: 242
InvalidEm: 0
sfntRevision: 0x00010000
LayerCount: 2
Layer: 0 0 "Back" 1
Layer: 1 0 "Fore" 0
XUID: [1021 976 -1802971697 18805]
StyleMap: 0x0040
FSType: 4
OS2Version: 3
OS2_WeightWidthSlopeOnly: 0
OS2_UseTypoMetrics: 1
CreationTime: 1462909513
ModificationTime: 1574320121
PfmFamily: 17
TTFWeight: 400
TTFWidth: 5
LineGap: 88
VLineGap: 0
Panose: 2 11 5 4 3 2 2 3 2 4
OS2TypoAscent: 801
OS2TypoAOffset: 0
OS2TypoDescent: -248
OS2TypoDOffset: 0
OS2TypoLinegap: 0
OS2WinAscent: 924
OS2WinAOffset: 0
OS2WinDescent: 188
OS2WinDOffset: 0
HheadAscent: 851
HheadAOffset: 0
HheadDescent: -173
HheadDOffset: 0
OS2SubXSize: 666
OS2SubYSize: 614
OS2SubXOff: 0
OS2SubYOff: 77
OS2SupXSize: 666
OS2SupYSize: 614
OS2SupXOff: 0
OS2SupYOff: 358
OS2StrikeYSize: 51
OS2StrikeYPos: 311
OS2CapHeight: 707
OS2XHeight: 519
OS2Vendor: 'MONO'
OS2CodePages: 20000001.00000000
OS2UnicodeRanges: 8000006f.4000000a.00000000.00000000
Lookup: 1 0 0 "'rtla' Right to Left Alternates lookup 0" { "'rtla' Right to Left Alternates lookup 0 subtable"  } ['rtla' ('DFLT' <'dflt' > ) ]
Lookup: 1 0 0 "'sups' Superscript lookup 1" { "'sups' Superscript lookup 1 subtable" ("superior") } ['sups' ('DFLT' <'dflt' > ) ]
Lookup: 4 0 0 "'frac' Diagonal Fractions lookup 2" { "'frac' Diagonal Fractions lookup 2 subtable"  } ['frac' ('DFLT' <'dflt' > ) ]
Lookup: 4 0 0 "'dlig' Discretionary Ligatures in Latin lookup 3" { "'dlig' Discretionary Ligatures in Latin lookup 3 subtable"  } ['dlig' ('latn' <'dflt' > ) ]
Lookup: 4 0 1 "'liga' Standard Ligatures in Latin lookup 4" { "'liga' Standard Ligatures in Latin lookup 4 subtable"  } ['liga' ('latn' <'dflt' > ) ]

StartChar: .notdef
Encoding: 65536 -1 0
Width: 614
Flags: W
HStem: 0 35<138 475> 672 35<138 475>
VStem: 103 35<35 672> 475 35<35 672>
LayerCount: 2
Fore
SplineSet
103 707 m 1
 510 707 l 1
 510 0 l 1
 103 0 l 1
 103 707 l 1
475 35 m 1
 475 672 l 1
 138 672 l 1
 138 35 l 1
 475 35 l 1
EndSplineSet
Validated: 1
EndChar

StartChar: exclam
Encoding: 33 33 3
Width: 244
GlyphClass: 2
Flags: W
HStem: 0 95<77 168> 687 20G<80 166>
VStem: 77 91<0 95 493.647 707> 94 58<201 460.072>
LayerCount: 2
Fore
SplineSet
80 707 m 1xd0
 166 707 l 1
 152 201 l 1
 94 201 l 1
 80 707 l 1xd0
77 95 m 1xe0
 168 95 l 1
 168 0 l 1
 77 0 l 1
 77 95 l 1xe0
EndSplineSet
Validated: 1
EndChar

StartChar: quotedbl
Encoding: 34 34 4
Width: 315
GlyphClass: 2
Flags: W
HStem: 471 236<54 122 194 261>
VStem: 54 68<471 707> 194 67<471 707>
LayerCount: 2
Fore
SplineSet
54 707 m 1
 122 707 l 1
 122 471 l 1
 54 471 l 1
 54 707 l 1
194 707 m 1
 261 707 l 1
 261 471 l 1
 194 471 l 1
 194 707 l 1
EndSplineSet
Validated: 1
EndChar

StartChar: numbersign
Encoding: 35 35 5
Width: 523
GlyphClass: 2
Flags: W
HStem: 0 21G<80 143.655 283 346.655> 226 58<26 110 178 312 381 473> 440 57<50 138 206 340 409 498> 687 20G<170.333 233 372.333 436>
LayerCount: 2
Fore
SplineSet
401 440 m 1
 381 284 l 1
 473 284 l 1
 473 226 l 1
 374 226 l 1
 344 0 l 1
 283 0 l 1
 312 226 l 1
 171 226 l 1
 141 0 l 1
 80 0 l 1
 110 226 l 1
 26 226 l 1
 26 284 l 1
 118 284 l 1
 138 440 l 1
 50 440 l 1
 50 497 l 1
 145 497 l 1
 173 707 l 1
 233 707 l 1
 206 497 l 1
 347 497 l 1
 375 707 l 1
 436 707 l 1
 409 497 l 1
 498 497 l 1
 498 440 l 1
 401 440 l 1
340 440 m 1
 199 440 l 1
 178 284 l 1
 319 284 l 1
 340 440 l 1
EndSplineSet
Validated: 1
EndChar

StartChar: dollar
Encoding: 36 36 6
Width: 467
GlyphClass: 2
Flags: W
HStem: 30 63<257 313.25> 611 65<257 303.072>
VStem: 34 70<140.562 214> 45 72<434.338 575.867> 198 59<-60 32.1404 94 317 399 610 672.473 759> 341 71<499 571.25> 349 72<129.502 280.327>
LayerCount: 2
Fore
SplineSet
377 85 m 0xca
 348 54 308 35 257 30 c 1
 257 -60 l 1
 198 -60 l 1
 198 29 l 1
 149 34 110 53 82 84 c 0
 54 115 38 159 34 214 c 1
 104 214 l 1xea
 107 178 117 150 133 131 c 0
 149 112 171 99 198 94 c 1
 198 330 l 1
 190 331 l 2
 142 341 107 359 82 385 c 0
 57 411 45 449 45 498 c 0
 45 549 59 589 87 620 c 0
 115 651 152 670 198 675 c 1
 198 759 l 1
 257 759 l 1
 257 676 l 1
 301 671 337 653 364 624 c 0
 391 595 407 554 412 499 c 1
 341 499 l 1xdc
 336 564 308 601 257 611 c 1
 257 387 l 1
 274 384 l 2
 322 375 358 357 383 329 c 0
 408 301 421 262 421 211 c 0
 421 158 406 116 377 85 c 0xca
137 435 m 0
 150 418 171 406 198 399 c 1
 198 610 l 1
 171 605 151 594 137 575 c 0
 123 556 117 532 117 503 c 0xd8
 117 474 124 452 137 435 c 0
326 128 m 0
 341 147 349 173 349 206 c 0xca
 349 239 342 264 327 281 c 0
 312 298 289 309 257 317 c 1
 257 93 l 1
 288 97 311 109 326 128 c 0
126 705 m 1024
EndSplineSet
Validated: 1
EndChar

StartChar: percent
Encoding: 37 37 7
Width: 849
GlyphClass: 2
Flags: W
HStem: -6 59<639.812 724.336> 273 60<124.812 209.336> 374 60<639.737 723.836> 653 61<123.955 208.836>
VStem: 43 70<355.71 631.336> 221 71<355.71 631.336> 558 70<75.7097 351.337> 736 71<75.7097 351.337>
LayerCount: 2
Fore
SplineSet
73 311 m 0
 53 336 43 374 43 425 c 2
 43 567 l 2
 43 615 53 652 74 677 c 0
 95 702 126 714 167 714 c 0
 210 714 242 701 262 677 c 0
 282 653 292 616 292 567 c 2
 292 425 l 2
 292 374 282 336 262 311 c 0
 242 286 210 273 167 273 c 0
 124 273 93 286 73 311 c 0
584 707 m 1
 648 707 l 1
 266 0 l 1
 202 0 l 1
 584 707 l 1
210 355 m 0
 218 370 221 394 221 428 c 2
 221 561 l 2
 221 594 217 618 209 632 c 0
 201 646 187 653 167 653 c 0
 147 653 132 646 124 632 c 0
 116 618 113 594 113 561 c 2
 113 428 l 2
 113 394 116 370 124 355 c 0
 132 340 147 333 167 333 c 0
 188 333 202 340 210 355 c 0
588 32 m 0
 568 57 558 94 558 145 c 2
 558 288 l 2
 558 336 568 372 589 397 c 0
 610 422 641 434 682 434 c 0
 725 434 757 422 777 398 c 0
 797 374 807 337 807 288 c 2
 807 145 l 2
 807 94 797 57 777 32 c 0
 757 7 725 -6 682 -6 c 0
 639 -6 608 7 588 32 c 0
725 75 m 0
 733 90 736 114 736 148 c 2
 736 282 l 2
 736 315 732 338 724 352 c 0
 716 366 702 374 682 374 c 0
 662 374 647 366 639 352 c 0
 631 338 628 315 628 282 c 2
 628 148 l 2
 628 114 631 90 639 75 c 0
 647 60 662 53 682 53 c 0
 703 53 717 60 725 75 c 0
EndSplineSet
Validated: 1
EndChar

StartChar: ampersand
Encoding: 38 38 8
Width: 611
GlyphClass: 2
Flags: W
HStem: -10 64<168.74 304.256> 0 67<490.002 551> 655 62<202.204 312.648>
VStem: 60 70<92.8736 244.826> 110 69<505.661 631.1> 336 68<506.312 631.379>
LayerCount: 2
Fore
SplineSet
551 67 m 1x6c
 551 0 l 1
 516 0 l 2x6c
 498 0 483 4 472 10 c 0
 461 16 449 28 437 46 c 2
 408 88 l 1
 381 54 353 29 325 13 c 0
 297 -3 265 -10 231 -10 c 0
 177 -10 135 6 105 38 c 0
 75 70 60 114 60 167 c 0xb4
 60 205 71 241 93 276 c 0
 115 311 150 349 196 391 c 1
 162 441 139 477 127 500 c 0
 115 523 110 546 110 569 c 0
 110 612 124 647 152 675 c 0
 180 703 215 717 258 717 c 0
 301 717 337 703 364 675 c 0
 391 647 404 613 404 571 c 0
 404 539 395 509 378 482 c 0
 361 455 330 422 285 382 c 1
 412 201 l 1
 485 299 l 1
 534 257 l 1
 451 145 l 1
 486 94 l 2
 499 76 513 67 527 67 c 2
 551 67 l 1x6c
201 632 m 0
 186 617 179 596 179 571 c 0
 179 555 183 539 192 522 c 0
 201 505 219 476 247 436 c 1
 283 468 306 494 318 512 c 0
 330 530 336 550 336 572 c 0
 336 597 328 617 314 632 c 0
 300 647 281 655 258 655 c 0
 235 655 216 647 201 632 c 0
301 74 m 0
 321 87 344 110 369 143 c 1
 233 338 l 1
 197 306 171 276 155 250 c 0
 139 224 130 197 130 170 c 0
 130 135 139 107 158 86 c 0
 177 65 203 54 236 54 c 0xb4
 260 54 281 61 301 74 c 0
EndSplineSet
Validated: 1
EndChar

StartChar: quotesingle
Encoding: 39 39 9
Width: 176
GlyphClass: 2
Flags: W
HStem: 471 236<54 122>
VStem: 54 68<471 707>
LayerCount: 2
Fore
SplineSet
54 707 m 1
 122 707 l 1
 122 471 l 1
 54 471 l 1
 54 707 l 1
EndSplineSet
Validated: 1
EndChar

StartChar: parenleft
Encoding: 40 40 10
Width: 294
GlyphClass: 2
Flags: W
VStem: 60 71<151.803 521.638>
LayerCount: 2
Fore
SplineSet
60 336 m 0
 60 485 101 626 182 758 c 1
 234 758 l 1
 200 691 174 622 157 550 c 0
 140 478 131 407 131 336 c 0
 131 264 140 192 157 120 c 0
 174 48 200 -20 234 -86 c 1
 181 -86 l 1
 100 48 60 189 60 336 c 0
EndSplineSet
Validated: 1
Substitution2: "'rtla' Right to Left Alternates lookup 0 subtable" parenright
EndChar

StartChar: parenright
Encoding: 41 41 11
Width: 294
GlyphClass: 2
Flags: W
VStem: 165 69<150.615 522.004>
LayerCount: 2
Fore
SplineSet
138 121 m 0
 156 193 165 265 165 336 c 0
 165 407 156 478 138 550 c 0
 120 622 94 691 60 758 c 1
 113 758 l 1
 194 627 234 486 234 336 c 0
 234 189 195 48 114 -86 c 1
 60 -86 l 1
 94 -20 120 49 138 121 c 0
EndSplineSet
Validated: 1
Substitution2: "'rtla' Right to Left Alternates lookup 0 subtable" parenleft
EndChar

StartChar: asterisk
Encoding: 42 42 12
Width: 386
GlyphClass: 2
Flags: W
HStem: 425 282<170 216>
VStem: 170 46<425 531 606 707>
LayerCount: 2
Fore
SplineSet
170 531 m 1
 82 480 l 1
 60 517 l 1
 151 569 l 1
 60 621 l 1
 82 657 l 1
 170 606 l 1
 170 707 l 1
 216 707 l 1
 216 606 l 1
 305 657 l 1
 326 621 l 1
 236 569 l 1
 326 517 l 1
 305 480 l 1
 216 531 l 1
 216 425 l 1
 170 425 l 1
 170 531 l 1
EndSplineSet
Validated: 1
EndChar

StartChar: plus
Encoding: 43 43 13
Width: 524
GlyphClass: 2
Flags: W
HStem: 249 67<58 228 296 466>
VStem: 228 68<79 249 316 486>
LayerCount: 2
Fore
SplineSet
228 249 m 1
 58 249 l 1
 58 316 l 1
 228 316 l 1
 228 486 l 1
 296 486 l 1
 296 316 l 1
 466 316 l 1
 466 249 l 1
 296 249 l 1
 296 79 l 1
 228 79 l 1
 228 249 l 1
EndSplineSet
Validated: 1
EndChar

StartChar: comma
Encoding: 44 44 14
Width: 176
GlyphClass: 2
Flags: W
HStem: -140 235
VStem: 54 68<-77 95>
LayerCount: 2
Fore
SplineSet
54 95 m 1
 122 95 l 1
 122 -77 l 1
 54 -140 l 1
 54 95 l 1
EndSplineSet
Validated: 1
EndChar

StartChar: hyphen
Encoding: 45 45 15
Width: 402
GlyphClass: 2
Flags: W
HStem: 322 67<60 342>
VStem: 60 282<322 389>
LayerCount: 2
Fore
SplineSet
60 389 m 1
 342 389 l 1
 342 322 l 1
 60 322 l 1
 60 389 l 1
EndSplineSet
Validated: 1
EndChar

StartChar: period
Encoding: 46 46 16
Width: 198
GlyphClass: 2
Flags: W
HStem: 0 94<54 144>
VStem: 54 90<0 94>
LayerCount: 2
Fore
SplineSet
54 94 m 1
 144 94 l 1
 144 0 l 1
 54 0 l 1
 54 94 l 1
EndSplineSet
Validated: 1
EndChar

StartChar: slash
Encoding: 47 47 17
Width: 401
GlyphClass: 2
Flags: W
HStem: 687 20G<273.863 341>
VStem: 60 281
LayerCount: 2
Fore
SplineSet
280 707 m 1
 341 707 l 1
 122 -10 l 1
 60 -10 l 1
 280 707 l 1
EndSplineSet
Validated: 1
EndChar

StartChar: zero
Encoding: 48 48 18
Width: 504
GlyphClass: 2
Flags: W
HStem: -10 67<183.27 320.977> 649 68<183.27 320.977>
VStem: 68 74<102.262 602.314> 362 75<102.262 602.314>
LayerCount: 2
Fore
SplineSet
68 216 m 2
 68 495 l 2
 68 643 129 717 252 717 c 0
 376 717 437 643 437 495 c 2
 437 216 l 2
 437 65 376 -10 252 -10 c 0
 129 -10 68 65 68 216 c 2
337 97 m 0
 354 124 362 168 362 230 c 2
 362 476 l 2
 362 538 354 582 337 609 c 0
 320 636 292 649 252 649 c 0
 212 649 184 636 167 609 c 0
 150 582 142 538 142 476 c 2
 142 230 l 2
 142 168 150 124 167 97 c 0
 184 70 212 57 252 57 c 0
 292 57 320 70 337 97 c 0
EndSplineSet
Validated: 1
EndChar

StartChar: one
Encoding: 49 49 19
Width: 336
GlyphClass: 2
Flags: W
HStem: 0 21G<173 247> 687 20G<146.255 247>
VStem: 173 74<0 621>
LayerCount: 2
Fore
SplineSet
173 621 m 1
 51 529 l 1
 51 613 l 1
 172 707 l 1
 247 707 l 1
 247 0 l 1
 173 0 l 1
 173 621 l 1
EndSplineSet
Validated: 1
Substitution2: "'sups' Superscript lookup 1 subtable" uni00B9
EndChar

StartChar: two
Encoding: 50 50 20
Width: 479
GlyphClass: 2
Flags: W
HStem: 0 67<153 419> 650 67<169.566 306.235>
VStem: 60 74<517 613.871> 343 76<438.606 612.973>
LayerCount: 2
Fore
SplineSet
60 60 m 1
 298 400 l 2
 328 444 343 486 343 524 c 2
 343 540 l 2
 343 574 333 601 314 621 c 0
 295 641 270 650 238 650 c 0
 206 650 180 640 162 621 c 0
 144 602 134 574 134 536 c 2
 134 517 l 1
 60 517 l 1
 60 540 l 2
 60 593 77 636 109 668 c 0
 141 700 185 717 240 717 c 0
 275 717 307 709 334 694 c 0
 361 679 382 658 397 631 c 0
 412 604 419 575 419 542 c 2
 419 524 l 2
 419 495 413 468 403 442 c 0
 393 416 377 389 357 361 c 2
 153 67 l 1
 419 67 l 1
 419 0 l 1
 60 0 l 1
 60 60 l 1
EndSplineSet
Validated: 1
Substitution2: "'sups' Superscript lookup 1 subtable" uni00B2
EndChar

StartChar: three
Encoding: 51 51 21
Width: 506
GlyphClass: 2
Flags: W
HStem: -10 66<173.733 321.037> 333 67<207 311.925> 650 67<176.563 316.518>
VStem: 62 75<92.6728 175> 71 71<528 614.934> 353 74<441.49 613.153> 365 74<101.306 284.311>
LayerCount: 2
Fore
SplineSet
113 35 m 0xe2
 80 65 62 107 62 159 c 2
 62 175 l 1
 137 175 l 1
 137 162 l 2
 137 129 147 103 167 84 c 0
 187 65 215 56 249 56 c 0
 285 56 314 68 334 90 c 0
 354 112 365 141 365 179 c 2
 365 206 l 2xf2
 365 245 354 275 332 298 c 0
 310 321 282 333 244 333 c 2
 207 333 l 1
 207 400 l 1
 243 400 l 2
 277 400 304 411 324 433 c 0
 344 455 353 482 353 517 c 2
 353 538 l 2
 353 572 344 600 325 620 c 0
 306 640 280 650 247 650 c 0
 214 650 188 641 170 622 c 0
 152 603 142 577 142 545 c 2
 142 528 l 1
 71 528 l 1
 71 547 l 2
 71 599 86 640 118 671 c 0
 150 702 194 717 249 717 c 0
 304 717 347 701 379 669 c 0
 411 637 427 595 427 542 c 2
 427 519 l 2xec
 427 485 418 455 402 430 c 0
 386 405 365 386 338 374 c 1
 371 362 396 341 413 312 c 0
 430 283 439 248 439 208 c 2
 439 183 l 2
 439 124 422 77 387 42 c 0
 352 7 305 -10 248 -10 c 0
 191 -10 146 5 113 35 c 0xe2
EndSplineSet
Validated: 1
Substitution2: "'sups' Superscript lookup 1 subtable" uni00B3
EndChar

StartChar: four
Encoding: 52 52 22
Width: 510
GlyphClass: 2
Flags: W
HStem: 0 21G<312 387> 138 68<122 312 387 464> 687 20G<250.537 334>
VStem: 312 75<0 138 206 398>
LayerCount: 2
Fore
SplineSet
464 138 m 1
 387 138 l 1
 387 0 l 1
 312 0 l 1
 312 138 l 1
 47 138 l 1
 47 206 l 1
 259 707 l 1
 334 707 l 1
 122 206 l 1
 312 206 l 1
 312 398 l 1
 387 398 l 1
 387 206 l 1
 464 206 l 1
 464 138 l 1
EndSplineSet
Validated: 1
EndChar

StartChar: five
Encoding: 53 53 23
Width: 495
GlyphClass: 2
Flags: W
HStem: -10 67<172.149 314.998> 391 68<177.878 316.72> 638 69<147 417>
VStem: 68 71<91.4475 167> 79 68<319 360.756 413 638> 353 75<96.6411 352.205>
LayerCount: 2
Fore
SplineSet
115 34 m 0xec
 83 63 68 103 68 154 c 2
 68 167 l 1
 139 167 l 1
 139 160 l 2xf4
 139 127 149 102 167 84 c 0
 185 66 212 57 246 57 c 0
 318 57 353 101 353 190 c 2
 353 257 l 2
 353 302 344 336 327 358 c 0
 310 380 283 391 247 391 c 0
 222 391 200 385 182 372 c 0
 164 359 152 342 144 319 c 1
 79 319 l 1
 79 707 l 1
 417 707 l 1
 417 638 l 1
 147 638 l 1
 147 413 l 1
 159 427 176 437 195 446 c 0
 214 455 234 459 257 459 c 0
 314 459 356 442 385 408 c 0
 414 374 428 324 428 261 c 2
 428 184 l 2
 428 123 412 75 380 41 c 0
 348 7 304 -10 247 -10 c 0
 191 -10 147 5 115 34 c 0xec
EndSplineSet
Validated: 1
EndChar

StartChar: six
Encoding: 54 54 24
Width: 505
GlyphClass: 2
Flags: W
HStem: -10 66<182.39 323.861> 350 68<193.512 324.787> 687 20G<257.09 345>
VStem: 60 76<104.396 303.427> 371 74<104.943 302.288>
LayerCount: 2
Fore
SplineSet
113 44 m 0
 78 80 60 127 60 188 c 2
 60 223 l 2
 60 248 64 273 71 297 c 0
 78 321 88 347 102 374 c 2
 267 707 l 1
 345 707 l 1
 193 396 l 1
 201 402 212 408 226 412 c 0
 240 416 254 418 269 418 c 0
 322 418 365 401 397 366 c 0
 429 331 445 284 445 225 c 2
 445 190 l 2
 445 148 437 113 420 83 c 0
 403 53 381 30 352 14 c 0
 323 -2 290 -10 253 -10 c 0
 194 -10 148 8 113 44 c 0
339 92 m 0
 360 116 371 146 371 186 c 2
 371 221 l 2
 371 261 360 292 339 315 c 0
 318 338 289 350 253 350 c 0
 218 350 189 339 168 316 c 0
 147 293 136 262 136 222 c 2
 136 187 l 2
 136 147 146 116 167 92 c 0
 188 68 217 56 253 56 c 0
 289 56 318 68 339 92 c 0
EndSplineSet
Validated: 1
EndChar

StartChar: seven
Encoding: 55 55 25
Width: 441
GlyphClass: 2
Flags: W
HStem: 0 21G<95 177.199> 639 68<41 329>
LayerCount: 2
Fore
SplineSet
400 707 m 1
 400 639 l 1
 170 0 l 1
 95 0 l 1
 329 639 l 1
 41 639 l 1
 41 707 l 1
 400 707 l 1
EndSplineSet
Validated: 1
EndChar

StartChar: eight
Encoding: 56 56 26
Width: 524
GlyphClass: 2
Flags: W
HStem: -10 66<190.658 333.468> 338 66<195.412 328.529> 650 67<195.767 329.167>
VStem: 68 74<106.149 287.854> 82 75<443.25 610.851> 369 74<445.738 609.521> 382 75<106.168 290.005>
LayerCount: 2
Fore
SplineSet
161 14 m 0xe2
 132 30 108 53 92 82 c 0
 76 111 68 145 68 183 c 2
 68 209 l 2xf2
 68 246 77 279 94 308 c 0
 111 337 135 359 166 373 c 1
 140 386 119 405 104 430 c 0
 89 455 82 484 82 518 c 2
 82 539 l 2
 82 572 89 602 104 629 c 0
 119 656 141 677 168 693 c 0
 195 709 227 717 262 717 c 0
 298 717 330 709 358 693 c 0
 386 677 406 656 421 629 c 0
 436 602 443 572 443 539 c 2
 443 518 l 2xec
 443 484 435 455 420 430 c 0
 405 405 384 386 358 373 c 1
 389 358 414 336 431 307 c 0
 448 278 457 245 457 210 c 2
 457 184 l 2
 457 145 449 111 432 82 c 0
 415 53 391 30 362 14 c 0
 333 -2 299 -10 261 -10 c 0
 223 -10 190 -2 161 14 c 0xe2
339 436 m 0
 358 457 369 485 369 518 c 2
 369 540 l 2
 369 572 359 598 339 619 c 0
 319 640 293 650 262 650 c 0
 231 650 205 640 186 619 c 0
 167 598 157 572 157 540 c 2
 157 518 l 2xec
 157 485 166 457 185 436 c 0
 204 415 230 404 262 404 c 0
 294 404 320 415 339 436 c 0
349 92 m 0
 371 116 382 146 382 184 c 2
 382 210 l 2
 382 248 372 279 350 303 c 0
 328 327 299 338 262 338 c 0
 226 338 197 326 175 302 c 0
 153 278 142 248 142 210 c 2
 142 184 l 2xf2
 142 146 153 116 175 92 c 0
 197 68 226 56 262 56 c 0
 298 56 327 68 349 92 c 0
EndSplineSet
Validated: 1
EndChar

StartChar: nine
Encoding: 57 57 27
Width: 505
GlyphClass: 2
Flags: W
HStem: 0 21G<162 249.79> 289 67<181.213 312.612> 650 67<180.832 323.734>
VStem: 60 75<405.051 601.917> 370 75<403.495 601.916>
LayerCount: 2
Fore
SplineSet
313 310 m 1
 305 304 294 299 280 295 c 0
 266 291 252 289 237 289 c 0
 184 289 141 307 109 342 c 0
 77 377 60 423 60 481 c 2
 60 516 l 2
 60 558 69 594 86 624 c 0
 103 654 125 677 154 693 c 0
 183 709 216 717 253 717 c 0
 312 717 358 699 393 663 c 0
 428 627 445 579 445 518 c 2
 445 483 l 2
 445 458 442 434 435 411 c 0
 428 388 417 362 403 333 c 2
 240 0 l 1
 162 0 l 1
 313 310 l 1
338 391 m 0
 359 414 370 444 370 484 c 2
 370 519 l 2
 370 559 359 591 338 615 c 0
 317 639 289 650 253 650 c 0
 217 650 188 639 167 615 c 0
 146 591 135 560 135 520 c 2
 135 485 l 2
 135 445 146 414 167 391 c 0
 188 368 217 356 253 356 c 0
 289 356 317 368 338 391 c 0
EndSplineSet
Validated: 1
EndChar

StartChar: colon
Encoding: 58 58 28
Width: 198
GlyphClass: 2
Flags: W
HStem: 0 94<54 144> 346 94<54 144>
VStem: 54 90<0 94 346 440>
LayerCount: 2
Fore
SplineSet
54 94 m 1
 144 94 l 1
 144 0 l 1
 54 0 l 1
 54 94 l 1
54 440 m 1
 144 440 l 1
 144 346 l 1
 54 346 l 1
 54 440 l 1
EndSplineSet
Validated: 1
EndChar

StartChar: semicolon
Encoding: 59 59 29
Width: 198
GlyphClass: 2
Flags: W
HStem: 346 94<54 144>
VStem: 54 90<346 440> 77 67<-77 95>
LayerCount: 2
Fore
SplineSet
54 440 m 1xc0
 144 440 l 1
 144 346 l 1
 54 346 l 1
 54 440 l 1xc0
77 95 m 1xa0
 144 95 l 1
 144 -77 l 1
 77 -140 l 1
 77 95 l 1xa0
EndSplineSet
Validated: 1
EndChar

StartChar: less
Encoding: 60 60 30
Width: 524
GlyphClass: 2
Flags: W
LayerCount: 2
Fore
SplineSet
58 253 m 1
 58 313 l 1
 466 479 l 1
 466 407 l 1
 154 283 l 1
 466 159 l 1
 466 86 l 1
 58 253 l 1
EndSplineSet
Validated: 1
Substitution2: "'rtla' Right to Left Alternates lookup 0 subtable" greater
EndChar

StartChar: equal
Encoding: 61 61 31
Width: 524
GlyphClass: 2
Flags: W
HStem: 151 67<58 466> 346 69<58 466>
LayerCount: 2
Fore
SplineSet
58 415 m 1
 466 415 l 1
 466 346 l 1
 58 346 l 1
 58 415 l 1
58 218 m 1
 466 218 l 1
 466 151 l 1
 58 151 l 1
 58 218 l 1
EndSplineSet
Validated: 1
EndChar

StartChar: greater
Encoding: 62 62 32
Width: 524
GlyphClass: 2
Flags: W
LayerCount: 2
Fore
SplineSet
58 159 m 1
 371 283 l 1
 58 407 l 1
 58 479 l 1
 466 313 l 1
 466 253 l 1
 58 86 l 1
 58 159 l 1
EndSplineSet
Validated: 1
Substitution2: "'rtla' Right to Left Alternates lookup 0 subtable" less
EndChar

StartChar: question
Encoding: 63 63 33
Width: 439
GlyphClass: 2
Flags: W
HStem: -0 95<168 259> 649 68<145.402 284.668>
VStem: 39 74<538 615.803> 168 91<0 95> 176 75<182 316.08> 316 75<467.591 617.545>
LayerCount: 2
Fore
SplineSet
176 243 m 2xec
 176 268 178 288 183 303 c 0
 188 318 198 336 214 357 c 2
 269 432 l 2
 287 457 301 477 307 493 c 0
 313 509 316 527 316 546 c 0
 316 579 308 604 290 622 c 0
 272 640 247 649 214 649 c 0
 148 649 114 612 113 538 c 1
 39 538 l 1
 40 595 56 639 86 670 c 0
 116 701 159 717 216 717 c 0
 270 717 313 701 344 670 c 0
 375 639 391 597 391 546 c 0
 391 521 387 498 379 478 c 0
 371 458 357 435 339 409 c 2
 281 327 l 2
 269 311 261 297 257 285 c 0
 253 273 251 259 251 242 c 2
 251 182 l 1
 176 182 l 1
 176 243 l 2xec
168 95 m 1xf4
 259 95 l 1
 259 -0 l 1
 168 -0 l 1
 168 95 l 1xf4
EndSplineSet
Validated: 1
EndChar

StartChar: at
Encoding: 64 64 34
Width: 892
GlyphClass: 2
Flags: W
HStem: -131 66<317.615 595.805> 57 60<378.487 505.121 626.922 732.139> 452 59<379.92 505.183> 641 66<317.468 576.12>
VStem: 60 73<123.047 455.322> 275 71<152.085 416.135> 538 69<152.561 416.589 455 501> 760 73<145.975 455.691>
LayerCount: 2
Fore
SplineSet
246 -82 m 0
 187 -50 141 -4 109 54 c 0
 77 112 60 179 60 255 c 2
 60 325 l 2
 60 400 77 466 110 524 c 0
 143 582 188 626 246 658 c 0
 304 690 371 707 446 707 c 0
 520 707 587 690 646 658 c 0
 705 626 750 582 783 524 c 0
 816 466 833 401 833 327 c 2
 833 258 l 2
 833 191 819 141 790 108 c 0
 761 75 724 57 678 57 c 0
 650 57 625 63 605 76 c 0
 585 89 569 107 559 130 c 1
 549 106 532 88 510 76 c 0
 488 64 461 57 428 57 c 0
 375 57 337 74 312 106 c 0
 287 138 275 184 275 243 c 2
 275 325 l 2
 275 384 287 430 312 462 c 0
 337 494 375 511 426 511 c 0
 452 511 475 506 495 496 c 0
 515 486 530 473 541 455 c 1
 541 501 l 1
 607 501 l 1
 607 205 l 2
 607 176 614 153 627 138 c 0
 640 123 658 116 679 116 c 0
 706 116 725 126 739 148 c 0
 753 170 760 206 760 257 c 2
 760 326 l 2
 760 389 747 445 722 492 c 0
 697 539 660 576 613 602 c 0
 566 628 509 641 446 641 c 0
 383 641 327 628 280 602 c 0
 233 576 196 539 171 492 c 0
 146 445 133 390 133 327 c 2
 133 254 l 2
 133 191 146 136 171 88 c 0
 196 40 233 2 280 -25 c 0
 327 -52 382 -65 446 -65 c 0
 491 -65 531 -61 565 -52 c 0
 599 -43 634 -30 667 -12 c 1
 691 -71 l 1
 654 -92 617 -107 578 -117 c 0
 539 -127 495 -131 446 -131 c 0
 371 -131 305 -114 246 -82 c 0
538 243 m 2
 538 327 l 2
 538 410 505 452 442 452 c 0
 378 452 346 409 346 324 c 2
 346 248 l 2
 346 206 354 174 369 151 c 0
 384 128 408 117 442 117 c 0
 505 117 538 159 538 243 c 2
EndSplineSet
Validated: 1
EndChar

StartChar: A
Encoding: 65 65 35
Width: 590
GlyphClass: 2
Flags: W
HStem: 0 21G<7 92.9412 497.941 584> 170 63<167 424> 687 20G<256.73 334.27>
LayerCount: 2
Fore
SplineSet
445 170 m 1
 145 170 l 1
 86 0 l 1
 7 0 l 1
 264 707 l 1
 327 707 l 1
 584 0 l 1
 505 0 l 1
 445 170 l 1
424 233 m 1
 295 602 l 1
 167 233 l 1
 424 233 l 1
EndSplineSet
Validated: 1
EndChar

StartChar: B
Encoding: 66 66 36
Width: 628
GlyphClass: 2
Flags: W
HStem: 0 67<157 431.037> 328 66<157 425.146> 640 67<157 425.614>
VStem: 82 75<67 328 394 640> 475 75<440.457 593.158> 486 75<119.152 277.918>
LayerCount: 2
Fore
SplineSet
531 301 m 0xf8
 551 272 561 236 561 194 c 0xf4
 561 133 542 85 504 51 c 0
 466 17 413 0 347 0 c 2
 82 0 l 1
 82 707 l 1
 341 707 l 2
 407 707 458 690 495 658 c 0
 532 626 550 579 550 520 c 0
 550 484 540 452 521 423 c 0
 502 394 475 375 441 364 c 1
 481 352 511 330 531 301 c 0xf8
157 640 m 1
 157 394 l 1
 333 394 l 2
 377 394 412 404 437 424 c 0
 462 444 475 475 475 516 c 0xf8
 475 557 463 588 438 609 c 0
 413 630 379 640 334 640 c 2
 157 640 l 1
447 100 m 0
 473 123 486 156 486 199 c 0xf4
 486 241 474 273 448 295 c 0
 422 317 386 328 339 328 c 2
 157 328 l 1
 157 67 l 1
 338 67 l 2
 385 67 421 77 447 100 c 0
EndSplineSet
Validated: 1
EndChar

StartChar: C
Encoding: 67 67 37
Width: 624
GlyphClass: 2
Flags: W
HStem: -8 68<220.209 411.954> 648 68<220.041 412.946>
VStem: 68 74<143.593 563.884> 482 73<126.382 212 497 582.499>
LayerCount: 2
Fore
SplineSet
135 57 m 0
 90 100 68 168 68 262 c 2
 68 445 l 2
 68 539 90 608 135 651 c 0
 180 694 240 716 316 716 c 0
 364 716 406 707 443 689 c 0
 480 671 507 646 527 613 c 0
 547 580 557 543 557 500 c 2
 557 497 l 1
 482 497 l 1
 482 500 l 2
 482 546 468 581 438 608 c 0
 408 635 367 648 316 648 c 0
 259 648 217 632 187 600 c 0
 157 568 142 515 142 442 c 2
 142 258 l 2
 142 126 200 60 317 60 c 0
 368 60 409 74 438 100 c 0
 467 126 482 162 482 208 c 2
 482 212 l 1
 555 212 l 1
 555 208 l 2
 555 142 533 89 490 50 c 0
 447 11 389 -8 316 -8 c 0
 240 -8 180 14 135 57 c 0
EndSplineSet
Validated: 1
EndChar

StartChar: D
Encoding: 68 68 38
Width: 635
GlyphClass: 2
Flags: W
HStem: 0 68<158 417.162> 639 68<158 416.191>
VStem: 82 76<68 639> 493 75<149.259 554.884>
LayerCount: 2
Fore
SplineSet
82 707 m 1
 324 707 l 2
 399 707 458 685 502 642 c 0
 546 599 568 530 568 436 c 2
 568 270 l 2
 568 176 546 108 502 65 c 0
 458 22 399 0 324 0 c 2
 82 0 l 1
 82 707 l 1
325 68 m 2
 437 68 493 134 493 266 c 2
 493 433 l 2
 493 505 478 557 449 590 c 0
 420 623 379 639 325 639 c 2
 158 639 l 1
 158 68 l 1
 325 68 l 2
EndSplineSet
Validated: 1
EndChar

StartChar: E
Encoding: 69 69 39
Width: 560
GlyphClass: 2
Flags: W
HStem: 0 68<157 511> 326 67<157 460> 639 68<157 511>
VStem: 82 75<68 326 393 639>
LayerCount: 2
Fore
SplineSet
157 639 m 1
 157 393 l 1
 460 393 l 1
 460 326 l 1
 157 326 l 1
 157 68 l 1
 511 68 l 1
 511 0 l 1
 82 0 l 1
 82 707 l 1
 511 707 l 1
 511 639 l 1
 157 639 l 1
EndSplineSet
Validated: 1
EndChar

StartChar: F
Encoding: 70 70 40
Width: 551
GlyphClass: 2
Flags: W
HStem: 0 21G<82 157> 324 67<157 460> 639 68<157 511>
VStem: 82 75<0 324 391 639>
LayerCount: 2
Fore
SplineSet
157 639 m 1
 157 391 l 1
 460 391 l 1
 460 324 l 1
 157 324 l 1
 157 0 l 1
 82 0 l 1
 82 707 l 1
 511 707 l 1
 511 639 l 1
 157 639 l 1
EndSplineSet
Validated: 1
EndChar

StartChar: G
Encoding: 71 71 41
Width: 624
GlyphClass: 2
Flags: W
HStem: -8 68<219.709 411.432> 299 65<313 482> 648 68<218.97 411.239>
VStem: 68 74<143.593 565.788> 482 75<134.218 299 498 580.633>
LayerCount: 2
Fore
SplineSet
135 57 m 0
 90 100 68 168 68 262 c 2
 68 445 l 2
 68 539 90 608 135 651 c 0
 180 694 239 716 314 716 c 0
 362 716 405 707 441 689 c 0
 477 671 505 646 525 614 c 0
 545 582 555 544 555 502 c 2
 555 498 l 1
 480 498 l 1
 480 502 l 2
 480 547 466 583 436 609 c 0
 406 635 366 648 315 648 c 0
 258 648 215 632 186 600 c 0
 157 568 142 514 142 442 c 2
 142 258 l 2
 142 126 200 60 316 60 c 0
 370 60 412 75 440 104 c 0
 468 133 482 181 482 245 c 2
 482 299 l 1
 313 299 l 1
 313 364 l 1
 557 364 l 1
 557 258 l 2
 557 165 536 97 492 55 c 0
 448 13 388 -8 314 -8 c 0
 239 -8 180 14 135 57 c 0
EndSplineSet
Validated: 1
EndChar

StartChar: H
Encoding: 72 72 42
Width: 644
GlyphClass: 2
Flags: W
HStem: 0 21G<82 157 487 562> 328 67<157 487> 687 20G<82 157 487 562>
VStem: 82 75<0 328 395 707> 487 75<0 328 395 707>
LayerCount: 2
Fore
SplineSet
562 707 m 1
 562 0 l 1
 487 0 l 1
 487 328 l 1
 157 328 l 1
 157 0 l 1
 82 0 l 1
 82 707 l 1
 157 707 l 1
 157 395 l 1
 487 395 l 1
 487 707 l 1
 562 707 l 1
EndSplineSet
Validated: 1
EndChar

StartChar: I
Encoding: 73 73 43
Width: 254
GlyphClass: 2
Flags: W
HStem: 0 21G<90 165> 687 20G<90 165>
VStem: 90 75<0 707>
LayerCount: 2
Fore
SplineSet
90 707 m 1
 165 707 l 1
 165 0 l 1
 90 0 l 1
 90 707 l 1
EndSplineSet
Validated: 1
EndChar

StartChar: J
Encoding: 74 74 44
Width: 320
GlyphClass: 2
Flags: W
HStem: 0 68<33 140.526> 687 20G<156 230>
VStem: 156 74<86.5684 707>
LayerCount: 2
Fore
SplineSet
33 68 m 1
 91 68 l 2
 114 68 131 74 141 86 c 0
 151 98 156 118 156 145 c 2
 156 707 l 1
 230 707 l 1
 230 136 l 2
 230 92 220 58 198 35 c 0
 176 12 144 0 102 0 c 2
 33 0 l 1
 33 68 l 1
EndSplineSet
Validated: 1
EndChar

StartChar: K
Encoding: 75 75 45
Width: 612
GlyphClass: 2
Flags: W
HStem: 0 21G<82 157 505.418 604> 687 20G<82 157 467.175 572>
VStem: 82 75<0 195 295 707>
LayerCount: 2
Fore
SplineSet
301 373 m 1
 157 195 l 1
 157 0 l 1
 82 0 l 1
 82 707 l 1
 157 707 l 1
 157 295 l 1
 483 707 l 1
 572 707 l 1
 349 431 l 1
 604 0 l 1
 517 0 l 1
 301 373 l 1
EndSplineSet
Validated: 1
EndChar

StartChar: L
Encoding: 76 76 46
Width: 541
GlyphClass: 2
Flags: W
HStem: 0 68<157 509> 687 20G<82 157>
VStem: 82 75<68 707>
LayerCount: 2
Fore
SplineSet
82 707 m 1
 157 707 l 1
 157 68 l 1
 509 68 l 1
 509 0 l 1
 82 0 l 1
 82 707 l 1
EndSplineSet
Validated: 1
EndChar

StartChar: M
Encoding: 77 77 47
Width: 771
GlyphClass: 2
Flags: W
HStem: 0 21G<82 157 614 689> 687 20G<82 166.602 604.44 689>
VStem: 82 75<0 553> 614 75<0 553>
LayerCount: 2
Fore
SplineSet
689 707 m 1
 689 0 l 1
 614 0 l 1
 614 553 l 1
 415 141 l 1
 357 141 l 1
 157 553 l 1
 157 0 l 1
 82 0 l 1
 82 707 l 1
 157 707 l 1
 386 230 l 1
 614 707 l 1
 689 707 l 1
EndSplineSet
Validated: 1
EndChar

StartChar: N
Encoding: 78 78 48
Width: 678
GlyphClass: 2
Flags: W
HStem: 0 21G<82 157 509.17 597> 687 20G<82 169.852 522 597>
VStem: 82 75<0 569> 522 75<139 707>
LayerCount: 2
Fore
SplineSet
597 707 m 1
 597 0 l 1
 522 0 l 1
 157 569 l 1
 157 0 l 1
 82 0 l 1
 82 707 l 1
 157 707 l 1
 522 139 l 1
 522 707 l 1
 597 707 l 1
EndSplineSet
Validated: 1
EndChar

StartChar: O
Encoding: 79 79 49
Width: 624
GlyphClass: 2
Flags: W
HStem: -8 68<219.295 406.243> 648 68<217.669 405.321>
VStem: 68 74<140.633 567.125> 482 75<141.259 563.31>
LayerCount: 2
Fore
SplineSet
134 57 m 0
 90 100 68 168 68 262 c 2
 68 445 l 2
 68 539 90 608 134 651 c 0
 178 694 238 716 313 716 c 0
 387 716 447 694 491 651 c 0
 535 608 557 539 557 445 c 2
 557 262 l 2
 557 168 534 100 490 57 c 0
 446 14 386 -8 312 -8 c 0
 237 -8 178 14 134 57 c 0
482 258 m 2
 482 442 l 2
 482 579 426 648 313 648 c 0
 256 648 214 632 185 600 c 0
 156 568 142 514 142 442 c 2
 142 258 l 2
 142 189 157 139 186 108 c 0
 215 77 257 60 313 60 c 0
 426 60 482 126 482 258 c 2
EndSplineSet
Validated: 1
EndChar

StartChar: P
Encoding: 80 80 50
Width: 590
GlyphClass: 2
Flags: W
HStem: 0 21G<82 157> 292 67<157 424.958> 639 68<157 425.292>
VStem: 82 75<0 292 359 639> 483 75<412.784 583.469>
LayerCount: 2
Fore
SplineSet
499 652 m 0
 539 615 558 564 558 496 c 0
 558 433 538 382 498 346 c 0
 458 310 404 292 336 292 c 2
 157 292 l 1
 157 0 l 1
 82 0 l 1
 82 707 l 1
 336 707 l 2
 405 707 459 689 499 652 c 0
443 393 m 0
 470 416 483 450 483 496 c 0
 483 544 470 580 443 604 c 0
 416 628 379 639 330 639 c 2
 157 639 l 1
 157 359 l 1
 330 359 l 2
 379 359 416 370 443 393 c 0
EndSplineSet
Validated: 1
EndChar

StartChar: Q
Encoding: 81 81 51
Width: 624
GlyphClass: 2
Flags: W
HStem: -155 21G<450.15 496.152> -8 68<219.295 384.03> 648 68<217.669 405.321>
VStem: 68 74<140.633 567.125> 482 75<142.803 563.31>
LayerCount: 2
Fore
SplineSet
442 20 m 1
 519 -122 l 1
 461 -155 l 1
 378 -2 l 1
 358 -6 335 -8 312 -8 c 0
 237 -8 178 14 134 57 c 0
 90 100 68 168 68 262 c 2
 68 445 l 2
 68 539 90 608 134 651 c 0
 178 694 238 716 313 716 c 0
 387 716 447 694 491 651 c 0
 535 608 557 539 557 445 c 2
 557 262 l 2
 557 141 518 60 442 20 c 1
482 442 m 2
 482 579 426 648 313 648 c 0
 256 648 214 632 185 600 c 0
 156 568 142 514 142 442 c 2
 142 258 l 2
 142 189 157 139 186 108 c 0
 215 77 257 60 313 60 c 0
 426 60 482 126 482 258 c 2
 482 442 l 2
EndSplineSet
Validated: 1
EndChar

StartChar: R
Encoding: 82 82 52
Width: 613
GlyphClass: 2
Flags: W
HStem: 0 21G<82 157 475.742 572> 310 65<157 327> 639 68<157 429.784>
VStem: 82 75<0 310 375 639> 482 75<427.06 590.02>
LayerCount: 2
Fore
SplineSet
327 310 m 1
 157 310 l 1
 157 0 l 1
 82 0 l 1
 82 707 l 1
 344 707 l 2
 410 707 462 689 500 655 c 0
 538 621 557 571 557 508 c 0
 557 457 544 416 517 383 c 0
 490 350 454 328 406 317 c 1
 572 0 l 1
 486 0 l 1
 327 310 l 1
157 375 m 1
 338 375 l 2
 384 375 419 386 444 409 c 0
 469 432 482 465 482 507 c 0
 482 551 470 584 445 606 c 0
 420 628 384 639 338 639 c 2
 157 639 l 1
 157 375 l 1
EndSplineSet
Validated: 1
EndChar

StartChar: S
Encoding: 83 83 53
Width: 559
GlyphClass: 2
Flags: W
HStem: -6 65<177.182 379.288> 519 21G<423 501> 651 65<177.76 367.799>
VStem: 34 74<128.708 200> 48 73<451.954 597.375> 427 74<519 591.382> 438 74<113.119 268.572>
LayerCount: 2
Fore
SplineSet
103 46 m 0xea
 63 81 40 132 34 200 c 1
 108 200 l 1
 118 106 173 59 275 59 c 0
 328 59 369 70 397 93 c 0
 425 116 438 148 438 191 c 0xf2
 438 230 428 260 406 280 c 0
 384 300 350 313 306 321 c 2
 226 334 l 2
 169 344 125 363 94 393 c 0
 63 423 48 464 48 518 c 0
 48 580 69 629 111 664 c 0
 153 699 207 716 275 716 c 0
 338 716 390 699 430 667 c 0
 470 635 493 585 501 519 c 1
 427 519 l 1xec
 419 607 368 651 274 651 c 0
 226 651 188 640 161 617 c 0
 134 594 121 563 121 523 c 0
 121 488 131 461 152 442 c 0
 173 423 205 409 247 401 c 2
 329 387 l 2
 388 377 434 357 465 326 c 0
 496 295 512 252 512 196 c 0
 512 132 490 82 447 47 c 0
 404 12 345 -6 270 -6 c 0
 199 -6 143 11 103 46 c 0xea
EndSplineSet
Validated: 1
EndChar

StartChar: T
Encoding: 84 84 54
Width: 493
GlyphClass: 2
Flags: W
HStem: 0 21G<210 284> 639 68<8 210 284 485>
VStem: 210 74<0 639>
LayerCount: 2
Fore
SplineSet
485 639 m 1
 284 639 l 1
 284 0 l 1
 210 0 l 1
 210 639 l 1
 8 639 l 1
 8 707 l 1
 485 707 l 1
 485 639 l 1
EndSplineSet
Validated: 1
EndChar

StartChar: U
Encoding: 85 85 55
Width: 650
GlyphClass: 2
Flags: W
HStem: -6 66<235.775 414.319> 687 20G<82 158 494 568>
VStem: 82 76<139.408 707> 494 74<142.215 707>
LayerCount: 2
Fore
SplineSet
201 24 m 0
 164 44 135 72 114 108 c 0
 93 144 82 184 82 230 c 2
 82 707 l 1
 158 707 l 1
 158 237 l 2
 158 183 173 140 203 108 c 0
 233 76 275 60 326 60 c 0
 377 60 416 76 447 108 c 0
 478 140 494 183 494 237 c 2
 494 707 l 1
 568 707 l 1
 568 230 l 2
 568 184 558 143 537 107 c 0
 516 71 488 44 451 24 c 0
 414 4 372 -6 326 -6 c 0
 280 -6 238 4 201 24 c 0
EndSplineSet
Validated: 1
EndChar

StartChar: V
Encoding: 86 86 56
Width: 535
GlyphClass: 2
Flags: W
HStem: 0 21G<230.494 304.506> 687 20G<7 91.2457 444.754 528>
LayerCount: 2
Fore
SplineSet
7 707 m 1
 85 707 l 1
 268 121 l 1
 451 707 l 1
 528 707 l 1
 298 0 l 1
 237 0 l 1
 7 707 l 1
EndSplineSet
Validated: 1
EndChar

StartChar: W
Encoding: 87 87 57
Width: 815
GlyphClass: 2
Flags: W
HStem: 0 21G<182.88 259.992 558.91 636.007> 687 20G<7 84.8805 356.29 461.881 733.29 808>
LayerCount: 2
Fore
SplineSet
808 707 m 1
 631 0 l 1
 564 0 l 1
 408 613 l 1
 255 0 l 1
 188 0 l 1
 7 707 l 1
 80 707 l 1
 223 121 l 1
 361 707 l 1
 457 707 l 1
 600 121 l 1
 738 707 l 1
 808 707 l 1
EndSplineSet
Validated: 1
EndChar

StartChar: X
Encoding: 88 88 58
Width: 579
GlyphClass: 2
Flags: W
HStem: 0 21G<7 106.597 469.403 572> 687 20G<27 129.446 450.554 550>
LayerCount: 2
Fore
SplineSet
245 368 m 1
 27 707 l 1
 117 707 l 1
 290 429 l 1
 463 707 l 1
 550 707 l 1
 334 371 l 1
 572 0 l 1
 482 0 l 1
 288 308 l 1
 94 0 l 1
 7 0 l 1
 245 368 l 1
EndSplineSet
Validated: 1
EndChar

StartChar: Y
Encoding: 89 89 59
Width: 510
GlyphClass: 2
Flags: W
HStem: 0 21G<218 293> 687 20G<7 97.8525 413.088 504>
VStem: 218 75<0 296>
LayerCount: 2
Fore
SplineSet
293 296 m 1
 293 0 l 1
 218 0 l 1
 218 297 l 1
 7 707 l 1
 88 707 l 1
 255 368 l 1
 423 707 l 1
 504 707 l 1
 293 296 l 1
EndSplineSet
Validated: 1
EndChar

StartChar: Z
Encoding: 90 90 60
Width: 528
GlyphClass: 2
Flags: W
HStem: 0 68<126 492> 639 68<54 403>
LayerCount: 2
Fore
SplineSet
492 68 m 1
 492 0 l 1
 41 0 l 1
 41 68 l 1
 403 639 l 1
 54 639 l 1
 54 707 l 1
 488 707 l 1
 488 639 l 1
 126 68 l 1
 492 68 l 1
EndSplineSet
Validated: 1
EndChar

StartChar: bracketleft
Encoding: 91 91 61
Width: 302
GlyphClass: 2
Flags: W
HStem: -86 68<154 242> 690 68<154 242>
VStem: 82 160<-86 -18 690 758> 82 72<-18 690>
LayerCount: 2
Fore
SplineSet
82 758 m 1xe0
 242 758 l 1
 242 690 l 1xe0
 154 690 l 1
 154 -18 l 1xd0
 242 -18 l 1
 242 -86 l 1
 82 -86 l 1
 82 758 l 1xe0
EndSplineSet
Validated: 1
Substitution2: "'rtla' Right to Left Alternates lookup 0 subtable" bracketright
EndChar

StartChar: backslash
Encoding: 92 92 62
Width: 401
GlyphClass: 2
Flags: W
HStem: 687 20G<60 128.109>
VStem: 60 281
LayerCount: 2
Fore
SplineSet
60 707 m 1
 122 707 l 1
 341 -10 l 1
 280 -10 l 1
 60 707 l 1
EndSplineSet
Validated: 1
EndChar

StartChar: bracketright
Encoding: 93 93 63
Width: 302
GlyphClass: 2
Flags: W
HStem: -86 68<60 148> 690 68<60 148>
VStem: 60 160<-86 -18 690 758> 148 72<-18 690>
LayerCount: 2
Fore
SplineSet
60 -18 m 1xe0
 148 -18 l 1
 148 690 l 1xd0
 60 690 l 1
 60 758 l 1
 220 758 l 1
 220 -86 l 1
 60 -86 l 1
 60 -18 l 1xe0
EndSplineSet
Validated: 1
Substitution2: "'rtla' Right to Left Alternates lookup 0 subtable" bracketleft
EndChar

StartChar: asciicircum
Encoding: 94 94 64
Width: 524
GlyphClass: 2
Flags: W
HStem: 687 20G<223.47 301.53>
LayerCount: 2
Fore
SplineSet
232 707 m 1
 293 707 l 1
 470 292 l 1
 409 292 l 1
 262 641 l 1
 117 292 l 1
 55 292 l 1
 232 707 l 1
EndSplineSet
Validated: 1
EndChar

StartChar: underscore
Encoding: 95 95 65
Width: 467
GlyphClass: 2
Flags: W
HStem: -106 51<0 468>
LayerCount: 2
Fore
SplineSet
0 -55 m 1
 468 -55 l 1
 468 -106 l 1
 0 -106 l 1
 0 -55 l 1
EndSplineSet
Validated: 1
EndChar

StartChar: grave
Encoding: 96 96 66
Width: 512
GlyphClass: 2
Flags: W
HStem: 586 128
VStem: 152 187
LayerCount: 2
Fore
SplineSet
152 714 m 1
 238 714 l 1
 339 586 l 1
 274 586 l 1
 152 714 l 1
EndSplineSet
Validated: 1
EndChar

StartChar: a
Encoding: 97 97 67
Width: 508
GlyphClass: 2
Flags: W
HStem: -6 56<149.371 319.378> 244 51<150.638 362> 468 58<163.906 324.227>
VStem: 48 70<80.5265 213.049> 63 68<375 436.045> 362 70<0 55 91.6456 244 295 430.005>
LayerCount: 2
Fore
SplineSet
383 482 m 0xec
 415 453 432 410 432 353 c 2
 432 0 l 1
 364 0 l 1
 364 55 l 1
 348 34 328 19 305 9 c 0
 282 -1 253 -6 220 -6 c 0
 165 -6 123 7 93 33 c 0
 63 59 48 96 48 146 c 0xf4
 48 192 64 229 94 255 c 0
 124 281 167 295 222 295 c 2
 362 295 l 1
 362 354 l 2
 362 392 352 420 332 439 c 0
 312 458 283 468 245 468 c 0
 210 468 181 460 161 444 c 0
 141 428 131 406 131 378 c 2
 131 375 l 1
 63 375 l 1
 63 380 l 2
 63 424 80 459 112 486 c 0
 144 513 188 526 244 526 c 0
 305 526 351 511 383 482 c 0xec
331 81 m 0
 352 102 362 134 362 176 c 2
 362 244 l 1
 232 244 l 2
 156 244 118 211 118 147 c 0
 118 82 155 50 231 50 c 0
 277 50 310 60 331 81 c 0
EndSplineSet
Validated: 1
EndChar

StartChar: b
Encoding: 98 98 68
Width: 522
GlyphClass: 2
Flags: W
HStem: -6 62<202.619 346.641> 463 63<199.083 344.624> 687 20G<77 146>
VStem: 77 69<0 69 118.67 403.166 446 707> 392 70<106.893 411.154>
LayerCount: 2
Fore
SplineSet
146 69 m 1
 146 0 l 1
 77 0 l 1
 77 707 l 1
 146 707 l 1
 146 446 l 1
 160 472 179 492 202 506 c 0
 225 520 252 526 282 526 c 0
 335 526 379 509 412 475 c 0
 445 441 462 386 462 313 c 2
 462 207 l 2
 462 134 446 80 413 46 c 0
 380 12 338 -6 287 -6 c 0
 222 -6 175 19 146 69 c 1
392 211 m 2
 392 309 l 2
 392 411 352 463 272 463 c 0
 230 463 199 448 178 419 c 0
 157 390 146 351 146 303 c 2
 146 212 l 2
 146 166 158 129 180 100 c 0
 202 71 234 56 276 56 c 0
 353 56 392 108 392 211 c 2
EndSplineSet
Validated: 1
EndChar

StartChar: c
Encoding: 99 99 69
Width: 515
GlyphClass: 2
Flags: W
HStem: -6 62<181.341 345.401> 463 63<181.127 344.749>
VStem: 60 70<108.483 411.466> 387 68<96.5312 171 348 422.273>
LayerCount: 2
Fore
SplineSet
115 45 m 0
 78 79 60 133 60 207 c 2
 60 313 l 2
 60 387 78 441 115 475 c 0
 152 509 201 526 262 526 c 0
 321 526 369 510 403 479 c 0
 437 448 455 406 455 353 c 2
 455 348 l 1
 387 348 l 1
 387 353 l 2
 387 388 376 415 354 434 c 0
 332 453 303 463 265 463 c 0
 223 463 190 452 166 429 c 0
 142 406 130 366 130 309 c 2
 130 211 l 2
 130 154 141 114 165 91 c 0
 189 68 222 56 264 56 c 0
 302 56 332 66 354 85 c 0
 376 104 387 131 387 166 c 2
 387 171 l 1
 455 171 l 1
 455 167 l 2
 455 114 437 72 402 41 c 0
 367 10 321 -6 263 -6 c 0
 201 -6 152 11 115 45 c 0
EndSplineSet
Validated: 1
EndChar

StartChar: d
Encoding: 100 100 70
Width: 523
GlyphClass: 2
Flags: W
HStem: -6 62<176.237 322.137> 463 63<178.07 321.829> 687 20G<376 446>
VStem: 60 71<106.893 411.154> 376 70<0 69 116.255 403.166 446 707>
LayerCount: 2
Fore
SplineSet
110 46 m 0
 77 80 60 134 60 207 c 2
 60 313 l 2
 60 386 77 441 110 475 c 0
 143 509 185 526 237 526 c 0
 300 526 346 499 376 446 c 1
 376 707 l 1
 446 707 l 1
 446 0 l 1
 376 0 l 1
 376 69 l 1
 362 44 344 26 320 13 c 0
 296 0 269 -6 236 -6 c 0
 185 -6 143 12 110 46 c 0
343 99 m 0
 365 128 376 166 376 212 c 2
 376 303 l 2
 376 351 365 390 344 419 c 0
 323 448 292 463 250 463 c 0
 171 463 131 411 131 309 c 2
 131 211 l 2
 131 108 170 56 246 56 c 0
 289 56 321 70 343 99 c 0
EndSplineSet
Validated: 1
EndChar

StartChar: e
Encoding: 101 101 71
Width: 515
GlyphClass: 2
Flags: W
HStem: -6 62<182.864 345.875> 246 52<130 385> 463 63<179.451 337.715>
VStem: 60 70<110.078 246 298 411.929> 385 70<94.9568 160 298 414.433>
LayerCount: 2
Fore
SplineSet
130 246 m 1
 130 215 l 2
 130 156 142 116 166 92 c 0
 190 68 223 56 265 56 c 0
 302 56 331 65 352 83 c 0
 373 101 383 126 383 157 c 2
 383 160 l 1
 451 160 l 1
 451 155 l 2
 451 107 434 67 400 38 c 0
 366 9 319 -6 260 -6 c 0
 199 -6 151 12 115 48 c 0
 79 84 60 141 60 217 c 2
 60 307 l 2
 60 381 79 437 115 473 c 0
 151 509 199 526 258 526 c 0
 317 526 365 509 401 473 c 0
 437 437 455 381 455 307 c 2
 455 246 l 1
 130 246 l 1
165 429 m 0
 142 406 130 366 130 309 c 2
 130 298 l 1
 385 298 l 1
 385 316 l 2
 385 370 374 408 351 430 c 0
 328 452 298 463 258 463 c 0
 219 463 188 452 165 429 c 0
EndSplineSet
Validated: 1
EndChar

StartChar: f
Encoding: 102 102 72
Width: 334
GlyphClass: 2
Flags: W
HStem: 0 21G<117 187> 464 55<51 117 187 296> 651 56<200.019 296>
VStem: 117 70<0 464 519 638.544>
LayerCount: 2
Fore
SplineSet
187 581 m 2
 187 519 l 1
 296 519 l 1
 296 464 l 1
 187 464 l 1
 187 0 l 1
 117 0 l 1
 117 464 l 1
 51 464 l 1
 51 519 l 1
 117 519 l 1
 117 578 l 2
 117 618 128 649 150 672 c 0
 172 695 203 707 242 707 c 2
 296 707 l 1
 296 651 l 1
 253 651 l 2
 209 651 187 628 187 581 c 2
EndSplineSet
Validated: 1
EndChar

StartChar: g
Encoding: 103 103 73
Width: 523
GlyphClass: 2
Flags: W
HStem: -162 61<173.472 332.874> 32 63<176.237 322.137> 467 62<178.07 322.022>
VStem: 60 71<144.449 415.054> 376 70<-55.0375 108 155.255 407.166 451 523>
LayerCount: 2
Fore
SplineSet
123 -125 m 0
 91 -100 73 -68 70 -26 c 1
 139 -26 l 1
 142 -49 155 -66 175 -80 c 0
 195 -94 221 -101 254 -101 c 0
 335 -101 376 -56 376 35 c 2
 376 108 l 1
 362 83 344 64 320 51 c 0
 296 38 269 32 236 32 c 0
 185 32 143 49 110 83 c 0
 77 117 60 172 60 246 c 2
 60 317 l 2
 60 390 77 444 110 478 c 0
 143 512 185 529 237 529 c 0
 300 529 347 504 376 451 c 1
 376 523 l 1
 446 523 l 1
 446 41 l 2
 446 -22 430 -72 396 -108 c 0
 362 -144 315 -162 254 -162 c 0
 199 -162 155 -150 123 -125 c 0
343 138 m 0
 365 167 376 205 376 251 c 2
 376 307 l 2
 376 355 365 394 344 423 c 0
 323 452 292 467 250 467 c 0
 171 467 131 415 131 312 c 2
 131 250 l 2
 131 147 170 95 246 95 c 0
 289 95 321 109 343 138 c 0
EndSplineSet
Validated: 1
EndChar

StartChar: h
Encoding: 104 104 74
Width: 534
GlyphClass: 2
Flags: W
HStem: -0 21G<77 146 388 458> 463 62<195.784 342.512> 687 20G<77 146>
VStem: 77 69<0 413.755 456 707> 388 70<0 416.333>
LayerCount: 2
Fore
SplineSet
77 707 m 1
 146 707 l 1
 146 456 l 1
 177 502 225 525 286 525 c 0
 340 525 382 509 412 477 c 0
 442 445 458 400 458 341 c 2
 458 -0 l 1
 388 -0 l 1
 388 331 l 2
 388 374 377 406 356 429 c 0
 335 452 306 463 268 463 c 0
 231 463 202 452 180 429 c 0
 158 406 146 373 146 331 c 2
 146 0 l 1
 77 0 l 1
 77 707 l 1
EndSplineSet
Validated: 1
EndChar

StartChar: i
Encoding: 105 105 75
Width: 239
GlyphClass: 2
Flags: W
HStem: 0 21G<85 155> 499 20G<85 155> 604 92<83 157>
VStem: 85 70<0 519 604 696>
LayerCount: 2
Fore
SplineSet
85 519 m 1
 155 519 l 1
 155 0 l 1
 85 0 l 1
 85 519 l 1
83 696 m 1
 157 696 l 1
 157 604 l 1
 83 604 l 1
 83 696 l 1
EndSplineSet
Validated: 1
EndChar

StartChar: j
Encoding: 106 106 76
Width: 231
GlyphClass: 2
Flags: W
HStem: -156 64<-31 60.5261> 499 20G<77 146> 614 93<74 147>
VStem: 77 69<-73.4316 519 614 707>
LayerCount: 2
Fore
SplineSet
74 707 m 1
 147 707 l 1
 147 614 l 1
 74 614 l 1
 74 707 l 1
-31 -92 m 1
 11 -92 l 2
 34 -92 51 -86 61 -74 c 0
 71 -62 77 -42 77 -15 c 2
 77 519 l 1
 146 519 l 1
 146 -19 l 2
 146 -63 136 -98 114 -121 c 0
 92 -144 60 -156 18 -156 c 2
 -31 -156 l 1
 -31 -92 l 1
EndSplineSet
Validated: 1
EndChar

StartChar: k
Encoding: 107 107 77
Width: 505
GlyphClass: 2
Flags: W
HStem: 0 21G<77 146 389.327 486> 499 20G<356.551 457> 687 20G<77 146>
VStem: 77 69<0 155 243 707>
LayerCount: 2
Fore
SplineSet
244 269 m 1
 146 155 l 1
 146 0 l 1
 77 0 l 1
 77 707 l 1
 146 707 l 1
 146 243 l 1
 373 519 l 1
 457 519 l 1
 290 323 l 1
 486 0 l 1
 401 0 l 1
 244 269 l 1
EndSplineSet
Validated: 1
EndChar

StartChar: l
Encoding: 108 108 78
Width: 279
GlyphClass: 2
Flags: W
HStem: 0 63<162.474 254> 687 20G<77 146>
VStem: 77 69<82.5676 707>
LayerCount: 2
Fore
SplineSet
110 35 m 0
 88 58 77 92 77 136 c 2
 77 707 l 1
 146 707 l 1
 146 140 l 2
 146 113 152 94 162 82 c 0
 172 70 189 63 212 63 c 2
 254 63 l 1
 254 0 l 1
 205 0 l 2
 163 0 132 12 110 35 c 0
EndSplineSet
Validated: 1
EndChar

StartChar: m
Encoding: 109 109 79
Width: 844
GlyphClass: 2
Flags: W
HStem: -0 21G<77 146 387 458 698 768> 463 62<196.453 342.822 504.172 654.26>
VStem: 77 69<0 413.755 456 519> 387 71<0 416.333> 698 70<0 416.608>
LayerCount: 2
Fore
SplineSet
77 519 m 1
 145 519 l 1
 145 456 l 1
 160 479 180 495 204 507 c 0
 228 519 256 525 286 525 c 0
 321 525 352 518 377 503 c 0
 402 488 421 466 435 438 c 1
 469 496 522 525 593 525 c 0
 648 525 691 509 722 477 c 0
 753 445 768 399 768 341 c 2
 768 -0 l 1
 698 -0 l 1
 698 331 l 2
 698 374 688 406 667 429 c 0
 646 452 618 463 580 463 c 0
 542 463 512 452 490 429 c 0
 468 406 458 374 458 334 c 2
 458 -0 l 1
 387 -0 l 1
 387 331 l 2
 387 374 377 406 356 429 c 0
 335 452 306 463 268 463 c 0
 231 463 202 452 180 429 c 0
 158 406 146 373 146 331 c 2
 146 0 l 1
 77 0 l 1
 77 519 l 1
EndSplineSet
Validated: 1
EndChar

StartChar: n
Encoding: 110 110 80
Width: 534
GlyphClass: 2
Flags: W
HStem: -0 21G<77 146 388 458> 463 62<194.198 342.89>
VStem: 77 69<0 413.755 456 519> 388 70<0 416.333>
LayerCount: 2
Fore
SplineSet
77 519 m 1
 145 519 l 1
 145 456 l 1
 160 479 180 496 204 508 c 0
 228 520 256 525 286 525 c 0
 341 525 383 509 413 477 c 0
 443 445 458 399 458 341 c 2
 458 -0 l 1
 388 -0 l 1
 388 331 l 2
 388 374 377 406 356 429 c 0
 335 452 306 463 268 463 c 0
 231 463 202 452 180 429 c 0
 158 406 146 373 146 331 c 2
 146 0 l 1
 77 0 l 1
 77 519 l 1
EndSplineSet
Validated: 1
EndChar

StartChar: o
Encoding: 111 111 81
Width: 517
GlyphClass: 2
Flags: W
HStem: -6 62<180.259 337.936> 463 63<179.638 338.549>
VStem: 60 70<108.483 411.517> 387 70<105.996 414.004>
LayerCount: 2
Fore
SplineSet
115 45 m 0
 79 79 60 133 60 207 c 2
 60 313 l 2
 60 387 79 441 115 475 c 0
 151 509 199 526 260 526 c 0
 319 526 367 509 403 475 c 0
 439 441 457 387 457 313 c 2
 457 207 l 2
 457 133 439 79 403 45 c 0
 367 11 319 -6 260 -6 c 0
 199 -6 151 11 115 45 c 0
353 91 m 0
 376 114 387 154 387 211 c 2
 387 309 l 2
 387 366 376 406 353 429 c 0
 330 452 299 463 260 463 c 0
 220 463 188 452 165 429 c 0
 142 406 130 366 130 309 c 2
 130 211 l 2
 130 154 142 114 165 91 c 0
 188 68 220 56 260 56 c 0
 299 56 330 68 353 91 c 0
EndSplineSet
Validated: 1
EndChar

StartChar: p
Encoding: 112 112 82
Width: 522
GlyphClass: 2
Flags: W
HStem: -156 21G<77 146> -6 62<202.619 346.641> 463 62<199.083 344.624>
VStem: 77 69<-156 69 118.67 403.166 446 519> 392 70<105.996 410.63>
LayerCount: 2
Fore
SplineSet
77 519 m 1
 146 519 l 1
 146 446 l 1
 160 472 179 492 202 505 c 0
 225 518 252 525 282 525 c 0
 335 525 379 508 412 474 c 0
 445 440 462 386 462 313 c 2
 462 207 l 2
 462 133 446 79 413 45 c 0
 380 11 338 -6 287 -6 c 0
 222 -6 175 19 146 69 c 1
 146 -156 l 1
 77 -156 l 1
 77 519 l 1
392 211 m 2
 392 308 l 2
 392 411 352 463 272 463 c 0
 230 463 199 448 178 419 c 0
 157 390 146 351 146 303 c 2
 146 212 l 2
 146 166 158 129 180 100 c 0
 202 71 234 56 276 56 c 0
 353 56 392 108 392 211 c 2
EndSplineSet
Validated: 1
EndChar

StartChar: q
Encoding: 113 113 83
Width: 523
GlyphClass: 2
Flags: W
HStem: -156 21G<376 446> -6 62<176.237 321.854> 463 62<178.254 322.884>
VStem: 60 71<105.996 411.054> 376 70<-156 69 116.255 403.166 446 519>
LayerCount: 2
Fore
SplineSet
376 69 m 1
 347 19 301 -6 236 -6 c 0
 185 -6 143 11 110 45 c 0
 77 79 60 133 60 207 c 2
 60 313 l 2
 60 386 78 440 111 474 c 0
 144 508 188 525 241 525 c 0
 271 525 298 518 321 505 c 0
 344 492 362 472 376 446 c 1
 376 519 l 1
 446 519 l 1
 446 -156 l 1
 376 -156 l 1
 376 69 l 1
343 99 m 0
 365 128 376 166 376 212 c 2
 376 303 l 2
 376 351 365 390 344 419 c 0
 323 448 292 463 250 463 c 0
 171 463 131 411 131 308 c 2
 131 211 l 2
 131 108 170 56 246 56 c 0
 289 56 321 70 343 99 c 0
EndSplineSet
Validated: 1
EndChar

StartChar: r
Encoding: 114 114 84
Width: 345
GlyphClass: 2
Flags: W
HStem: 0 21G<77 146> 462 64<196.538 318.343>
VStem: 77 69<0 408.998 450 519>
LayerCount: 2
Fore
SplineSet
77 519 m 1
 145 519 l 1
 145 450 l 1
 159 476 178 494 202 507 c 0
 226 520 253 526 282 526 c 0
 295 526 307 525 319 523 c 1
 319 454 l 1
 303 459 285 462 266 462 c 0
 231 462 202 450 180 425 c 0
 158 400 146 369 146 329 c 2
 146 0 l 1
 77 0 l 1
 77 519 l 1
EndSplineSet
Validated: 1
EndChar

StartChar: s
Encoding: 115 115 85
Width: 473
GlyphClass: 2
Flags: W
HStem: -6 59<152.868 327.413> 469 57<156.89 323.288>
VStem: 48 68<88.1055 150> 56 68<328.199 437.503> 364 67<87.8337 200.457 378 428.191>
LayerCount: 2
Fore
SplineSet
99 35 m 0xd8
 65 62 48 99 48 145 c 2
 48 150 l 1
 116 150 l 1
 116 146 l 2xe8
 116 117 127 95 149 78 c 0
 171 61 201 53 239 53 c 0
 278 53 308 61 330 77 c 0
 352 93 364 115 364 144 c 0
 364 170 355 190 340 202 c 0
 325 214 300 223 266 229 c 2
 202 241 l 2
 151 250 114 265 91 286 c 0
 68 307 56 338 56 378 c 0
 56 423 73 459 106 486 c 0
 139 513 184 526 237 526 c 0
 294 526 340 513 374 487 c 0
 408 461 425 426 425 384 c 2
 425 378 l 1
 357 378 l 1
 357 381 l 2
 357 408 347 429 326 445 c 0
 305 461 276 469 239 469 c 0
 203 469 174 461 154 445 c 0
 134 429 124 408 124 381 c 0
 124 358 131 341 145 328 c 0
 159 315 183 306 214 301 c 2
 282 289 l 2
 333 279 371 264 395 242 c 0
 419 220 431 189 431 148 c 0
 431 99 413 61 378 34 c 0
 343 7 295 -6 236 -6 c 0
 179 -6 133 8 99 35 c 0xd8
EndSplineSet
Validated: 1
EndChar

StartChar: t
Encoding: 116 116 86
Width: 348
GlyphClass: 2
Flags: W
HStem: 0 61<199.981 294> 464 55<35 116 186 303>
VStem: 116 70<75.125 464 519 638>
LayerCount: 2
Fore
SplineSet
186 464 m 1
 186 132 l 2
 186 85 209 61 253 61 c 2
 294 61 l 1
 294 0 l 1
 242 0 l 2
 202 0 171 11 149 34 c 0
 127 57 116 89 116 129 c 2
 116 464 l 1
 35 464 l 1
 35 519 l 1
 116 519 l 1
 116 638 l 1
 186 671 l 1
 186 519 l 1
 303 519 l 1
 303 464 l 1
 186 464 l 1
EndSplineSet
Validated: 1
EndChar

StartChar: u
Encoding: 117 117 87
Width: 534
GlyphClass: 2
Flags: W
HStem: -6 62<187.764 346.438> 499 20G<77 146 388 458>
VStem: 77 69<102.144 519> 388 70<99.9353 519>
LayerCount: 2
Fore
SplineSet
124 45 m 0
 92 79 77 127 77 190 c 2
 77 519 l 1
 146 519 l 1
 146 200 l 2
 146 152 156 116 174 92 c 0
 192 68 223 56 267 56 c 0
 311 56 342 68 360 91 c 0
 378 114 388 151 388 200 c 2
 388 519 l 1
 458 519 l 1
 458 190 l 2
 458 127 442 79 410 45 c 0
 378 11 330 -6 266 -6 c 0
 203 -6 156 11 124 45 c 0
EndSplineSet
Validated: 1
EndChar

StartChar: v
Encoding: 118 118 88
Width: 449
GlyphClass: 2
Flags: W
HStem: 0 21G<187.064 262.898> 499 20G<14 96.4748 353.525 435>
LayerCount: 2
Fore
SplineSet
14 519 m 1
 90 519 l 1
 225 102 l 1
 360 519 l 1
 435 519 l 1
 256 0 l 1
 194 0 l 1
 14 519 l 1
EndSplineSet
Validated: 1
EndChar

StartChar: w
Encoding: 119 119 89
Width: 731
GlyphClass: 2
Flags: W
HStem: 0 21G<165.911 240.253 489.747 565.089> 499 20G<14 95.625 329.798 400.202 635.327 717>
LayerCount: 2
Fore
SplineSet
14 519 m 1
 90 519 l 1
 207 103 l 1
 336 519 l 1
 394 519 l 1
 523 103 l 1
 641 519 l 1
 717 519 l 1
 559 0 l 1
 496 0 l 1
 365 419 l 1
 234 0 l 1
 172 0 l 1
 14 519 l 1
EndSplineSet
Validated: 1
EndChar

StartChar: x
Encoding: 120 120 90
Width: 431
GlyphClass: 2
Flags: W
HStem: 0 21G<14 101.115 329.788 417> 499 20G<25 111.292 320.021 407>
LayerCount: 2
Fore
SplineSet
342 0 m 1
 215 208 l 1
 89 0 l 1
 14 0 l 1
 178 267 l 1
 25 519 l 1
 99 519 l 1
 217 327 l 1
 332 519 l 1
 407 519 l 1
 251 271 l 1
 417 0 l 1
 342 0 l 1
EndSplineSet
Validated: 1
EndChar

StartChar: y
Encoding: 121 121 91
Width: 449
GlyphClass: 2
Flags: W
HStem: -156 64<69 150.386> 499 20G<14 96.586 355.414 435>
LayerCount: 2
Fore
SplineSet
435 519 m 1
 236 -56 l 2
 224 -91 207 -116 185 -132 c 0
 163 -148 134 -156 99 -156 c 2
 69 -156 l 1
 69 -92 l 1
 94 -92 l 2
 119 -92 138 -87 151 -77 c 0
 164 -67 174 -50 182 -27 c 2
 193 5 l 1
 14 519 l 1
 90 519 l 1
 226 106 l 1
 362 519 l 1
 435 519 l 1
EndSplineSet
Validated: 1
EndChar

StartChar: z
Encoding: 122 122 92
Width: 466
GlyphClass: 2
Flags: W
HStem: 0 65<138 407> 455 64<60 327>
LayerCount: 2
Fore
SplineSet
407 455 m 1
 138 65 l 1
 407 65 l 1
 407 0 l 1
 60 0 l 1
 60 65 l 1
 327 455 l 1
 60 455 l 1
 60 519 l 1
 407 519 l 1
 407 455 l 1
EndSplineSet
Validated: 1
EndChar

StartChar: braceleft
Encoding: 123 123 93
Width: 348
GlyphClass: 2
Flags: W
HStem: -86 62<216.378 288> 305 67<60 115.479> 695 63<216.378 288>
VStem: 132 73<-10.6206 284.385 392.615 682.621>
LayerCount: 2
Fore
SplineSet
158 -58 m 0
 141 -40 132 -11 132 27 c 2
 132 222 l 2
 132 251 127 272 116 285 c 0
 105 298 86 304 60 305 c 1
 60 372 l 1
 86 373 105 379 116 392 c 0
 127 405 132 426 132 455 c 2
 132 645 l 2
 132 683 141 712 158 730 c 0
 175 748 202 758 237 758 c 2
 288 758 l 1
 288 695 l 1
 252 695 l 2
 236 695 224 691 216 683 c 0
 208 675 205 661 205 643 c 2
 205 460 l 2
 205 422 200 393 191 376 c 0
 182 359 166 346 143 338 c 1
 166 330 182 317 191 300 c 0
 200 283 205 255 205 217 c 2
 205 29 l 2
 205 11 208 -3 216 -11 c 0
 224 -19 236 -24 252 -24 c 2
 288 -24 l 1
 288 -86 l 1
 237 -86 l 2
 202 -86 175 -76 158 -58 c 0
EndSplineSet
Validated: 1
Substitution2: "'rtla' Right to Left Alternates lookup 0 subtable" braceright
EndChar

StartChar: bar
Encoding: 124 124 94
Width: 310
GlyphClass: 2
Flags: W
VStem: 121 68<-85 758>
LayerCount: 2
Fore
SplineSet
121 758 m 1
 189 758 l 1
 189 -85 l 1
 121 -85 l 1
 121 758 l 1
EndSplineSet
Validated: 1
EndChar

StartChar: braceright
Encoding: 125 125 95
Width: 348
GlyphClass: 2
Flags: W
HStem: -86 62<60 131.622> 305 67<232.521 288> 695 63<60 131.622>
VStem: 143 73<-10.6206 284.385 392.615 682.621>
LayerCount: 2
Fore
SplineSet
60 -24 m 1
 96 -24 l 2
 112 -24 124 -19 132 -11 c 0
 140 -3 143 11 143 29 c 2
 143 217 l 2
 143 255 148 283 157 300 c 0
 166 317 182 330 205 338 c 1
 182 346 166 359 157 376 c 0
 148 393 143 422 143 460 c 2
 143 643 l 2
 143 661 140 675 132 683 c 0
 124 691 112 695 96 695 c 2
 60 695 l 1
 60 758 l 1
 112 758 l 2
 147 758 173 748 190 730 c 0
 207 712 216 683 216 645 c 2
 216 455 l 2
 216 426 221 405 232 392 c 0
 243 379 262 373 288 372 c 1
 288 305 l 1
 262 304 243 298 232 285 c 0
 221 272 216 251 216 222 c 2
 216 27 l 2
 216 -11 207 -40 190 -58 c 0
 173 -76 147 -86 112 -86 c 2
 60 -86 l 1
 60 -24 l 1
EndSplineSet
Validated: 1
Substitution2: "'rtla' Right to Left Alternates lookup 0 subtable" braceleft
EndChar

StartChar: asciitilde
Encoding: 126 126 96
Width: 524
GlyphClass: 2
Flags: W
HStem: 217 66<282.529 398.067> 283 64<127.409 236.261>
LayerCount: 2
Fore
SplineSet
297 226 m 0x80
 283 232 267 241 249 253 c 0
 233 263 220 270 210 275 c 0
 200 280 189 283 177 283 c 0
 161 283 147 278 136 269 c 0
 125 260 112 244 98 221 c 1
 48 252 l 1
 62 283 80 307 103 323 c 0
 126 339 151 347 178 347 c 0x40
 195 347 210 344 224 338 c 0
 238 332 254 323 273 311 c 0
 289 301 303 295 313 290 c 0
 323 285 333 283 345 283 c 0
 361 283 376 287 388 296 c 0
 400 305 412 321 425 344 c 1
 475 312 l 1
 460 281 442 258 419 242 c 0
 396 226 371 217 344 217 c 0
 327 217 311 220 297 226 c 0x80
EndSplineSet
Validated: 1
EndChar

StartChar: exclamdown
Encoding: 161 161 98
Width: 244
GlyphClass: 2
Flags: W
HStem: -156 21G<80 166> 423 96<77 169>
VStem: 77 92<-156 43.8607 423 519> 94 58<75.312 318>
LayerCount: 2
Fore
SplineSet
77 519 m 1xe0
 169 519 l 1
 169 423 l 1
 77 423 l 1
 77 519 l 1xe0
94 318 m 1xd0
 152 318 l 1
 166 -156 l 1
 80 -156 l 1
 94 318 l 1xd0
EndSplineSet
Validated: 1
EndChar

StartChar: cent
Encoding: 162 162 99
Width: 515
GlyphClass: 2
Flags: W
HStem: -5 62<282 345.246> 462 63<282 347.271>
VStem: 60 70<109.19 411.426> 222 60<-102 -3 60 459 522.958 622> 387 68<97.4952 171 348 423.028>
LayerCount: 2
Fore
SplineSet
387 348 m 1
 387 353 l 2
 387 385 377 411 359 430 c 0
 341 449 315 459 282 462 c 1
 282 57 l 1
 315 60 340 71 359 90 c 0
 378 109 387 134 387 166 c 2
 387 171 l 1
 455 171 l 1
 455 167 l 2
 455 117 439 77 408 46 c 0
 377 15 335 -2 282 -5 c 1
 282 -102 l 1
 222 -102 l 1
 222 -3 l 1
 172 4 133 24 104 58 c 0
 75 92 60 141 60 207 c 2
 60 313 l 2
 60 379 74 429 103 463 c 0
 132 497 171 517 222 524 c 1
 222 622 l 1
 282 622 l 1
 282 525 l 1
 335 522 377 506 408 475 c 0
 439 444 455 403 455 353 c 2
 455 348 l 1
 387 348 l 1
154 105 m 0
 170 81 193 66 222 60 c 1
 222 459 l 1
 193 452 170 437 154 414 c 0
 138 391 130 355 130 309 c 2
 130 211 l 2
 130 164 138 129 154 105 c 0
EndSplineSet
Validated: 1
EndChar

StartChar: sterling
Encoding: 163 163 100
Width: 446
GlyphClass: 2
Flags: W
HStem: 0 70<143 413> 297 68<34 101 177 319> 647 70<199.535 312.57>
VStem: 101 76<84.7905 297 365 622.244> 335 74<561 623.292>
LayerCount: 2
Fore
SplineSet
413 70 m 1
 413 0 l 1
 55 0 l 1
 55 63 l 1
 71 73 84 87 91 103 c 0
 98 119 101 142 101 169 c 2
 101 297 l 1
 34 297 l 1
 34 365 l 1
 101 365 l 1
 101 541 l 2
 101 596 115 639 143 670 c 0
 171 701 209 717 257 717 c 0
 303 717 339 703 367 675 c 0
 395 647 409 609 409 561 c 1
 335 561 l 1
 335 588 328 609 314 624 c 0
 300 639 281 647 256 647 c 0
 231 647 212 639 198 623 c 0
 184 607 177 583 177 552 c 2
 177 365 l 1
 319 365 l 1
 319 297 l 1
 177 297 l 1
 177 178 l 2
 177 153 174 132 169 115 c 0
 164 98 155 83 143 70 c 1
 413 70 l 1
EndSplineSet
Validated: 1
EndChar

StartChar: currency
Encoding: 164 164 101
Width: 627
GlyphClass: 2
Flags: W
HStem: 133 63<237.387 389.922> 474 63<236.622 389.8>
VStem: 112 65<257.259 412.423> 450 65<256.914 413.093>
LayerCount: 2
Fore
SplineSet
430 170 m 1
 396 145 357 133 313 133 c 0
 269 133 230 145 196 170 c 1
 124 98 l 1
 77 147 l 1
 147 218 l 1
 123 253 112 292 112 335 c 0
 112 379 123 419 148 452 c 1
 77 524 l 1
 124 572 l 1
 197 501 l 1
 230 525 269 537 313 537 c 0
 357 537 396 525 429 501 c 1
 502 572 l 1
 550 524 l 1
 478 453 l 1
 503 418 515 378 515 335 c 0
 515 291 503 252 478 218 c 1
 551 146 l 1
 503 97 l 1
 430 170 l 1
411 236 m 0
 437 263 450 295 450 335 c 0
 450 375 437 407 411 434 c 0
 385 461 352 474 313 474 c 0
 274 474 242 461 216 434 c 0
 190 407 177 375 177 335 c 0
 177 295 190 263 216 236 c 0
 242 209 274 196 313 196 c 0
 352 196 385 209 411 236 c 0
EndSplineSet
Validated: 1
EndChar

StartChar: yen
Encoding: 165 165 102
Width: 464
GlyphClass: 2
Flags: W
HStem: 0 21G<196 270> 159 57<50 196 270 415> 285 58<50 176 290 415> 687 20G<10 102.348 363.652 455>
VStem: 196 74<0 159 216 285>
LayerCount: 2
Fore
SplineSet
196 159 m 1
 50 159 l 1
 50 216 l 1
 196 216 l 1
 196 285 l 1
 50 285 l 1
 50 343 l 1
 176 343 l 1
 10 707 l 1
 94 707 l 1
 233 374 l 1
 372 707 l 1
 455 707 l 1
 290 343 l 1
 415 343 l 1
 415 285 l 1
 270 285 l 1
 270 216 l 1
 415 216 l 1
 415 159 l 1
 270 159 l 1
 270 0 l 1
 196 0 l 1
 196 159 l 1
EndSplineSet
Validated: 1
EndChar

StartChar: brokenbar
Encoding: 166 166 103
Width: 310
GlyphClass: 2
Flags: W
VStem: 121 68<-85 278 397 758>
LayerCount: 2
Fore
SplineSet
121 758 m 1
 189 758 l 1
 189 397 l 1
 121 397 l 1
 121 758 l 1
121 278 m 1
 189 278 l 1
 189 -85 l 1
 121 -85 l 1
 121 278 l 1
EndSplineSet
Validated: 1
EndChar

StartChar: section
Encoding: 167 167 104
Width: 523
GlyphClass: 2
Flags: W
HStem: -172 66<190.601 325.5> -24 20G<95 166> 666 65<202.122 327.696>
VStem: 82 74<201.343 362.559> 95 71<-81.0463 -4> 104 74<513.304 642.249> 351 74<-81.1162 50.3501 570 642.325> 368 73<202.797 362.796>
LayerCount: 2
Fore
SplineSet
137 -130 m 0xe2
 109 -102 95 -59 95 -4 c 1
 166 -4 l 1xea
 166 -39 173 -66 189 -82 c 0
 205 -98 228 -106 259 -106 c 0
 288 -106 311 -99 327 -83 c 0
 343 -67 351 -45 351 -16 c 0
 351 15 342 39 323 56 c 0
 304 73 270 87 223 98 c 0
 175 109 139 130 116 161 c 0
 93 192 82 232 82 282 c 0xf2
 82 322 91 356 108 385 c 0
 125 414 151 433 184 445 c 1
 155 459 135 478 123 499 c 0
 111 520 104 547 104 580 c 0
 104 624 119 661 148 689 c 0
 177 717 216 731 264 731 c 0
 317 731 357 717 383 688 c 0
 409 659 423 620 423 570 c 1
 352 570 l 1
 352 633 323 666 265 666 c 0
 238 666 216 658 201 643 c 0
 186 628 178 607 178 580 c 0
 178 549 187 525 205 508 c 0
 223 491 255 477 301 466 c 0
 349 455 385 434 408 403 c 0
 431 372 441 333 441 282 c 0xe5
 441 243 432 208 415 179 c 0
 398 150 373 130 342 120 c 1
 371 107 392 89 405 67 c 0
 418 45 425 17 425 -18 c 0
 425 -64 409 -102 379 -130 c 0
 349 -158 309 -172 260 -172 c 0
 206 -172 165 -158 137 -130 c 0xe2
339 194 m 0
 358 215 368 244 368 282 c 0
 368 320 358 349 340 370 c 0
 322 391 295 401 262 401 c 0
 229 401 203 391 184 370 c 0
 165 349 156 320 156 282 c 0xf1
 156 244 165 215 184 194 c 0
 203 173 229 163 262 163 c 0
 295 163 320 173 339 194 c 0
243 724 m 1024
EndSplineSet
Validated: 1
EndChar

StartChar: dieresis
Encoding: 168 168 105
Width: 512
GlyphClass: 2
Flags: W
HStem: 592 88<129 207 304 382>
VStem: 129 78<592 680> 304 78<592 680>
LayerCount: 2
Fore
SplineSet
129 680 m 1
 207 680 l 1
 207 592 l 1
 129 592 l 1
 129 680 l 1
304 680 m 1
 382 680 l 1
 382 592 l 1
 304 592 l 1
 304 680 l 1
EndSplineSet
Validated: 1
EndChar

StartChar: copyright
Encoding: 169 169 106
Width: 840
GlyphClass: 2
Flags: W
HStem: -10 54<297.242 541.294> 152 49<356.24 489.959> 500 50<356.24 490.267> 652 55<297.242 541.294>
VStem: 68 58<219.863 476.137> 272 56<229.328 471.672> 514 53<224.173 286 416 477.28> 715 58<221.239 474.983>
LayerCount: 2
Fore
SplineSet
237 35 m 0
 184 65 142 108 112 162 c 0
 82 216 68 278 68 348 c 0
 68 418 82 480 112 534 c 0
 142 588 184 631 237 661 c 0
 290 691 351 707 420 707 c 0
 489 707 550 691 604 661 c 0
 658 631 699 588 729 534 c 0
 759 480 773 418 773 348 c 0
 773 278 759 217 729 162 c 0
 699 107 658 65 604 35 c 0
 550 5 489 -10 420 -10 c 0
 351 -10 290 5 237 35 c 0
575 82 m 0
 620 107 654 142 678 188 c 0
 702 234 715 287 715 348 c 0
 715 409 702 462 678 508 c 0
 654 554 620 589 575 614 c 0
 530 639 479 652 420 652 c 0
 361 652 309 639 265 614 c 0
 221 589 186 554 162 508 c 0
 138 462 126 409 126 348 c 0
 126 287 138 234 162 188 c 0
 186 142 221 107 265 82 c 0
 309 57 361 44 420 44 c 0
 479 44 530 57 575 82 c 0
313 189 m 0
 286 214 272 255 272 311 c 2
 272 390 l 2
 272 446 286 487 313 512 c 0
 340 537 378 550 424 550 c 0
 468 550 503 538 529 515 c 0
 555 492 567 461 567 421 c 2
 567 416 l 1
 514 416 l 1
 514 419 l 2
 514 445 506 465 490 479 c 0
 474 493 453 500 426 500 c 0
 395 500 370 492 353 475 c 0
 336 458 328 429 328 387 c 2
 328 314 l 2
 328 272 336 243 353 226 c 0
 370 209 395 201 426 201 c 0
 453 201 474 208 490 222 c 0
 506 236 514 257 514 282 c 2
 514 286 l 1
 567 286 l 1
 567 281 l 2
 567 241 554 209 528 186 c 0
 502 163 468 152 424 152 c 0
 378 152 340 164 313 189 c 0
EndSplineSet
Validated: 1
EndChar

StartChar: ordfeminine
Encoding: 170 170 107
Width: 337
GlyphClass: 2
Flags: W
HStem: 436 54<104.549 204.823> 582 46<104.3 218> 716 50<116.423 205.185>
VStem: 36 63<497.004 575.543> 44 61<668 702.623> 218 66<440 472 506.473 582 628 700.528>
LayerCount: 2
Fore
SplineSet
252 738 m 0xec
 273 720 284 692 284 656 c 2
 284 440 l 1
 220 440 l 1
 220 472 l 1
 210 460 200 451 187 445 c 0
 174 439 158 436 140 436 c 0
 107 436 81 445 63 462 c 0
 45 479 36 505 36 536 c 0xf4
 36 565 46 587 65 603 c 0
 84 619 111 628 144 628 c 2
 218 628 l 1
 218 659 l 2
 218 677 213 691 203 701 c 0
 193 711 179 716 161 716 c 0
 143 716 130 711 120 703 c 0
 110 695 105 684 105 670 c 2
 105 668 l 1
 44 668 l 1
 44 670 l 2
 44 699 54 723 75 740 c 0
 96 757 125 766 161 766 c 0
 201 766 231 756 252 738 c 0xec
203 506 m 0
 213 516 218 532 218 553 c 2
 218 582 l 1
 155 582 l 2
 118 582 99 567 99 537 c 0
 99 506 118 490 154 490 c 0
 177 490 193 496 203 506 c 0
169 867 m 1024
EndSplineSet
Validated: 1
EndChar

StartChar: guillemotleft
Encoding: 171 171 108
Width: 489
GlyphClass: 2
Flags: W
LayerCount: 2
Fore
SplineSet
26 270 m 1
 225 473 l 1
 225 388 l 1
 110 270 l 1
 225 153 l 1
 225 68 l 1
 26 270 l 1
213 270 m 1
 413 473 l 1
 413 388 l 1
 297 270 l 1
 413 153 l 1
 413 68 l 1
 213 270 l 1
EndSplineSet
Validated: 1
EndChar

StartChar: logicalnot
Encoding: 172 172 109
Width: 524
GlyphClass: 2
Flags: W
HStem: 270 64<57 396>
VStem: 396 71<133 270>
LayerCount: 2
Fore
SplineSet
396 270 m 1
 57 270 l 1
 57 334 l 1
 467 334 l 1
 467 133 l 1
 396 133 l 1
 396 270 l 1
EndSplineSet
Validated: 1
EndChar

StartChar: uni00AD
Encoding: 173 173 110
Width: 402
GlyphClass: 2
Flags: W
HStem: 322 67<60 342>
VStem: 60 282<322 389>
LayerCount: 2
Fore
SplineSet
60 389 m 1
 342 389 l 1
 342 322 l 1
 60 322 l 1
 60 389 l 1
EndSplineSet
Validated: 1
EndChar

StartChar: registered
Encoding: 174 174 111
Width: 549
GlyphClass: 2
Flags: W
HStem: 313 32<202.126 345.892> 492 32<240 281> 588 33<240 319.801> 674 32<202.126 345.37>
VStem: 82 35<429.14 589.784> 203 37<401 492 524 588> 323 35<527.433 584.471> 434 34<432.072 587.504>
LayerCount: 2
Fore
SplineSet
176 339 m 0
 147 356 124 380 107 410 c 0
 90 440 82 473 82 510 c 0
 82 547 90 580 107 610 c 0
 124 640 147 663 176 680 c 0
 205 697 238 706 274 706 c 0
 311 706 345 697 374 680 c 0
 403 663 426 640 443 610 c 0
 460 580 468 547 468 510 c 0
 468 472 460 439 443 409 c 0
 426 379 403 356 374 339 c 0
 345 322 311 313 274 313 c 0
 238 313 205 322 176 339 c 0
389 392 m 0
 419 423 434 462 434 510 c 0
 434 541 428 569 414 594 c 0
 400 619 381 639 356 653 c 0
 331 667 304 674 274 674 c 0
 228 674 191 659 161 628 c 0
 131 597 117 558 117 510 c 0
 117 462 131 422 161 391 c 0
 191 360 228 345 274 345 c 0
 320 345 359 361 389 392 c 0
203 621 m 1
 287 621 l 2
 310 621 326 615 339 604 c 0
 352 593 358 576 358 556 c 0
 358 541 355 528 348 518 c 0
 341 508 331 501 318 496 c 1
 364 401 l 1
 324 401 l 1
 281 492 l 1
 240 492 l 1
 240 401 l 1
 203 401 l 1
 203 621 l 1
286 524 m 2
 311 524 323 535 323 556 c 0
 323 577 311 588 286 588 c 2
 240 588 l 1
 240 524 l 1
 286 524 l 2
EndSplineSet
Validated: 1
EndChar

StartChar: macron
Encoding: 175 175 112
Width: 512
GlyphClass: 2
Flags: W
HStem: 604 64<123 389>
VStem: 123 266<604 668>
LayerCount: 2
Fore
SplineSet
123 668 m 1
 389 668 l 1
 389 604 l 1
 123 604 l 1
 123 668 l 1
EndSplineSet
Validated: 1
EndChar

StartChar: degree
Encoding: 176 176 113
Width: 420
GlyphClass: 2
Flags: W
HStem: 430 50<150.3 269.816> 668 49<150.3 269.816>
VStem: 68 52<510.434 637.637> 301 52<511.645 636.413>
LayerCount: 2
Fore
SplineSet
108 471 m 0
 81 498 68 532 68 573 c 0
 68 614 81 649 108 676 c 0
 135 703 169 717 211 717 c 0
 251 717 285 703 312 676 c 0
 339 649 353 614 353 573 c 0
 353 532 339 498 312 471 c 0
 285 444 251 430 211 430 c 0
 169 430 135 444 108 471 c 0
275 507 m 0
 292 525 301 546 301 573 c 0
 301 600 292 623 275 641 c 0
 258 659 237 668 211 668 c 0
 184 668 162 659 145 641 c 0
 128 623 120 600 120 573 c 0
 120 546 128 525 145 507 c 0
 162 489 184 480 211 480 c 0
 237 480 258 489 275 507 c 0
EndSplineSet
Validated: 1
EndChar

StartChar: plusminus
Encoding: 177 177 114
Width: 524
GlyphClass: 2
Flags: W
HStem: -4 67<58 466> 286 67<58 228 296 466> 503 20G<228 296>
VStem: 228 68<116 286 353 523>
LayerCount: 2
Fore
SplineSet
228 286 m 1
 58 286 l 1
 58 353 l 1
 228 353 l 1
 228 523 l 1
 296 523 l 1
 296 353 l 1
 466 353 l 1
 466 286 l 1
 296 286 l 1
 296 116 l 1
 228 116 l 1
 228 286 l 1
58 63 m 1
 466 63 l 1
 466 -4 l 1
 58 -4 l 1
 58 63 l 1
EndSplineSet
Validated: 1
EndChar

StartChar: uni00B2
Encoding: 178 178 115
Width: 328
GlyphClass: 2
Flags: W
HStem: 440 61<135 286> 817 57<121.767 202.493>
VStem: 43 68<744 801.527> 214 71<691.233 801.529>
LayerCount: 2
Fore
SplineSet
46 494 m 1
 188 686 l 2
 197 698 204 710 208 720 c 0
 212 730 214 741 214 753 c 2
 214 761 l 2
 214 779 209 792 200 802 c 0
 191 812 179 817 163 817 c 0
 147 817 133 812 124 802 c 0
 115 792 111 776 111 756 c 2
 111 744 l 1
 43 744 l 1
 43 760 l 2
 43 795 54 822 76 843 c 0
 98 864 128 874 165 874 c 0
 201 874 230 864 252 844 c 0
 274 824 285 797 285 764 c 2
 285 753 l 2
 285 735 281 717 275 701 c 0
 269 685 259 669 245 651 c 2
 135 501 l 1
 286 501 l 1
 286 440 l 1
 46 440 l 1
 46 494 l 1
EndSplineSet
Validated: 1
EndChar

StartChar: uni00B3
Encoding: 179 179 116
Width: 326
GlyphClass: 2
Flags: W
HStem: 434 56<114.237 203.541> 633 57<133 194.529> 817 57<115.577 197.959>
VStem: 40 61<505.472 555 754 802.529> 217 67<507.519 614.435 706.518 801.528>
LayerCount: 2
Fore
SplineSet
72 463 m 0
 51 482 40 510 40 544 c 2
 40 555 l 1
 101 555 l 1
 101 545 l 2
 101 529 107 515 117 505 c 0
 127 495 141 490 159 490 c 0
 177 490 192 496 202 507 c 0
 212 518 217 534 217 554 c 2
 217 567 l 2
 217 587 211 603 200 615 c 0
 189 627 174 633 155 633 c 2
 133 633 l 1
 133 690 l 1
 155 690 l 2
 172 690 185 695 195 706 c 0
 205 717 210 731 210 749 c 2
 210 759 l 2
 210 777 205 792 196 802 c 0
 187 812 174 817 158 817 c 0
 141 817 127 813 118 803 c 0
 109 793 104 780 104 764 c 2
 104 754 l 1
 42 754 l 1
 42 765 l 2
 42 798 53 825 74 845 c 0
 95 865 124 874 160 874 c 0
 196 874 225 864 246 844 c 0
 267 824 278 798 278 765 c 2
 278 755 l 2
 278 735 273 716 263 701 c 0
 253 686 241 675 225 667 c 1
 243 659 258 647 268 629 c 0
 278 611 284 590 284 566 c 2
 284 554 l 2
 284 519 272 489 249 467 c 0
 226 445 197 434 160 434 c 0
 122 434 93 444 72 463 c 0
EndSplineSet
Validated: 1
EndChar

StartChar: acute
Encoding: 180 180 117
Width: 512
GlyphClass: 2
Flags: W
HStem: 586 128
VStem: 173 187
LayerCount: 2
Fore
SplineSet
274 714 m 1
 360 714 l 1
 238 586 l 1
 173 586 l 1
 274 714 l 1
EndSplineSet
Validated: 1
EndChar

StartChar: uni00B5
Encoding: 181 181 118
Width: 527
GlyphClass: 2
Flags: W
HStem: -156 21G<77 146> -8 63<188.978 331.328> 0 21G<381 451> 499 20G<77 146 380 451>
VStem: 77 69<-156 32 98.9137 519> 380 71<0 61 102.324 519>
LayerCount: 2
Fore
SplineSet
77 519 m 1xdc
 146 519 l 1
 146 182 l 2
 146 140 157 110 177 88 c 0
 197 66 226 55 261 55 c 0xdc
 295 55 323 67 346 89 c 0
 369 111 380 142 380 182 c 2
 380 519 l 1
 451 519 l 1
 451 0 l 1
 381 0 l 1xbc
 381 61 l 1
 367 38 349 21 326 9 c 0
 303 -3 278 -8 249 -8 c 0
 205 -8 171 5 146 32 c 1
 146 -156 l 1
 77 -156 l 1
 77 519 l 1xdc
EndSplineSet
Validated: 1
EndChar

StartChar: paragraph
Encoding: 182 182 119
Width: 627
GlyphClass: 2
Flags: W
HStem: -156 21G<274 343 436 505> 640 67<343 436>
VStem: 82 261<390.953 594.409> 274 69<-156 281.301> 436 69<-156 640>
LayerCount: 2
Fore
SplineSet
274 279 m 1xd8
 216 283 170 304 135 344 c 0
 100 384 82 434 82 493 c 0xe8
 82 533 91 570 108 602 c 0
 125 634 151 659 184 678 c 0
 217 697 258 707 304 707 c 2
 505 707 l 1
 505 -156 l 1
 436 -156 l 1
 436 640 l 1
 343 640 l 1
 343 -156 l 1
 274 -156 l 1
 274 279 l 1xd8
EndSplineSet
Validated: 1
EndChar

StartChar: periodcentered
Encoding: 183 183 120
Width: 198
GlyphClass: 2
Flags: W
HStem: 228 95<54 144>
VStem: 54 90<228 323>
LayerCount: 2
Fore
SplineSet
54 323 m 1
 144 323 l 1
 144 228 l 1
 54 228 l 1
 54 323 l 1
EndSplineSet
Validated: 1
EndChar

StartChar: cedilla
Encoding: 184 184 121
Width: 512
GlyphClass: 2
Flags: W
HStem: -154 166<257 265>
VStem: 193 126
LayerCount: 2
Fore
SplineSet
257 12 m 1
 319 12 l 1
 265 -154 l 1
 193 -154 l 1
 257 12 l 1
EndSplineSet
Validated: 1
EndChar

StartChar: uni00B9
Encoding: 185 185 122
Width: 227
GlyphClass: 2
Flags: W
VStem: 101 71<440 793>
LayerCount: 2
Fore
SplineSet
101 793 m 1
 27 736 l 1
 27 812 l 1
 101 867 l 1
 172 867 l 1
 172 440 l 1
 101 440 l 1
 101 793 l 1
EndSplineSet
Validated: 1
EndChar

StartChar: ordmasculine
Encoding: 186 186 123
Width: 337
GlyphClass: 2
Flags: W
HStem: 436 60<120.459 217.541> 707 59<120.459 217.541>
VStem: 42 66<507.394 694.606> 230 66<507.394 694.606>
LayerCount: 2
Fore
SplineSet
76 469 m 0
 53 491 42 524 42 570 c 2
 42 632 l 2
 42 678 53 711 76 733 c 0
 99 755 129 766 169 766 c 0
 209 766 239 755 262 733 c 0
 285 711 296 678 296 632 c 2
 296 570 l 2
 296 524 285 491 262 469 c 0
 239 447 209 436 169 436 c 0
 129 436 99 447 76 469 c 0
230 570 m 2
 230 632 l 2
 230 682 210 707 169 707 c 0
 128 707 108 682 108 632 c 2
 108 570 l 2
 108 520 128 496 169 496 c 0
 210 496 230 520 230 570 c 2
169 867 m 1024
EndSplineSet
Validated: 1
EndChar

StartChar: guillemotright
Encoding: 187 187 124
Width: 489
GlyphClass: 2
Flags: W
LayerCount: 2
Fore
SplineSet
77 153 m 1
 193 270 l 1
 77 388 l 1
 77 473 l 1
 276 270 l 1
 77 68 l 1
 77 153 l 1
263 153 m 1
 380 270 l 1
 263 388 l 1
 263 473 l 1
 464 270 l 1
 263 68 l 1
 263 153 l 1
EndSplineSet
Validated: 1
EndChar

StartChar: onequarter
Encoding: 188 188 125
Width: 747
GlyphClass: 3
Flags: W
HStem: 0 21G<94 169.806 605 676> 77 60<515 605 676 716> 687 20G<74.5714 172 465.194 541>
VStem: 101 71<280 632> 605 71<0 77 137 238>
LayerCount: 2
Fore
SplineSet
101 632 m 1
 27 575 l 1
 27 651 l 1
 101 707 l 1
 172 707 l 1
 172 280 l 1
 101 280 l 1
 101 632 l 1
716 77 m 1
 676 77 l 1
 676 0 l 1
 605 0 l 1
 605 77 l 1
 444 77 l 1
 444 137 l 1
 564 427 l 1
 634 427 l 1
 515 137 l 1
 605 137 l 1
 605 238 l 1
 676 238 l 1
 676 137 l 1
 716 137 l 1
 716 77 l 1
476 707 m 1
 541 707 l 1
 159 0 l 1
 94 0 l 1
 476 707 l 1
EndSplineSet
Validated: 1
Ligature2: "'frac' Diagonal Fractions lookup 2 subtable" one slash four
EndChar

StartChar: onehalf
Encoding: 189 189 126
Width: 736
GlyphClass: 3
Flags: W
HStem: 0 60<543 693> 377 57<530.186 609.992> 687 20G<74.5714 172 465.194 541>
VStem: 101 71<280 632> 451 67<304 360.527> 622 70<251.233 361.529>
LayerCount: 2
Fore
SplineSet
101 632 m 1
 27 575 l 1
 27 651 l 1
 101 707 l 1
 172 707 l 1
 172 280 l 1
 101 280 l 1
 101 632 l 1
454 53 m 1
 596 246 l 2
 605 258 611 270 615 280 c 0
 619 290 622 300 622 312 c 2
 622 321 l 2
 622 339 617 352 608 362 c 0
 599 372 586 377 570 377 c 0
 554 377 541 371 532 361 c 0
 523 351 518 335 518 315 c 2
 518 304 l 1
 451 304 l 1
 451 319 l 2
 451 354 462 382 484 403 c 0
 506 424 535 434 572 434 c 0
 608 434 637 423 659 403 c 0
 681 383 692 357 692 324 c 2
 692 312 l 2
 692 294 688 277 682 261 c 0
 676 245 666 229 652 211 c 2
 543 60 l 1
 693 60 l 1
 693 0 l 1
 454 0 l 1
 454 53 l 1
476 707 m 1
 541 707 l 1
 159 0 l 1
 94 0 l 1
 476 707 l 1
EndSplineSet
Validated: 1
Ligature2: "'frac' Diagonal Fractions lookup 2 subtable" one slash two
EndChar

StartChar: threequarters
Encoding: 190 190 127
Width: 846
GlyphClass: 3
Flags: W
HStem: -0 21G<194 268.806 705 775> 77 60<614 705 775 815> 273 57<114.237 203.541> 472 57<133 194.529> 656 58<115.577 197.959>
VStem: 40 61<345.471 394 593 641.529> 217 67<347.519 453.435 545.518 640.528> 705 70<0 77 137 238>
LayerCount: 2
Fore
SplineSet
72 303 m 0
 51 322 40 349 40 383 c 2
 40 394 l 1
 101 394 l 1
 101 384 l 2
 101 368 107 355 117 345 c 0
 127 335 141 330 159 330 c 0
 177 330 192 336 202 347 c 0
 212 358 217 373 217 393 c 2
 217 407 l 2
 217 427 211 442 200 454 c 0
 189 466 174 472 155 472 c 2
 133 472 l 1
 133 529 l 1
 155 529 l 2
 172 529 185 534 195 545 c 0
 205 556 210 570 210 588 c 2
 210 598 l 2
 210 616 205 631 196 641 c 0
 187 651 174 656 158 656 c 0
 141 656 127 652 118 642 c 0
 109 632 104 619 104 603 c 2
 104 593 l 1
 42 593 l 1
 42 604 l 2
 42 637 53 664 74 684 c 0
 95 704 124 714 160 714 c 0
 196 714 225 704 246 684 c 0
 267 664 278 637 278 604 c 2
 278 594 l 2
 278 574 273 556 263 541 c 0
 253 526 241 514 225 506 c 1
 243 498 258 486 268 468 c 0
 278 450 284 430 284 406 c 2
 284 393 l 2
 284 358 272 329 249 307 c 0
 226 285 197 273 160 273 c 0
 122 273 93 284 72 303 c 0
815 77 m 1
 775 77 l 1
 775 -0 l 1
 705 -0 l 1
 705 77 l 1
 544 77 l 1
 544 137 l 1
 664 427 l 1
 733 427 l 1
 614 137 l 1
 705 137 l 1
 705 238 l 1
 775 238 l 1
 775 137 l 1
 815 137 l 1
 815 77 l 1
575 707 m 1
 640 707 l 1
 258 -0 l 1
 194 -0 l 1
 575 707 l 1
EndSplineSet
Validated: 1
Ligature2: "'frac' Diagonal Fractions lookup 2 subtable" three slash four
EndChar

StartChar: questiondown
Encoding: 191 191 128
Width: 439
GlyphClass: 2
Flags: W
HStem: -166 68<155.507 294.598> 424 95<181 272>
VStem: 48 75<-65.1141 84.0941> 181 91<424 519> 188 75<223.818 340> 327 74<-64.803 13>
LayerCount: 2
Fore
SplineSet
181 519 m 1xf4
 272 519 l 1
 272 424 l 1
 181 424 l 1
 181 519 l 1xf4
96 -119 m 0
 64 -88 48 -46 48 5 c 0
 48 30 52 53 61 74 c 0
 70 95 84 119 106 147 c 2
 155 209 l 2
 169 227 178 242 182 254 c 0
 186 266 188 283 188 304 c 2
 188 340 l 1
 263 340 l 1
 263 303 l 2xec
 263 276 260 255 254 238 c 0
 248 221 236 201 218 178 c 2
 170 119 l 2
 152 96 139 76 133 60 c 0
 127 44 123 25 123 5 c 0
 123 -27 132 -53 150 -71 c 0
 168 -89 193 -98 226 -98 c 0
 292 -98 326 -61 327 13 c 1
 401 13 l 1
 400 -45 384 -89 354 -120 c 0
 324 -151 281 -166 224 -166 c 0
 170 -166 128 -150 96 -119 c 0
EndSplineSet
Validated: 1
EndChar

StartChar: Agrave
Encoding: 192 192 129
Width: 590
GlyphClass: 2
Flags: W
HStem: 0 21G<7 92.9412 497.941 584> 170 63<167 424> 687 20G<256.73 334.27>
LayerCount: 2
Fore
SplineSet
445 170 m 1
 145 170 l 1
 86 0 l 1
 7 0 l 1
 264 707 l 1
 327 707 l 1
 584 0 l 1
 505 0 l 1
 445 170 l 1
424 233 m 1
 295 602 l 1
 167 233 l 1
 424 233 l 1
167 901 m 1
 253 901 l 1
 354 773 l 1
 290 773 l 1
 167 901 l 1
EndSplineSet
Validated: 1
EndChar

StartChar: Aacute
Encoding: 193 193 130
Width: 590
GlyphClass: 2
Flags: W
HStem: 0 21G<7 92.9412 497.941 584> 170 63<167 424> 687 20G<256.73 334.27>
LayerCount: 2
Fore
SplineSet
445 170 m 1
 145 170 l 1
 86 0 l 1
 7 0 l 1
 264 707 l 1
 327 707 l 1
 584 0 l 1
 505 0 l 1
 445 170 l 1
424 233 m 1
 295 602 l 1
 167 233 l 1
 424 233 l 1
321 901 m 1
 407 901 l 1
 284 773 l 1
 219 773 l 1
 321 901 l 1
EndSplineSet
Validated: 1
EndChar

StartChar: Acircumflex
Encoding: 194 194 131
Width: 590
GlyphClass: 2
Flags: W
HStem: 0 21G<7 92.9412 497.941 584> 170 63<167 424> 687 20G<256.73 334.27>
LayerCount: 2
Fore
SplineSet
445 170 m 1
 145 170 l 1
 86 0 l 1
 7 0 l 1
 264 707 l 1
 327 707 l 1
 584 0 l 1
 505 0 l 1
 445 170 l 1
424 233 m 1
 295 602 l 1
 167 233 l 1
 424 233 l 1
267 910 m 1
 324 910 l 1
 433 763 l 1
 370 763 l 1
 296 860 l 1
 221 763 l 1
 158 763 l 1
 267 910 l 1
EndSplineSet
Validated: 1
EndChar

StartChar: Atilde
Encoding: 195 195 132
Width: 590
GlyphClass: 2
Flags: W
HStem: 0 21G<7 92.9412 497.941 584> 170 63<167 424> 687 20G<256.73 334.27> 771 60<296.955 403.899> 810 61<186.916 296.811>
LayerCount: 2
Fore
SplineSet
445 170 m 1xe0
 145 170 l 1
 86 0 l 1
 7 0 l 1
 264 707 l 1
 327 707 l 1
 584 0 l 1
 505 0 l 1
 445 170 l 1xe0
424 233 m 1
 295 602 l 1
 167 233 l 1
 424 233 l 1
169 833 m 1
 181 847 192 856 203 862 c 0
 214 868 226 871 240 871 c 0xe8
 251 871 260 869 269 866 c 0
 278 863 289 858 301 851 c 0
 311 845 320 840 328 837 c 0
 336 834 344 831 354 831 c 0xf0
 366 831 378 834 387 840 c 0
 396 846 408 856 422 871 c 1xe8
 422 809 l 1
 400 784 376 771 351 771 c 0xf0
 339 771 330 773 321 776 c 0
 312 779 301 785 288 793 c 0
 286 794 281 797 274 800 c 0
 267 803 261 805 255 807 c 0
 249 809 243 810 238 810 c 0xe8
 225 810 214 807 204 801 c 0
 194 795 183 785 169 770 c 1
 169 833 l 1
EndSplineSet
Validated: 1
EndChar

StartChar: Adieresis
Encoding: 196 196 133
Width: 590
GlyphClass: 2
Flags: W
HStem: 0 21G<7 92.9412 497.941 584> 170 63<167 424> 687 20G<256.73 334.27> 779 88<169 247 344 422>
VStem: 169 78<779 867> 344 78<779 867>
LayerCount: 2
Fore
SplineSet
445 170 m 1
 145 170 l 1
 86 0 l 1
 7 0 l 1
 264 707 l 1
 327 707 l 1
 584 0 l 1
 505 0 l 1
 445 170 l 1
424 233 m 1
 295 602 l 1
 167 233 l 1
 424 233 l 1
169 867 m 1
 247 867 l 1
 247 779 l 1
 169 779 l 1
 169 867 l 1
344 867 m 1
 422 867 l 1
 422 779 l 1
 344 779 l 1
 344 867 l 1
EndSplineSet
Validated: 1
EndChar

StartChar: Aring
Encoding: 197 197 134
Width: 590
GlyphClass: 2
Flags: W
HStem: 0 21G<7 92.9412 497.941 584> 170 63<167 424> 849 39<257.045 334.965>
VStem: 203 40<753.095 834.749> 349 40<753.095 834.749>
LayerCount: 2
Fore
SplineSet
445 170 m 1
 145 170 l 1
 86 0 l 1
 7 0 l 1
 264 706 l 1
 246 712 231 723 220 739 c 0
 209 755 203 774 203 794 c 0
 203 821 212 843 229 861 c 0
 246 879 269 888 296 888 c 0
 323 888 344 879 362 861 c 0
 380 843 389 821 389 794 c 0
 389 774 384 755 372 739 c 0
 360 723 345 712 327 706 c 1
 584 0 l 1
 505 0 l 1
 445 170 l 1
258 755 m 0
 268 745 281 739 296 739 c 0
 311 739 324 745 334 755 c 0
 344 765 349 778 349 794 c 0
 349 810 344 822 334 833 c 0
 324 844 311 849 296 849 c 0
 281 849 268 844 258 833 c 0
 248 822 243 810 243 794 c 0
 243 778 248 765 258 755 c 0
424 233 m 1
 295 602 l 1
 167 233 l 1
 424 233 l 1
302 707 m 1024
EndSplineSet
Validated: 1
EndChar

StartChar: AE
Encoding: 198 198 135
Width: 886
GlyphClass: 2
Flags: W
HStem: 0 68<510 838> 175 64<217 435> 326 67<510 785> 639 68<510 838>
VStem: 435 75<68 175 239 326 393 639>
LayerCount: 2
Fore
SplineSet
510 639 m 1
 510 393 l 1
 785 393 l 1
 785 326 l 1
 510 326 l 1
 510 68 l 1
 838 68 l 1
 838 0 l 1
 435 0 l 1
 435 175 l 1
 182 175 l 1
 88 0 l 1
 7 0 l 1
 391 707 l 1
 838 707 l 1
 838 639 l 1
 510 639 l 1
435 239 m 1
 435 642 l 1
 217 239 l 1
 435 239 l 1
EndSplineSet
Validated: 1
EndChar

StartChar: Ccedilla
Encoding: 199 199 136
Width: 624
GlyphClass: 2
Flags: W
HStem: -8 68<221.425 305 371 411.5> 648 68<220.041 412.946>
VStem: 68 74<143 563.884> 482 73<125.8 212 497 582.499>
LayerCount: 2
Fore
SplineSet
482 497 m 1
 482 500 l 2
 482 546 468 581 438 608 c 0
 408 635 367 648 316 648 c 0
 259 648 217 632 187 600 c 0
 157 568 142 515 142 442 c 2
 142 258 l 2
 142 126 200 60 317 60 c 0
 368 60 409 74 438 100 c 0
 467 126 482 162 482 208 c 2
 482 212 l 1
 555 212 l 1
 555 208 l 2
 555 151 539 103 506 66 c 0
 473 29 428 6 371 -4 c 1
 322 -154 l 1
 249 -154 l 1
 305 -8 l 1
 233 -6 175 17 132 60 c 0
 89 103 68 171 68 262 c 2
 68 445 l 2
 68 539 90 608 135 651 c 0
 180 694 240 716 316 716 c 0
 364 716 406 707 443 689 c 0
 480 671 507 646 527 613 c 0
 547 580 557 543 557 500 c 2
 557 497 l 1
 482 497 l 1
EndSplineSet
Validated: 1
EndChar

StartChar: Egrave
Encoding: 200 200 137
Width: 560
GlyphClass: 2
Flags: W
HStem: 0 68<157 511> 326 67<157 460> 639 68<157 511>
VStem: 82 75<68 326 393 639>
LayerCount: 2
Fore
SplineSet
157 639 m 1
 157 393 l 1
 460 393 l 1
 460 326 l 1
 157 326 l 1
 157 68 l 1
 511 68 l 1
 511 0 l 1
 82 0 l 1
 82 707 l 1
 511 707 l 1
 511 639 l 1
 157 639 l 1
158 901 m 1
 244 901 l 1
 345 773 l 1
 281 773 l 1
 158 901 l 1
EndSplineSet
Validated: 1
EndChar

StartChar: Eacute
Encoding: 201 201 138
Width: 560
GlyphClass: 2
Flags: W
HStem: 0 68<157 511> 326 67<157 460> 639 68<157 511>
VStem: 82 75<68 326 393 639>
LayerCount: 2
Fore
SplineSet
157 639 m 1
 157 393 l 1
 460 393 l 1
 460 326 l 1
 157 326 l 1
 157 68 l 1
 511 68 l 1
 511 0 l 1
 82 0 l 1
 82 707 l 1
 511 707 l 1
 511 639 l 1
 157 639 l 1
311 901 m 1
 397 901 l 1
 274 773 l 1
 210 773 l 1
 311 901 l 1
EndSplineSet
Validated: 1
EndChar

StartChar: Ecircumflex
Encoding: 202 202 139
Width: 560
GlyphClass: 2
Flags: W
HStem: 0 68<157 511> 326 67<157 460> 639 68<157 511>
VStem: 82 75<68 326 393 639>
LayerCount: 2
Fore
SplineSet
157 639 m 1
 157 393 l 1
 460 393 l 1
 460 326 l 1
 157 326 l 1
 157 68 l 1
 511 68 l 1
 511 0 l 1
 82 0 l 1
 82 707 l 1
 511 707 l 1
 511 639 l 1
 157 639 l 1
258 910 m 1
 314 910 l 1
 424 763 l 1
 360 763 l 1
 287 860 l 1
 212 763 l 1
 148 763 l 1
 258 910 l 1
EndSplineSet
Validated: 1
EndChar

StartChar: Edieresis
Encoding: 203 203 140
Width: 560
GlyphClass: 2
Flags: W
HStem: 0 68<157 511> 326 67<157 460> 639 68<157 511> 779 88<160 238 335 413>
VStem: 82 75<68 326 393 639> 160 78<779 867> 335 78<779 867>
LayerCount: 2
Fore
SplineSet
157 639 m 1
 157 393 l 1
 460 393 l 1
 460 326 l 1
 157 326 l 1
 157 68 l 1
 511 68 l 1
 511 0 l 1
 82 0 l 1
 82 707 l 1
 511 707 l 1
 511 639 l 1
 157 639 l 1
160 867 m 1
 238 867 l 1
 238 779 l 1
 160 779 l 1
 160 867 l 1
335 867 m 1
 413 867 l 1
 413 779 l 1
 335 779 l 1
 335 867 l 1
EndSplineSet
Validated: 1
EndChar

StartChar: Igrave
Encoding: 204 204 141
Width: 254
GlyphClass: 2
Flags: W
HStem: 0 21G<90 165> 687 20G<90 165>
VStem: 90 75<0 707>
LayerCount: 2
Fore
SplineSet
90 707 m 1
 165 707 l 1
 165 0 l 1
 90 0 l 1
 90 707 l 1
-1 901 m 1
 85 901 l 1
 186 773 l 1
 122 773 l 1
 -1 901 l 1
EndSplineSet
Validated: 1
EndChar

StartChar: Iacute
Encoding: 205 205 142
Width: 254
GlyphClass: 2
Flags: W
HStem: 0 21G<90 165> 687 20G<90 165>
VStem: 90 75<0 707>
LayerCount: 2
Fore
SplineSet
90 707 m 1
 165 707 l 1
 165 0 l 1
 90 0 l 1
 90 707 l 1
153 901 m 1
 239 901 l 1
 116 773 l 1
 51 773 l 1
 153 901 l 1
EndSplineSet
Validated: 1
EndChar

StartChar: Icircumflex
Encoding: 206 206 143
Width: 254
GlyphClass: 2
Flags: W
HStem: 0 21G<90 165> 687 20G<90 165>
VStem: 90 75<0 707>
LayerCount: 2
Fore
SplineSet
90 707 m 1
 165 707 l 1
 165 0 l 1
 90 0 l 1
 90 707 l 1
99 910 m 1
 156 910 l 1
 265 763 l 1
 202 763 l 1
 128 860 l 1
 53 763 l 1
 -10 763 l 1
 99 910 l 1
EndSplineSet
Validated: 1
EndChar

StartChar: Idieresis
Encoding: 207 207 144
Width: 254
GlyphClass: 2
Flags: W
HStem: 0 21G<90 165> 687 20G<90 165> 779 88<1 79 176 254>
VStem: 1 78<779 867> 90 75<0 707> 176 78<779 867>
CounterMasks: 1 1c
LayerCount: 2
Fore
SplineSet
90 707 m 1
 165 707 l 1
 165 0 l 1
 90 0 l 1
 90 707 l 1
1 867 m 1
 79 867 l 1
 79 779 l 1
 1 779 l 1
 1 867 l 1
176 867 m 1
 254 867 l 1
 254 779 l 1
 176 779 l 1
 176 867 l 1
EndSplineSet
Validated: 1
EndChar

StartChar: Eth
Encoding: 208 208 145
Width: 685
GlyphClass: 2
Flags: W
HStem: 0 68<207 466.162> 324 67<39 131 207 350> 639 68<207 465.191>
VStem: 131 76<68 324 391 639> 542 75<149.259 554.884>
LayerCount: 2
Fore
SplineSet
551 642 m 0
 595 599 617 530 617 436 c 2
 617 270 l 2
 617 176 595 108 551 65 c 0
 507 22 448 0 373 0 c 2
 131 0 l 1
 131 324 l 1
 39 324 l 1
 39 391 l 1
 131 391 l 1
 131 707 l 1
 373 707 l 2
 448 707 507 685 551 642 c 0
542 433 m 2
 542 505 527 557 498 590 c 0
 469 623 428 639 374 639 c 2
 207 639 l 1
 207 391 l 1
 350 391 l 1
 350 324 l 1
 207 324 l 1
 207 68 l 1
 374 68 l 2
 486 68 542 134 542 266 c 2
 542 433 l 2
EndSplineSet
Validated: 1
EndChar

StartChar: Ntilde
Encoding: 209 209 146
Width: 678
GlyphClass: 2
Flags: W
HStem: 0 21G<82 157 509.17 597> 687 20G<82 169.852 522 597> 771 60<339.955 446.899> 810 61<229.916 339.811>
VStem: 82 75<0 569> 522 75<139 707>
LayerCount: 2
Fore
SplineSet
597 707 m 1xcc
 597 0 l 1
 522 0 l 1
 157 569 l 1
 157 0 l 1
 82 0 l 1
 82 707 l 1
 157 707 l 1
 522 139 l 1
 522 707 l 1
 597 707 l 1xcc
212 833 m 1
 224 847 235 856 246 862 c 0
 257 868 269 871 283 871 c 0xdc
 294 871 303 869 312 866 c 0
 321 863 332 858 344 851 c 0
 354 845 363 840 371 837 c 0
 379 834 387 831 397 831 c 0xec
 409 831 421 834 430 840 c 0
 439 846 451 856 465 871 c 1xdc
 465 809 l 1
 443 784 419 771 394 771 c 0xec
 382 771 373 773 364 776 c 0
 355 779 344 785 331 793 c 0
 329 794 324 797 317 800 c 0
 310 803 304 805 298 807 c 0
 292 809 286 810 281 810 c 0xdc
 268 810 257 807 247 801 c 0
 237 795 226 785 212 770 c 1
 212 833 l 1
EndSplineSet
Validated: 1
EndChar

StartChar: Ograve
Encoding: 210 210 147
Width: 624
GlyphClass: 2
Flags: W
HStem: -8 68<219.295 406.243> 648 68<217.669 405.321>
VStem: 68 74<140.633 567.125> 482 75<141.259 563.31>
LayerCount: 2
Fore
SplineSet
134 57 m 0
 90 100 68 168 68 262 c 2
 68 445 l 2
 68 539 90 608 134 651 c 0
 178 694 238 716 313 716 c 0
 387 716 447 694 491 651 c 0
 535 608 557 539 557 445 c 2
 557 262 l 2
 557 168 534 100 490 57 c 0
 446 14 386 -8 312 -8 c 0
 237 -8 178 14 134 57 c 0
482 258 m 2
 482 442 l 2
 482 579 426 648 313 648 c 0
 256 648 214 632 185 600 c 0
 156 568 142 514 142 442 c 2
 142 258 l 2
 142 189 157 139 186 108 c 0
 215 77 257 60 313 60 c 0
 426 60 482 126 482 258 c 2
183 901 m 1
 269 901 l 1
 371 773 l 1
 306 773 l 1
 183 901 l 1
EndSplineSet
Validated: 1
EndChar

StartChar: Oacute
Encoding: 211 211 148
Width: 624
GlyphClass: 2
Flags: W
HStem: -8 68<219.295 406.243> 648 68<217.669 405.321>
VStem: 68 74<140.633 567.125> 482 75<141.259 563.31>
LayerCount: 2
Fore
SplineSet
134 57 m 0
 90 100 68 168 68 262 c 2
 68 445 l 2
 68 539 90 608 134 651 c 0
 178 694 238 716 313 716 c 0
 387 716 447 694 491 651 c 0
 535 608 557 539 557 445 c 2
 557 262 l 2
 557 168 534 100 490 57 c 0
 446 14 386 -8 312 -8 c 0
 237 -8 178 14 134 57 c 0
482 258 m 2
 482 442 l 2
 482 579 426 648 313 648 c 0
 256 648 214 632 185 600 c 0
 156 568 142 514 142 442 c 2
 142 258 l 2
 142 189 157 139 186 108 c 0
 215 77 257 60 313 60 c 0
 426 60 482 126 482 258 c 2
337 901 m 1
 423 901 l 1
 300 773 l 1
 236 773 l 1
 337 901 l 1
EndSplineSet
Validated: 1
EndChar

StartChar: Ocircumflex
Encoding: 212 212 149
Width: 624
GlyphClass: 2
Flags: W
HStem: -8 68<219.295 406.243> 648 68<217.669 405.321>
VStem: 68 74<140.633 567.125> 482 75<141.259 563.31>
LayerCount: 2
Fore
SplineSet
134 57 m 0
 90 100 68 168 68 262 c 2
 68 445 l 2
 68 539 90 608 134 651 c 0
 178 694 238 716 313 716 c 0
 387 716 447 694 491 651 c 0
 535 608 557 539 557 445 c 2
 557 262 l 2
 557 168 534 100 490 57 c 0
 446 14 386 -8 312 -8 c 0
 237 -8 178 14 134 57 c 0
482 258 m 2
 482 442 l 2
 482 579 426 648 313 648 c 0
 256 648 214 632 185 600 c 0
 156 568 142 514 142 442 c 2
 142 258 l 2
 142 189 157 139 186 108 c 0
 215 77 257 60 313 60 c 0
 426 60 482 126 482 258 c 2
284 910 m 1
 340 910 l 1
 450 763 l 1
 386 763 l 1
 312 860 l 1
 238 763 l 1
 174 763 l 1
 284 910 l 1
EndSplineSet
Validated: 1
EndChar

StartChar: Otilde
Encoding: 213 213 150
Width: 624
GlyphClass: 2
Flags: W
HStem: -8 68<219.295 406.243> 648 68<217.669 405.321> 771 60<312.972 419.456> 810 61<202.916 312.811>
VStem: 68 74<140.633 567.125> 482 75<141.259 563.31>
LayerCount: 2
Fore
SplineSet
134 57 m 0xcc
 90 100 68 168 68 262 c 2
 68 445 l 2
 68 539 90 608 134 651 c 0
 178 694 238 716 313 716 c 0
 387 716 447 694 491 651 c 0
 535 608 557 539 557 445 c 2
 557 262 l 2
 557 168 534 100 490 57 c 0
 446 14 386 -8 312 -8 c 0
 237 -8 178 14 134 57 c 0xcc
482 258 m 2
 482 442 l 2
 482 579 426 648 313 648 c 0
 256 648 214 632 185 600 c 0
 156 568 142 514 142 442 c 2
 142 258 l 2
 142 189 157 139 186 108 c 0
 215 77 257 60 313 60 c 0
 426 60 482 126 482 258 c 2
185 833 m 1
 197 847 208 856 219 862 c 0
 230 868 242 871 256 871 c 0xdc
 267 871 277 869 286 866 c 0
 295 863 305 858 317 851 c 0
 327 845 337 840 345 837 c 0
 353 834 361 831 371 831 c 0xec
 383 831 394 834 403 840 c 0
 412 846 424 856 438 871 c 1xdc
 438 809 l 1
 416 784 393 771 368 771 c 0xec
 356 771 346 773 337 776 c 0
 328 779 317 785 304 793 c 0
 302 794 298 797 291 800 c 0
 284 803 277 805 271 807 c 0
 265 809 259 810 254 810 c 0xdc
 241 810 230 807 220 801 c 0
 210 795 199 785 185 770 c 1
 185 833 l 1
EndSplineSet
Validated: 1
EndChar

StartChar: Odieresis
Encoding: 214 214 151
Width: 624
GlyphClass: 2
Flags: W
HStem: -8 68<219.295 406.243> 648 68<217.669 405.321> 779 88<185 263 360 438>
VStem: 68 74<140.633 567.125> 185 78<779 867> 360 78<779 867> 482 75<141.259 563.31>
LayerCount: 2
Fore
SplineSet
134 57 m 0
 90 100 68 168 68 262 c 2
 68 445 l 2
 68 539 90 608 134 651 c 0
 178 694 238 716 313 716 c 0
 387 716 447 694 491 651 c 0
 535 608 557 539 557 445 c 2
 557 262 l 2
 557 168 534 100 490 57 c 0
 446 14 386 -8 312 -8 c 0
 237 -8 178 14 134 57 c 0
482 258 m 2
 482 442 l 2
 482 579 426 648 313 648 c 0
 256 648 214 632 185 600 c 0
 156 568 142 514 142 442 c 2
 142 258 l 2
 142 189 157 139 186 108 c 0
 215 77 257 60 313 60 c 0
 426 60 482 126 482 258 c 2
185 867 m 1
 263 867 l 1
 263 779 l 1
 185 779 l 1
 185 867 l 1
360 867 m 1
 438 867 l 1
 438 779 l 1
 360 779 l 1
 360 867 l 1
EndSplineSet
Validated: 1
EndChar

StartChar: multiply
Encoding: 215 215 152
Width: 524
GlyphClass: 2
Flags: W
LayerCount: 2
Fore
SplineSet
91 157 m 1
 217 284 l 1
 91 410 l 1
 136 455 l 1
 262 329 l 1
 388 455 l 1
 434 410 l 1
 308 284 l 1
 434 157 l 1
 388 112 l 1
 262 238 l 1
 136 112 l 1
 91 157 l 1
EndSplineSet
Validated: 1
EndChar

StartChar: Oslash
Encoding: 216 216 153
Width: 624
GlyphClass: 2
Flags: W
HStem: -8 68<217.228 406.243> 648 68<217.669 405.682>
VStem: 68 74<145.367 567.125> 482 75<141.259 559.4>
LayerCount: 2
Fore
SplineSet
504 635 m 1
 539 590 557 526 557 445 c 2
 557 262 l 2
 557 168 534 100 490 57 c 0
 446 14 386 -8 312 -8 c 0
 249 -8 199 6 159 35 c 1
 127 -20 l 1
 68 -20 l 1
 121 72 l 1
 86 117 68 180 68 262 c 2
 68 445 l 2
 68 539 90 608 134 651 c 0
 178 694 238 716 313 716 c 0
 375 716 426 702 466 673 c 1
 498 727 l 1
 557 727 l 1
 504 635 l 1
163 144 m 1
 429 608 l 1
 402 635 363 648 313 648 c 0
 256 648 214 632 185 600 c 0
 156 568 142 514 142 442 c 2
 142 258 l 2
 142 212 149 173 163 144 c 1
462 561 m 1
 196 98 l 1
 223 73 262 60 313 60 c 0
 426 60 482 126 482 258 c 2
 482 442 l 2
 482 490 476 530 462 561 c 1
EndSplineSet
Validated: 1
EndChar

StartChar: Ugrave
Encoding: 217 217 154
Width: 650
GlyphClass: 2
Flags: W
HStem: -6 66<235.775 414.319> 687 20G<82 158 494 568>
VStem: 82 76<139.408 707> 494 74<142.215 707>
LayerCount: 2
Fore
SplineSet
201 24 m 0
 164 44 135 72 114 108 c 0
 93 144 82 184 82 230 c 2
 82 707 l 1
 158 707 l 1
 158 237 l 2
 158 183 173 140 203 108 c 0
 233 76 275 60 326 60 c 0
 377 60 416 76 447 108 c 0
 478 140 494 183 494 237 c 2
 494 707 l 1
 568 707 l 1
 568 230 l 2
 568 184 558 143 537 107 c 0
 516 71 488 44 451 24 c 0
 414 4 372 -6 326 -6 c 0
 280 -6 238 4 201 24 c 0
196 901 m 1
 282 901 l 1
 383 773 l 1
 318 773 l 1
 196 901 l 1
EndSplineSet
Validated: 1
EndChar

StartChar: Uacute
Encoding: 218 218 155
Width: 650
GlyphClass: 2
Flags: W
HStem: -6 66<235.775 414.319> 687 20G<82 158 494 568>
VStem: 82 76<139.408 707> 494 74<142.215 707>
LayerCount: 2
Fore
SplineSet
201 24 m 0
 164 44 135 72 114 108 c 0
 93 144 82 184 82 230 c 2
 82 707 l 1
 158 707 l 1
 158 237 l 2
 158 183 173 140 203 108 c 0
 233 76 275 60 326 60 c 0
 377 60 416 76 447 108 c 0
 478 140 494 183 494 237 c 2
 494 707 l 1
 568 707 l 1
 568 230 l 2
 568 184 558 143 537 107 c 0
 516 71 488 44 451 24 c 0
 414 4 372 -6 326 -6 c 0
 280 -6 238 4 201 24 c 0
349 901 m 1
 435 901 l 1
 312 773 l 1
 248 773 l 1
 349 901 l 1
EndSplineSet
Validated: 1
EndChar

StartChar: Ucircumflex
Encoding: 219 219 156
Width: 650
GlyphClass: 2
Flags: W
HStem: -6 66<235.775 414.319> 687 20G<82 158 494 568>
VStem: 82 76<139.408 707> 494 74<142.215 707>
LayerCount: 2
Fore
SplineSet
201 24 m 0
 164 44 135 72 114 108 c 0
 93 144 82 184 82 230 c 2
 82 707 l 1
 158 707 l 1
 158 237 l 2
 158 183 173 140 203 108 c 0
 233 76 275 60 326 60 c 0
 377 60 416 76 447 108 c 0
 478 140 494 183 494 237 c 2
 494 707 l 1
 568 707 l 1
 568 230 l 2
 568 184 558 143 537 107 c 0
 516 71 488 44 451 24 c 0
 414 4 372 -6 326 -6 c 0
 280 -6 238 4 201 24 c 0
296 910 m 1
 352 910 l 1
 462 763 l 1
 398 763 l 1
 325 860 l 1
 250 763 l 1
 186 763 l 1
 296 910 l 1
EndSplineSet
Validated: 1
EndChar

StartChar: Udieresis
Encoding: 220 220 157
Width: 650
GlyphClass: 2
Flags: W
HStem: -6 66<235.775 414.319> 687 20G<82 158 494 568> 779 88<198 275 373 451>
VStem: 82 76<139.408 707> 198 77<779 867> 373 78<779 867> 494 74<142.215 707>
LayerCount: 2
Fore
SplineSet
201 24 m 0
 164 44 135 72 114 108 c 0
 93 144 82 184 82 230 c 2
 82 707 l 1
 158 707 l 1
 158 237 l 2
 158 183 173 140 203 108 c 0
 233 76 275 60 326 60 c 0
 377 60 416 76 447 108 c 0
 478 140 494 183 494 237 c 2
 494 707 l 1
 568 707 l 1
 568 230 l 2
 568 184 558 143 537 107 c 0
 516 71 488 44 451 24 c 0
 414 4 372 -6 326 -6 c 0
 280 -6 238 4 201 24 c 0
198 867 m 1
 275 867 l 1
 275 779 l 1
 198 779 l 1
 198 867 l 1
373 867 m 1
 451 867 l 1
 451 779 l 1
 373 779 l 1
 373 867 l 1
EndSplineSet
Validated: 1
EndChar

StartChar: Yacute
Encoding: 221 221 158
Width: 510
GlyphClass: 2
Flags: W
HStem: 0 21G<218 293> 687 20G<7 97.8525 413.088 504>
VStem: 218 75<0 296>
LayerCount: 2
Fore
SplineSet
293 296 m 1
 293 0 l 1
 218 0 l 1
 218 297 l 1
 7 707 l 1
 88 707 l 1
 255 368 l 1
 423 707 l 1
 504 707 l 1
 293 296 l 1
281 901 m 1
 367 901 l 1
 244 773 l 1
 179 773 l 1
 281 901 l 1
EndSplineSet
Validated: 1
EndChar

StartChar: Thorn
Encoding: 222 222 159
Width: 590
GlyphClass: 2
Flags: W
HStem: 0 21G<82 157> 163 67<157 414.958> 511 67<157 412.793> 687 20G<82 157>
VStem: 82 75<0 163 230 511 578 707> 473 75<283.784 454.469>
LayerCount: 2
Fore
SplineSet
488 523 m 0
 528 486 548 435 548 367 c 0
 548 304 528 253 488 217 c 0
 448 181 394 163 326 163 c 2
 157 163 l 1
 157 0 l 1
 82 0 l 1
 82 707 l 1
 157 707 l 1
 157 578 l 1
 326 578 l 2
 395 578 448 560 488 523 c 0
433 264 m 0
 460 287 473 321 473 367 c 0
 473 415 460 451 433 475 c 0
 406 499 368 511 319 511 c 2
 157 511 l 1
 157 230 l 1
 319 230 l 2
 368 230 406 241 433 264 c 0
EndSplineSet
Validated: 1
EndChar

StartChar: germandbls
Encoding: 223 223 160
Width: 517
GlyphClass: 2
Flags: W
HStem: -4 63<257 351.337> 402 64<256 350.29> 650 64<182.898 349.036>
VStem: 77 69<0 611.584> 378 71<488.135 621.778> 386 71<87.9326 372.255>
LayerCount: 2
Fore
SplineSet
257 59 m 1xf4
 284 59 l 2
 315 59 338 65 352 76 c 0
 366 87 376 103 380 126 c 0
 384 149 386 183 386 230 c 0xf4
 386 276 384 310 380 333 c 0
 376 356 366 373 351 385 c 0
 336 397 311 402 278 402 c 2
 256 402 l 1
 256 466 l 1
 284 466 l 2
 317 466 341 473 356 488 c 0
 371 503 378 525 378 556 c 0
 378 588 369 612 350 627 c 0
 331 642 303 650 265 650 c 0
 224 650 194 640 175 621 c 0
 156 602 146 570 146 527 c 2
 146 0 l 1
 77 0 l 1
 77 518 l 2
 77 582 92 631 121 664 c 0
 150 697 198 714 264 714 c 0
 323 714 369 700 401 673 c 0
 433 646 449 607 449 557 c 0xf8
 449 527 443 502 432 483 c 0
 421 464 405 449 382 437 c 1
 404 427 420 413 431 397 c 0
 442 381 449 360 452 335 c 0
 455 310 457 275 457 230 c 0
 457 170 452 124 444 91 c 0
 436 58 420 34 396 19 c 0
 372 4 335 -4 287 -4 c 2
 257 -4 l 1
 257 59 l 1xf4
EndSplineSet
Validated: 1
EndChar

StartChar: agrave
Encoding: 224 224 161
Width: 508
GlyphClass: 2
Flags: W
HStem: -6 56<149.371 319.378> 244 51<150.638 362> 468 58<163.906 324.227> 694 20G<123 224.781>
VStem: 48 70<80.5265 213.049> 63 68<375 436.045> 362 70<0 55 91.6456 244 295 430.005>
LayerCount: 2
Fore
SplineSet
383 482 m 0xf6
 415 453 432 410 432 353 c 2
 432 0 l 1
 364 0 l 1
 364 55 l 1
 348 34 328 19 305 9 c 0
 282 -1 253 -6 220 -6 c 0
 165 -6 123 7 93 33 c 0
 63 59 48 96 48 146 c 0xfa
 48 192 64 229 94 255 c 0
 124 281 167 295 222 295 c 2
 362 295 l 1
 362 354 l 2
 362 392 352 420 332 439 c 0
 312 458 283 468 245 468 c 0
 210 468 181 460 161 444 c 0
 141 428 131 406 131 378 c 2
 131 375 l 1
 63 375 l 1
 63 380 l 2
 63 424 80 459 112 486 c 0
 144 513 188 526 244 526 c 0
 305 526 351 511 383 482 c 0xf6
331 81 m 0
 352 102 362 134 362 176 c 2
 362 244 l 1
 232 244 l 2
 156 244 118 211 118 147 c 0
 118 82 155 50 231 50 c 0
 277 50 310 60 331 81 c 0
123 714 m 1
 209 714 l 1
 310 586 l 1
 246 586 l 1
 123 714 l 1
EndSplineSet
Validated: 1
EndChar

StartChar: aacute
Encoding: 225 225 162
Width: 508
GlyphClass: 2
Flags: W
HStem: -6 56<149.371 319.378> 244 51<150.638 362> 468 58<163.906 324.227> 694 20G<260.219 362>
VStem: 48 70<80.5265 213.049> 63 68<375 436.045> 362 70<0 55 91.6456 244 295 430.005>
LayerCount: 2
Fore
SplineSet
383 482 m 0xf6
 415 453 432 410 432 353 c 2
 432 0 l 1
 364 0 l 1
 364 55 l 1
 348 34 328 19 305 9 c 0
 282 -1 253 -6 220 -6 c 0
 165 -6 123 7 93 33 c 0
 63 59 48 96 48 146 c 0xfa
 48 192 64 229 94 255 c 0
 124 281 167 295 222 295 c 2
 362 295 l 1
 362 354 l 2
 362 392 352 420 332 439 c 0
 312 458 283 468 245 468 c 0
 210 468 181 460 161 444 c 0
 141 428 131 406 131 378 c 2
 131 375 l 1
 63 375 l 1
 63 380 l 2
 63 424 80 459 112 486 c 0
 144 513 188 526 244 526 c 0
 305 526 351 511 383 482 c 0xf6
331 81 m 0
 352 102 362 134 362 176 c 2
 362 244 l 1
 232 244 l 2
 156 244 118 211 118 147 c 0
 118 82 155 50 231 50 c 0
 277 50 310 60 331 81 c 0
276 714 m 1
 362 714 l 1
 240 586 l 1
 175 586 l 1
 276 714 l 1
EndSplineSet
Validated: 1
EndChar

StartChar: acircumflex
Encoding: 226 226 163
Width: 508
GlyphClass: 2
Flags: W
HStem: -6 56<149.371 319.378> 244 51<150.638 362> 468 58<163.906 324.227>
VStem: 48 70<80.5265 213.049> 63 68<375 436.045> 362 70<0 55 91.6456 244 295 430.005>
LayerCount: 2
Fore
SplineSet
383 482 m 0xec
 415 453 432 410 432 353 c 2
 432 0 l 1
 364 0 l 1
 364 55 l 1
 348 34 328 19 305 9 c 0
 282 -1 253 -6 220 -6 c 0
 165 -6 123 7 93 33 c 0
 63 59 48 96 48 146 c 0xf4
 48 192 64 229 94 255 c 0
 124 281 167 295 222 295 c 2
 362 295 l 1
 362 354 l 2
 362 392 352 420 332 439 c 0
 312 458 283 468 245 468 c 0
 210 468 181 460 161 444 c 0
 141 428 131 406 131 378 c 2
 131 375 l 1
 63 375 l 1
 63 380 l 2
 63 424 80 459 112 486 c 0
 144 513 188 526 244 526 c 0
 305 526 351 511 383 482 c 0xec
331 81 m 0
 352 102 362 134 362 176 c 2
 362 244 l 1
 232 244 l 2
 156 244 118 211 118 147 c 0
 118 82 155 50 231 50 c 0
 277 50 310 60 331 81 c 0
223 723 m 1
 280 723 l 1
 389 575 l 1
 326 575 l 1
 252 673 l 1
 177 575 l 1
 114 575 l 1
 223 723 l 1
EndSplineSet
Validated: 1
EndChar

StartChar: atilde
Encoding: 227 227 164
Width: 508
GlyphClass: 2
Flags: W
HStem: -6 56<149.371 319.378> 244 51<150.638 362> 468 58<163.906 324.227> 584 60<253.1 359.734> 623 61<142.916 251.452>
VStem: 48 70<80.5265 213.049> 63 68<375 436.045> 362 70<0 55 91.6456 244 295 430.005>
LayerCount: 2
Fore
SplineSet
383 482 m 0xe3
 415 453 432 410 432 353 c 2
 432 0 l 1
 364 0 l 1
 364 55 l 1
 348 34 328 19 305 9 c 0
 282 -1 253 -6 220 -6 c 0
 165 -6 123 7 93 33 c 0
 63 59 48 96 48 146 c 0xe5
 48 192 64 229 94 255 c 0
 124 281 167 295 222 295 c 2
 362 295 l 1
 362 354 l 2
 362 392 352 420 332 439 c 0
 312 458 283 468 245 468 c 0
 210 468 181 460 161 444 c 0
 141 428 131 406 131 378 c 2
 131 375 l 1
 63 375 l 1
 63 380 l 2
 63 424 80 459 112 486 c 0
 144 513 188 526 244 526 c 0
 305 526 351 511 383 482 c 0xe3
331 81 m 0
 352 102 362 134 362 176 c 2
 362 244 l 1
 232 244 l 2
 156 244 118 211 118 147 c 0
 118 82 155 50 231 50 c 0
 277 50 310 60 331 81 c 0
125 645 m 1
 137 659 148 669 159 675 c 0
 170 681 182 684 196 684 c 0xe9
 207 684 216 682 225 679 c 0
 234 676 245 671 257 664 c 0
 267 658 276 652 284 649 c 0
 292 646 300 644 310 644 c 0xf1
 322 644 334 647 343 653 c 0
 352 659 364 669 378 684 c 1xe9
 378 622 l 1
 356 597 332 584 307 584 c 0xf1
 295 584 285 586 276 589 c 0
 267 592 257 597 244 605 c 0
 242 606 237 609 230 612 c 0
 223 615 217 618 211 620 c 0
 205 622 199 623 194 623 c 0xe9
 181 623 170 620 160 614 c 0
 150 608 139 598 125 583 c 1
 125 645 l 1
EndSplineSet
Validated: 1
EndChar

StartChar: adieresis
Encoding: 228 228 165
Width: 508
GlyphClass: 2
Flags: W
HStem: -6 56<149.371 319.378> 244 51<150.638 362> 468 58<163.906 324.227> 592 88<125 203 300 378>
VStem: 48 70<80.5265 213.049> 63 68<375 436.045> 125 78<592 680> 300 78<592 680> 362 70<0 55 91.6456 244 295 430.005>
LayerCount: 2
Fore
SplineSet
383 482 m 0xf480
 415 453 432 410 432 353 c 2
 432 0 l 1
 364 0 l 1
 364 55 l 1
 348 34 328 19 305 9 c 0
 282 -1 253 -6 220 -6 c 0
 165 -6 123 7 93 33 c 0
 63 59 48 96 48 146 c 0xf880
 48 192 64 229 94 255 c 0
 124 281 167 295 222 295 c 2
 362 295 l 1
 362 354 l 2
 362 392 352 420 332 439 c 0
 312 458 283 468 245 468 c 0
 210 468 181 460 161 444 c 0
 141 428 131 406 131 378 c 2
 131 375 l 1
 63 375 l 1
 63 380 l 2
 63 424 80 459 112 486 c 0
 144 513 188 526 244 526 c 0
 305 526 351 511 383 482 c 0xf480
331 81 m 0
 352 102 362 134 362 176 c 2
 362 244 l 1
 232 244 l 2
 156 244 118 211 118 147 c 0
 118 82 155 50 231 50 c 0
 277 50 310 60 331 81 c 0
125 680 m 1xf2
 203 680 l 1
 203 592 l 1
 125 592 l 1
 125 680 l 1xf2
300 680 m 1xf1
 378 680 l 1
 378 592 l 1
 300 592 l 1
 300 680 l 1xf1
EndSplineSet
Validated: 1
EndChar

StartChar: aring
Encoding: 229 229 166
Width: 508
GlyphClass: 2
Flags: W
HStem: -6 56<149.371 319.378> 244 51<150.638 362> 468 58<163.906 324.227> 572 39<213.045 290.965> 721 39<213.045 290.965>
VStem: 48 70<80.5265 213.049> 63 68<375 436.045> 159 40<625.228 706.749> 305 40<625.228 706.749> 362 70<0 55 91.6456 244 295 430.005>
LayerCount: 2
Fore
SplineSet
383 482 m 0xfbc0
 415 453 432 410 432 353 c 2
 432 0 l 1
 364 0 l 1
 364 55 l 1
 348 34 328 19 305 9 c 0
 282 -1 253 -6 220 -6 c 0
 165 -6 123 7 93 33 c 0
 63 59 48 96 48 146 c 0xfdc0
 48 192 64 229 94 255 c 0
 124 281 167 295 222 295 c 2
 362 295 l 1
 362 354 l 2
 362 392 352 420 332 439 c 0
 312 458 283 468 245 468 c 0
 210 468 181 460 161 444 c 0
 141 428 131 406 131 378 c 2
 131 375 l 1
 63 375 l 1
 63 380 l 2
 63 424 80 459 112 486 c 0
 144 513 188 526 244 526 c 0
 305 526 351 511 383 482 c 0xfbc0
331 81 m 0
 352 102 362 134 362 176 c 2
 362 244 l 1
 232 244 l 2
 156 244 118 211 118 147 c 0
 118 82 155 50 231 50 c 0
 277 50 310 60 331 81 c 0
185 599 m 0
 168 617 159 639 159 666 c 0
 159 693 168 715 185 733 c 0
 202 751 225 760 252 760 c 0
 279 760 300 751 318 733 c 0
 336 715 345 693 345 666 c 0
 345 639 336 617 318 599 c 0
 300 581 279 572 252 572 c 0
 225 572 202 581 185 599 c 0
290 627 m 0
 300 637 305 650 305 666 c 0
 305 682 300 694 290 705 c 0
 280 716 267 721 252 721 c 0
 237 721 224 716 214 705 c 0
 204 694 199 682 199 666 c 0
 199 650 204 637 214 627 c 0
 224 617 237 611 252 611 c 0
 267 611 280 617 290 627 c 0
EndSplineSet
Validated: 1
EndChar

StartChar: ae
Encoding: 230 230 167
Width: 817
GlyphClass: 2
Flags: W
HStem: -6 56<148.99 315.551 494.879 638.069> 246 52<152.669 362 432 686> 468 58<163.906 323.336 488.574 631.67>
VStem: 48 70<80.714 213.049> 63 68<375 436.045> 362 70<110.078 244 298 412.555> 686 71<92.8965 160 298 415.938>
LayerCount: 2
Fore
SplineSet
432 246 m 1xee
 432 215 l 2
 432 156 444 116 468 92 c 0
 492 68 525 56 567 56 c 0
 604 56 633 65 654 83 c 0
 675 101 685 126 685 157 c 2
 685 160 l 1
 753 160 l 1
 753 155 l 2
 753 108 736 69 704 39 c 0
 672 9 626 -6 568 -6 c 0
 531 -6 499 1 470 14 c 0
 441 27 417 48 399 77 c 1
 364 22 306 -6 226 -6 c 0
 171 -6 128 7 96 33 c 0
 64 59 48 97 48 146 c 0xf6
 48 192 64 229 94 255 c 0
 124 281 167 295 222 295 c 2
 362 295 l 1
 362 354 l 2
 362 392 352 420 332 439 c 0
 312 458 283 468 245 468 c 0
 210 468 181 460 161 444 c 0
 141 428 131 406 131 378 c 2
 131 375 l 1
 63 375 l 1
 63 380 l 2
 63 424 80 459 112 486 c 0
 144 513 188 526 244 526 c 0
 320 526 373 504 404 458 c 1
 438 504 490 526 560 526 c 0
 619 526 667 509 703 473 c 0
 739 437 757 381 757 307 c 2
 757 246 l 1
 432 246 l 1xee
467 429 m 0
 444 406 432 366 432 309 c 2
 432 298 l 1
 686 298 l 1
 686 316 l 2
 686 370 675 408 653 430 c 0
 631 452 600 463 560 463 c 0
 521 463 490 452 467 429 c 0
362 244 m 1
 232 244 l 2
 156 244 118 211 118 147 c 0
 118 82 155 50 231 50 c 0
 318 50 362 94 362 181 c 2
 362 244 l 1
EndSplineSet
Validated: 1
EndChar

StartChar: ccedilla
Encoding: 231 231 168
Width: 515
GlyphClass: 2
Flags: W
HStem: -6 62<180.944 251> 463 63<181.127 344.749>
VStem: 60 70<108.337 411.466> 387 68<96.6673 171 348 422.273>
LayerCount: 2
Fore
SplineSet
387 348 m 1
 387 353 l 2
 387 388 376 415 354 434 c 0
 332 453 303 463 265 463 c 0
 223 463 190 452 166 429 c 0
 142 406 130 366 130 309 c 2
 130 211 l 2
 130 154 141 114 165 91 c 0
 189 68 222 56 264 56 c 0
 302 56 332 66 354 85 c 0
 376 104 387 131 387 166 c 2
 387 171 l 1
 455 171 l 1
 455 167 l 2
 455 123 443 87 418 57 c 0
 393 27 359 8 316 -1 c 1
 266 -154 l 1
 194 -154 l 1
 251 -6 l 1
 192 -4 146 14 112 48 c 0
 78 82 60 135 60 207 c 2
 60 313 l 2
 60 387 78 441 115 475 c 0
 152 509 201 526 262 526 c 0
 321 526 369 510 403 479 c 0
 437 448 455 406 455 353 c 2
 455 348 l 1
 387 348 l 1
EndSplineSet
Validated: 1
EndChar

StartChar: egrave
Encoding: 232 232 169
Width: 515
GlyphClass: 2
Flags: W
HStem: -6 62<182.864 345.875> 246 52<130 385> 463 63<179.451 337.715> 694 20G<129 230.781>
VStem: 60 70<110.078 246 298 411.929> 385 70<94.9568 160 298 414.433>
LayerCount: 2
Fore
SplineSet
130 246 m 1
 130 215 l 2
 130 156 142 116 166 92 c 0
 190 68 223 56 265 56 c 0
 302 56 331 65 352 83 c 0
 373 101 383 126 383 157 c 2
 383 160 l 1
 451 160 l 1
 451 155 l 2
 451 107 434 67 400 38 c 0
 366 9 319 -6 260 -6 c 0
 199 -6 151 12 115 48 c 0
 79 84 60 141 60 217 c 2
 60 307 l 2
 60 381 79 437 115 473 c 0
 151 509 199 526 258 526 c 0
 317 526 365 509 401 473 c 0
 437 437 455 381 455 307 c 2
 455 246 l 1
 130 246 l 1
165 429 m 0
 142 406 130 366 130 309 c 2
 130 298 l 1
 385 298 l 1
 385 316 l 2
 385 370 374 408 351 430 c 0
 328 452 298 463 258 463 c 0
 219 463 188 452 165 429 c 0
129 714 m 1
 215 714 l 1
 316 586 l 1
 252 586 l 1
 129 714 l 1
EndSplineSet
Validated: 1
EndChar

StartChar: eacute
Encoding: 233 233 170
Width: 515
GlyphClass: 2
Flags: W
HStem: -6 62<182.864 345.875> 246 52<130 385> 463 63<179.451 337.715> 694 20G<267.062 369>
VStem: 60 70<110.078 246 298 411.929> 385 70<94.9568 160 298 414.433>
LayerCount: 2
Fore
SplineSet
130 246 m 1
 130 215 l 2
 130 156 142 116 166 92 c 0
 190 68 223 56 265 56 c 0
 302 56 331 65 352 83 c 0
 373 101 383 126 383 157 c 2
 383 160 l 1
 451 160 l 1
 451 155 l 2
 451 107 434 67 400 38 c 0
 366 9 319 -6 260 -6 c 0
 199 -6 151 12 115 48 c 0
 79 84 60 141 60 217 c 2
 60 307 l 2
 60 381 79 437 115 473 c 0
 151 509 199 526 258 526 c 0
 317 526 365 509 401 473 c 0
 437 437 455 381 455 307 c 2
 455 246 l 1
 130 246 l 1
165 429 m 0
 142 406 130 366 130 309 c 2
 130 298 l 1
 385 298 l 1
 385 316 l 2
 385 370 374 408 351 430 c 0
 328 452 298 463 258 463 c 0
 219 463 188 452 165 429 c 0
283 714 m 1
 369 714 l 1
 246 586 l 1
 181 586 l 1
 283 714 l 1
EndSplineSet
Validated: 1
EndChar

StartChar: ecircumflex
Encoding: 234 234 171
Width: 515
GlyphClass: 2
Flags: W
HStem: -6 62<182.864 345.875> 246 52<130 385> 463 63<179.451 337.715>
VStem: 60 70<110.078 246 298 411.929> 385 70<94.9568 160 298 414.433>
LayerCount: 2
Fore
SplineSet
130 246 m 1
 130 215 l 2
 130 156 142 116 166 92 c 0
 190 68 223 56 265 56 c 0
 302 56 331 65 352 83 c 0
 373 101 383 126 383 157 c 2
 383 160 l 1
 451 160 l 1
 451 155 l 2
 451 107 434 67 400 38 c 0
 366 9 319 -6 260 -6 c 0
 199 -6 151 12 115 48 c 0
 79 84 60 141 60 217 c 2
 60 307 l 2
 60 381 79 437 115 473 c 0
 151 509 199 526 258 526 c 0
 317 526 365 509 401 473 c 0
 437 437 455 381 455 307 c 2
 455 246 l 1
 130 246 l 1
165 429 m 0
 142 406 130 366 130 309 c 2
 130 298 l 1
 385 298 l 1
 385 316 l 2
 385 370 374 408 351 430 c 0
 328 452 298 463 258 463 c 0
 219 463 188 452 165 429 c 0
229 723 m 1
 286 723 l 1
 395 575 l 1
 332 575 l 1
 258 673 l 1
 183 575 l 1
 120 575 l 1
 229 723 l 1
EndSplineSet
Validated: 1
EndChar

StartChar: edieresis
Encoding: 235 235 172
Width: 515
GlyphClass: 2
Flags: W
HStem: -6 62<182.864 345.875> 246 52<130 385> 463 63<179.451 337.715> 592 88<131 209 306 384>
VStem: 60 70<110.078 246 298 411.929> 131 78<592 680> 306 78<592 680> 385 70<94.9568 160 298 414.433>
LayerCount: 2
Fore
SplineSet
130 246 m 1
 130 215 l 2
 130 156 142 116 166 92 c 0
 190 68 223 56 265 56 c 0
 302 56 331 65 352 83 c 0
 373 101 383 126 383 157 c 2
 383 160 l 1
 451 160 l 1
 451 155 l 2
 451 107 434 67 400 38 c 0
 366 9 319 -6 260 -6 c 0
 199 -6 151 12 115 48 c 0
 79 84 60 141 60 217 c 2
 60 307 l 2
 60 381 79 437 115 473 c 0
 151 509 199 526 258 526 c 0
 317 526 365 509 401 473 c 0
 437 437 455 381 455 307 c 2
 455 246 l 1
 130 246 l 1
165 429 m 0
 142 406 130 366 130 309 c 2
 130 298 l 1
 385 298 l 1
 385 316 l 2
 385 370 374 408 351 430 c 0
 328 452 298 463 258 463 c 0
 219 463 188 452 165 429 c 0
131 680 m 1
 209 680 l 1
 209 592 l 1
 131 592 l 1
 131 680 l 1
306 680 m 1
 384 680 l 1
 384 592 l 1
 306 592 l 1
 306 680 l 1
EndSplineSet
Validated: 1
EndChar

StartChar: igrave
Encoding: 236 236 173
Width: 239
GlyphClass: 2
Flags: W
HStem: 0 21G<85 155> 499 20G<85 155> 694 20G<-40 61.7812>
VStem: 85 70<0 519>
LayerCount: 2
Fore
SplineSet
85 519 m 1
 155 519 l 1
 155 0 l 1
 85 0 l 1
 85 519 l 1
-40 714 m 1
 46 714 l 1
 147 586 l 1
 83 586 l 1
 -40 714 l 1
EndSplineSet
Validated: 1
EndChar

StartChar: iacute
Encoding: 237 237 174
Width: 239
GlyphClass: 2
Flags: W
HStem: 0 21G<85 155> 499 20G<85 155> 694 20G<160.219 262>
VStem: 85 70<0 519>
LayerCount: 2
Fore
SplineSet
85 519 m 1
 155 519 l 1
 155 0 l 1
 85 0 l 1
 85 519 l 1
176 714 m 1
 262 714 l 1
 139 586 l 1
 75 586 l 1
 176 714 l 1
EndSplineSet
Validated: 1
EndChar

StartChar: icircumflex
Encoding: 238 238 175
Width: 239
GlyphClass: 2
Flags: W
HStem: 0 21G<85 155> 499 20G<85 155>
VStem: 85 70<0 519>
LayerCount: 2
Fore
SplineSet
85 519 m 1
 155 519 l 1
 155 0 l 1
 85 0 l 1
 85 519 l 1
91 723 m 1
 147 723 l 1
 257 575 l 1
 194 575 l 1
 120 673 l 1
 45 575 l 1
 -18 575 l 1
 91 723 l 1
EndSplineSet
Validated: 1
EndChar

StartChar: idieresis
Encoding: 239 239 176
Width: 239
GlyphClass: 2
Flags: W
HStem: 0 21G<85 155> 499 20G<85 155> 592 88<-7 71 168 246>
VStem: -7 78<592 680> 85 70<0 519> 168 78<592 680>
LayerCount: 2
Fore
SplineSet
85 519 m 1
 155 519 l 1
 155 0 l 1
 85 0 l 1
 85 519 l 1
-7 680 m 1
 71 680 l 1
 71 592 l 1
 -7 592 l 1
 -7 680 l 1
168 680 m 1
 246 680 l 1
 246 592 l 1
 168 592 l 1
 168 680 l 1
EndSplineSet
Validated: 1
EndChar

StartChar: eth
Encoding: 240 240 177
Width: 507
GlyphClass: 2
Flags: W
HStem: -9 66<178.623 328.927> 421 64<178.338 306.204> 687 20G<137 235.571>
VStem: 60 70<109.128 370.249> 377 70<108.753 369.863>
LayerCount: 2
Fore
SplineSet
428 394 m 0
 441 356 447 315 447 273 c 2
 447 217 l 2
 447 142 431 86 397 48 c 0
 363 10 315 -9 253 -9 c 0
 192 -9 144 9 111 47 c 0
 78 85 60 140 60 212 c 2
 60 268 l 2
 60 338 76 391 107 429 c 0
 138 467 182 485 237 485 c 0
 265 485 288 481 308 471 c 1
 239 566 l 1
 134 535 l 1
 119 590 l 1
 203 615 l 1
 137 707 l 1
 221 707 l 1
 272 637 l 1
 374 668 l 1
 389 612 l 1
 308 588 l 1
 366 508 l 2
 394 470 415 432 428 394 c 0
377 268 m 2
 377 370 336 421 255 421 c 0
 172 421 130 370 130 270 c 2
 130 212 l 2
 130 109 172 57 255 57 c 0
 336 57 377 109 377 211 c 2
 377 268 l 2
EndSplineSet
Validated: 1
EndChar

StartChar: ntilde
Encoding: 241 241 178
Width: 534
GlyphClass: 2
Flags: W
HStem: -0 21G<77 146 388 458> 463 62<194.198 342.89> 584 60<269.133 375.178> 623 61<158.916 267.518>
VStem: 77 69<0 413.755 456 519> 388 70<0 416.333>
LayerCount: 2
Fore
SplineSet
77 519 m 1xcc
 145 519 l 1
 145 456 l 1
 160 479 180 496 204 508 c 0
 228 520 256 525 286 525 c 0
 341 525 383 509 413 477 c 0
 443 445 458 399 458 341 c 2
 458 -0 l 1
 388 -0 l 1
 388 331 l 2
 388 374 377 406 356 429 c 0
 335 452 306 463 268 463 c 0
 231 463 202 452 180 429 c 0
 158 406 146 373 146 331 c 2
 146 0 l 1
 77 0 l 1
 77 519 l 1xcc
141 645 m 1
 153 659 164 669 175 675 c 0
 186 681 198 684 212 684 c 0xdc
 223 684 233 682 242 679 c 0
 251 676 261 671 273 664 c 0
 283 658 293 652 301 649 c 0
 309 646 317 644 327 644 c 0xec
 339 644 350 647 359 653 c 0
 368 659 380 669 394 684 c 1xdc
 394 622 l 1
 372 597 349 584 324 584 c 0xec
 312 584 302 586 293 589 c 0
 284 592 273 597 260 605 c 0
 258 606 254 609 247 612 c 0
 240 615 233 618 227 620 c 0
 221 622 215 623 210 623 c 0xdc
 197 623 186 620 176 614 c 0
 166 608 155 598 141 583 c 1
 141 645 l 1
EndSplineSet
Validated: 1
EndChar

StartChar: ograve
Encoding: 242 242 179
Width: 517
GlyphClass: 2
Flags: W
HStem: -6 62<180.259 337.936> 463 63<179.638 338.549> 694 20G<129 230.781>
VStem: 60 70<108.483 411.517> 387 70<105.996 414.004>
LayerCount: 2
Fore
SplineSet
115 45 m 0
 79 79 60 133 60 207 c 2
 60 313 l 2
 60 387 79 441 115 475 c 0
 151 509 199 526 260 526 c 0
 319 526 367 509 403 475 c 0
 439 441 457 387 457 313 c 2
 457 207 l 2
 457 133 439 79 403 45 c 0
 367 11 319 -6 260 -6 c 0
 199 -6 151 11 115 45 c 0
353 91 m 0
 376 114 387 154 387 211 c 2
 387 309 l 2
 387 366 376 406 353 429 c 0
 330 452 299 463 260 463 c 0
 220 463 188 452 165 429 c 0
 142 406 130 366 130 309 c 2
 130 211 l 2
 130 154 142 114 165 91 c 0
 188 68 220 56 260 56 c 0
 299 56 330 68 353 91 c 0
129 714 m 1
 215 714 l 1
 316 586 l 1
 252 586 l 1
 129 714 l 1
EndSplineSet
Validated: 1
EndChar

StartChar: oacute
Encoding: 243 243 180
Width: 517
GlyphClass: 2
Flags: W
HStem: -6 62<180.259 337.936> 463 63<179.638 338.549> 694 20G<267.062 369>
VStem: 60 70<108.483 411.517> 387 70<105.996 414.004>
LayerCount: 2
Fore
SplineSet
115 45 m 0
 79 79 60 133 60 207 c 2
 60 313 l 2
 60 387 79 441 115 475 c 0
 151 509 199 526 260 526 c 0
 319 526 367 509 403 475 c 0
 439 441 457 387 457 313 c 2
 457 207 l 2
 457 133 439 79 403 45 c 0
 367 11 319 -6 260 -6 c 0
 199 -6 151 11 115 45 c 0
353 91 m 0
 376 114 387 154 387 211 c 2
 387 309 l 2
 387 366 376 406 353 429 c 0
 330 452 299 463 260 463 c 0
 220 463 188 452 165 429 c 0
 142 406 130 366 130 309 c 2
 130 211 l 2
 130 154 142 114 165 91 c 0
 188 68 220 56 260 56 c 0
 299 56 330 68 353 91 c 0
283 714 m 1
 369 714 l 1
 246 586 l 1
 181 586 l 1
 283 714 l 1
EndSplineSet
Validated: 1
EndChar

StartChar: ocircumflex
Encoding: 244 244 181
Width: 517
GlyphClass: 2
Flags: W
HStem: -6 62<180.259 337.936> 463 63<179.638 338.549>
VStem: 60 70<108.483 411.517> 387 70<105.996 414.004>
LayerCount: 2
Fore
SplineSet
115 45 m 0
 79 79 60 133 60 207 c 2
 60 313 l 2
 60 387 79 441 115 475 c 0
 151 509 199 526 260 526 c 0
 319 526 367 509 403 475 c 0
 439 441 457 387 457 313 c 2
 457 207 l 2
 457 133 439 79 403 45 c 0
 367 11 319 -6 260 -6 c 0
 199 -6 151 11 115 45 c 0
353 91 m 0
 376 114 387 154 387 211 c 2
 387 309 l 2
 387 366 376 406 353 429 c 0
 330 452 299 463 260 463 c 0
 220 463 188 452 165 429 c 0
 142 406 130 366 130 309 c 2
 130 211 l 2
 130 154 142 114 165 91 c 0
 188 68 220 56 260 56 c 0
 299 56 330 68 353 91 c 0
229 723 m 1
 286 723 l 1
 395 575 l 1
 332 575 l 1
 258 673 l 1
 183 575 l 1
 120 575 l 1
 229 723 l 1
EndSplineSet
Validated: 1
EndChar

StartChar: otilde
Encoding: 245 245 182
Width: 517
GlyphClass: 2
Flags: W
HStem: -6 62<180.259 337.936> 463 63<179.638 338.549> 584 60<259.1 365.734> 623 61<148.916 257.452>
VStem: 60 70<108.483 411.517> 387 70<105.996 414.004>
LayerCount: 2
Fore
SplineSet
115 45 m 0xcc
 79 79 60 133 60 207 c 2
 60 313 l 2
 60 387 79 441 115 475 c 0
 151 509 199 526 260 526 c 0
 319 526 367 509 403 475 c 0
 439 441 457 387 457 313 c 2
 457 207 l 2
 457 133 439 79 403 45 c 0
 367 11 319 -6 260 -6 c 0
 199 -6 151 11 115 45 c 0xcc
353 91 m 0
 376 114 387 154 387 211 c 2
 387 309 l 2
 387 366 376 406 353 429 c 0
 330 452 299 463 260 463 c 0
 220 463 188 452 165 429 c 0
 142 406 130 366 130 309 c 2
 130 211 l 2
 130 154 142 114 165 91 c 0
 188 68 220 56 260 56 c 0
 299 56 330 68 353 91 c 0
131 645 m 1
 143 659 154 669 165 675 c 0
 176 681 188 684 202 684 c 0xdc
 213 684 222 682 231 679 c 0
 240 676 251 671 263 664 c 0
 273 658 282 652 290 649 c 0
 298 646 306 644 316 644 c 0xec
 328 644 340 647 349 653 c 0
 358 659 370 669 384 684 c 1xdc
 384 622 l 1
 362 597 338 584 313 584 c 0xec
 301 584 292 586 283 589 c 0
 274 592 263 597 250 605 c 0
 248 606 244 609 237 612 c 0
 230 615 223 618 217 620 c 0
 211 622 205 623 200 623 c 0xdc
 187 623 176 620 166 614 c 0
 156 608 145 598 131 583 c 1
 131 645 l 1
EndSplineSet
Validated: 1
EndChar

StartChar: odieresis
Encoding: 246 246 183
Width: 517
GlyphClass: 2
Flags: W
HStem: -6 62<180.259 337.936> 463 63<179.638 338.549> 592 88<131 209 306 384>
VStem: 60 70<108.483 411.517> 131 78<592 680> 306 78<592 680> 387 70<105.996 414.004>
LayerCount: 2
Fore
SplineSet
115 45 m 0
 79 79 60 133 60 207 c 2
 60 313 l 2
 60 387 79 441 115 475 c 0
 151 509 199 526 260 526 c 0
 319 526 367 509 403 475 c 0
 439 441 457 387 457 313 c 2
 457 207 l 2
 457 133 439 79 403 45 c 0
 367 11 319 -6 260 -6 c 0
 199 -6 151 11 115 45 c 0
353 91 m 0
 376 114 387 154 387 211 c 2
 387 309 l 2
 387 366 376 406 353 429 c 0
 330 452 299 463 260 463 c 0
 220 463 188 452 165 429 c 0
 142 406 130 366 130 309 c 2
 130 211 l 2
 130 154 142 114 165 91 c 0
 188 68 220 56 260 56 c 0
 299 56 330 68 353 91 c 0
131 680 m 1
 209 680 l 1
 209 592 l 1
 131 592 l 1
 131 680 l 1
306 680 m 1
 384 680 l 1
 384 592 l 1
 306 592 l 1
 306 680 l 1
EndSplineSet
Validated: 1
EndChar

StartChar: divide
Encoding: 247 247 184
Width: 524
GlyphClass: 2
Flags: W
HStem: 90 98<227.469 296.531> 249 67<58 466> 379 98<227.469 296.531>
VStem: 213 98<104.469 173.531 393.469 462.531>
LayerCount: 2
Fore
SplineSet
227 393 m 0
 217 403 213 414 213 428 c 0
 213 442 217 453 227 463 c 0
 237 473 248 477 262 477 c 0
 276 477 287 473 297 463 c 0
 307 453 311 442 311 428 c 0
 311 414 307 403 297 393 c 0
 287 383 276 379 262 379 c 0
 248 379 237 383 227 393 c 0
58 316 m 1
 466 316 l 1
 466 249 l 1
 58 249 l 1
 58 316 l 1
227 104 m 0
 217 114 213 125 213 139 c 0
 213 153 217 164 227 174 c 0
 237 184 248 188 262 188 c 0
 276 188 287 184 297 174 c 0
 307 164 311 153 311 139 c 0
 311 125 307 114 297 104 c 0
 287 94 276 90 262 90 c 0
 248 90 237 94 227 104 c 0
EndSplineSet
Validated: 1
EndChar

StartChar: oslash
Encoding: 248 248 185
Width: 517
GlyphClass: 2
Flags: W
HStem: -6 62<178.763 337.936> 463 63<179.638 338.989>
VStem: 60 70<115.223 411.517> 387 70<105.996 401.824>
LayerCount: 2
Fore
SplineSet
410 468 m 1
 441 433 457 381 457 313 c 2
 457 207 l 2
 457 133 439 79 403 45 c 0
 367 11 319 -6 260 -6 c 0
 212 -6 171 5 139 25 c 1
 105 -31 l 1
 60 -31 l 1
 110 50 l 1
 77 86 60 139 60 207 c 2
 60 313 l 2
 60 387 79 441 115 475 c 0
 151 509 199 526 260 526 c 0
 308 526 348 516 380 494 c 1
 412 546 l 1
 457 546 l 1
 410 468 l 1
148 114 m 1
 345 436 l 1
 325 454 296 463 260 463 c 0
 220 463 188 452 165 429 c 0
 142 406 130 366 130 309 c 2
 130 211 l 2
 130 172 136 140 148 114 c 1
370 403 m 1
 174 82 l 1
 194 65 222 56 260 56 c 0
 299 56 330 68 353 91 c 0
 376 114 387 154 387 211 c 2
 387 309 l 2
 387 347 382 378 370 403 c 1
EndSplineSet
Validated: 1
EndChar

StartChar: ugrave
Encoding: 249 249 186
Width: 534
GlyphClass: 2
Flags: W
HStem: -6 62<187.764 346.438> 499 20G<77 146 388 458> 694 20G<138 239.938>
VStem: 77 69<102.144 519> 388 70<99.9353 519>
LayerCount: 2
Fore
SplineSet
124 45 m 0
 92 79 77 127 77 190 c 2
 77 519 l 1
 146 519 l 1
 146 200 l 2
 146 152 156 116 174 92 c 0
 192 68 223 56 267 56 c 0
 311 56 342 68 360 91 c 0
 378 114 388 151 388 200 c 2
 388 519 l 1
 458 519 l 1
 458 190 l 2
 458 127 442 79 410 45 c 0
 378 11 330 -6 266 -6 c 0
 203 -6 156 11 124 45 c 0
138 714 m 1
 224 714 l 1
 326 586 l 1
 261 586 l 1
 138 714 l 1
EndSplineSet
Validated: 1
EndChar

StartChar: uacute
Encoding: 250 250 187
Width: 534
GlyphClass: 2
Flags: W
HStem: -6 62<187.764 346.438> 499 20G<77 146 388 458> 694 20G<276.062 378>
VStem: 77 69<102.144 519> 388 70<99.9353 519>
LayerCount: 2
Fore
SplineSet
124 45 m 0
 92 79 77 127 77 190 c 2
 77 519 l 1
 146 519 l 1
 146 200 l 2
 146 152 156 116 174 92 c 0
 192 68 223 56 267 56 c 0
 311 56 342 68 360 91 c 0
 378 114 388 151 388 200 c 2
 388 519 l 1
 458 519 l 1
 458 190 l 2
 458 127 442 79 410 45 c 0
 378 11 330 -6 266 -6 c 0
 203 -6 156 11 124 45 c 0
292 714 m 1
 378 714 l 1
 255 586 l 1
 190 586 l 1
 292 714 l 1
EndSplineSet
Validated: 1
EndChar

StartChar: ucircumflex
Encoding: 251 251 188
Width: 534
GlyphClass: 2
Flags: W
HStem: -6 62<187.764 346.438> 499 20G<77 146 388 458>
VStem: 77 69<102.144 519> 388 70<99.9353 519>
LayerCount: 2
Fore
SplineSet
124 45 m 0
 92 79 77 127 77 190 c 2
 77 519 l 1
 146 519 l 1
 146 200 l 2
 146 152 156 116 174 92 c 0
 192 68 223 56 267 56 c 0
 311 56 342 68 360 91 c 0
 378 114 388 151 388 200 c 2
 388 519 l 1
 458 519 l 1
 458 190 l 2
 458 127 442 79 410 45 c 0
 378 11 330 -6 266 -6 c 0
 203 -6 156 11 124 45 c 0
239 723 m 1
 295 723 l 1
 404 575 l 1
 341 575 l 1
 267 673 l 1
 193 575 l 1
 129 575 l 1
 239 723 l 1
EndSplineSet
Validated: 1
EndChar

StartChar: udieresis
Encoding: 252 252 189
Width: 534
GlyphClass: 2
Flags: W
HStem: -6 62<187.764 346.438> 499 20G<77 146 388 458> 592 88<140 218 315 393>
VStem: 77 69<102.144 519> 140 78<592 680> 315 78<592 680> 388 70<99.9353 519>
LayerCount: 2
Fore
SplineSet
124 45 m 0xf2
 92 79 77 127 77 190 c 2
 77 519 l 1
 146 519 l 1
 146 200 l 2
 146 152 156 116 174 92 c 0
 192 68 223 56 267 56 c 0
 311 56 342 68 360 91 c 0
 378 114 388 151 388 200 c 2
 388 519 l 1
 458 519 l 1
 458 190 l 2
 458 127 442 79 410 45 c 0
 378 11 330 -6 266 -6 c 0
 203 -6 156 11 124 45 c 0xf2
140 680 m 1xe8
 218 680 l 1
 218 592 l 1
 140 592 l 1
 140 680 l 1xe8
315 680 m 1xe4
 393 680 l 1
 393 592 l 1
 315 592 l 1
 315 680 l 1xe4
EndSplineSet
Validated: 1
EndChar

StartChar: yacute
Encoding: 253 253 190
Width: 449
GlyphClass: 2
Flags: W
HStem: -156 64<69 150.386> 499 20G<14 96.586 355.414 435> 694 20G<233.062 335>
LayerCount: 2
Fore
SplineSet
435 519 m 1
 236 -56 l 2
 224 -91 207 -116 185 -132 c 0
 163 -148 134 -156 99 -156 c 2
 69 -156 l 1
 69 -92 l 1
 94 -92 l 2
 119 -92 138 -87 151 -77 c 0
 164 -67 174 -50 182 -27 c 2
 193 5 l 1
 14 519 l 1
 90 519 l 1
 226 106 l 1
 362 519 l 1
 435 519 l 1
249 714 m 1
 335 714 l 1
 212 586 l 1
 147 586 l 1
 249 714 l 1
EndSplineSet
Validated: 1
EndChar

StartChar: thorn
Encoding: 254 254 191
Width: 522
GlyphClass: 2
Flags: W
HStem: -156 21G<77 146> -6 62<202.619 346.641> 463 63<199.083 344.624> 687 20G<77 146>
VStem: 77 69<-156 69 118.67 403.166 446 707> 392 70<106.893 411.154>
LayerCount: 2
Fore
SplineSet
77 707 m 1
 146 707 l 1
 146 446 l 1
 160 472 179 492 202 506 c 0
 225 520 252 526 282 526 c 0
 335 526 379 509 412 475 c 0
 445 441 462 386 462 313 c 2
 462 207 l 2
 462 134 446 80 413 46 c 0
 380 12 338 -6 287 -6 c 0
 222 -6 175 19 146 69 c 1
 146 -156 l 1
 77 -156 l 1
 77 707 l 1
392 211 m 2
 392 309 l 2
 392 411 352 463 272 463 c 0
 230 463 199 448 178 419 c 0
 157 390 146 351 146 303 c 2
 146 212 l 2
 146 166 158 129 180 100 c 0
 202 71 234 56 276 56 c 0
 353 56 392 108 392 211 c 2
EndSplineSet
Validated: 1
EndChar

StartChar: ydieresis
Encoding: 255 255 192
Width: 449
GlyphClass: 2
Flags: W
HStem: -156 64<69 150.386> 499 20G<14 96.586 355.414 435> 592 88<97 175 272 350>
VStem: 97 78<592 680> 272 78<592 680>
LayerCount: 2
Fore
SplineSet
435 519 m 1
 236 -56 l 2
 224 -91 207 -116 185 -132 c 0
 163 -148 134 -156 99 -156 c 2
 69 -156 l 1
 69 -92 l 1
 94 -92 l 2
 119 -92 138 -87 151 -77 c 0
 164 -67 174 -50 182 -27 c 2
 193 5 l 1
 14 519 l 1
 90 519 l 1
 226 106 l 1
 362 519 l 1
 435 519 l 1
97 680 m 1
 175 680 l 1
 175 592 l 1
 97 592 l 1
 97 680 l 1
272 680 m 1
 350 680 l 1
 350 592 l 1
 272 592 l 1
 272 680 l 1
EndSplineSet
Validated: 1
EndChar

StartChar: dotlessi
Encoding: 305 305 193
Width: 239
GlyphClass: 2
Flags: W
HStem: 0 21G<85 155> 499 20G<85 155>
VStem: 85 70<0 519>
LayerCount: 2
Fore
SplineSet
85 519 m 1
 155 519 l 1
 155 0 l 1
 85 0 l 1
 85 519 l 1
EndSplineSet
Validated: 1
EndChar

StartChar: OE
Encoding: 338 338 194
Width: 914
GlyphClass: 2
Flags: W
HStem: -8 68<218.795 406.804> 0 68<556 865> 326 67<557 813> 639 68<556 865> 648 68<217.396 405.906>
VStem: 68 74<140.633 567.125> 482 74<141.259 326 393 563.31>
LayerCount: 2
Fore
SplineSet
556 639 m 1x36
 556 469 l 2
 557 461 557 450 557 434 c 2
 557 393 l 1
 813 393 l 1
 813 326 l 1
 557 326 l 1
 557 273 l 2
 557 257 557 247 556 239 c 2
 556 68 l 1
 865 68 l 1
 865 0 l 1
 482 0 l 1x76
 482 50 l 1
 440 11 383 -8 311 -8 c 0
 236 -8 177 13 133 56 c 0
 89 99 68 168 68 262 c 2
 68 445 l 2
 68 539 90 608 134 651 c 0
 178 694 237 716 312 716 c 0xae
 384 716 441 696 482 657 c 1
 482 707 l 1
 865 707 l 1
 865 639 l 1
 556 639 l 1x36
482 258 m 2
 482 442 l 2
 482 579 426 648 313 648 c 0
 256 648 214 632 185 600 c 0
 156 568 142 514 142 442 c 2
 142 258 l 2
 142 189 157 139 186 108 c 0
 215 77 257 60 313 60 c 0xae
 426 60 482 126 482 258 c 2
EndSplineSet
Validated: 1
EndChar

StartChar: oe
Encoding: 339 339 195
Width: 841
GlyphClass: 2
Flags: W
HStem: -6 62<180.259 337.265 510.579 671.314> 246 52<457 711> 463 63<179.638 339.135 504.748 663.026>
VStem: 60 70<108.483 411.517> 387 70<110.078 246 298 414.27> 711 70<94.9568 160 298 414.433>
LayerCount: 2
Fore
SplineSet
457 246 m 1
 457 215 l 2
 457 156 469 116 493 92 c 0
 517 68 550 56 592 56 c 0
 629 56 657 65 678 83 c 0
 699 101 710 126 710 157 c 2
 710 160 l 1
 777 160 l 1
 777 155 l 2
 777 107 761 67 727 38 c 0
 693 9 646 -6 587 -6 c 0
 512 -6 457 20 423 71 c 1
 391 20 336 -6 260 -6 c 0
 199 -6 151 11 115 45 c 0
 79 79 60 133 60 207 c 2
 60 313 l 2
 60 387 79 441 115 475 c 0
 151 509 199 526 260 526 c 0
 336 526 390 501 423 450 c 1
 440 476 462 494 490 507 c 0
 518 520 549 526 584 526 c 0
 644 526 692 509 728 473 c 0
 764 437 781 381 781 307 c 2
 781 246 l 1
 457 246 l 1
387 309 m 2
 387 366 376 406 353 429 c 0
 330 452 299 463 260 463 c 0
 220 463 188 452 165 429 c 0
 142 406 130 366 130 309 c 2
 130 211 l 2
 130 154 142 114 165 91 c 0
 188 68 220 56 260 56 c 0
 299 56 330 68 353 91 c 0
 376 114 387 154 387 211 c 2
 387 309 l 2
491 429 m 0
 468 406 457 366 457 309 c 2
 457 298 l 1
 711 298 l 1
 711 316 l 2
 711 369 700 408 677 430 c 0
 654 452 624 463 585 463 c 0
 545 463 514 452 491 429 c 0
EndSplineSet
Validated: 1
EndChar

StartChar: Scaron
Encoding: 352 352 196
Width: 559
GlyphClass: 2
Flags: W
HStem: -6 65<177.182 379.288> 519 21G<423 501> 651 65<177.76 367.799>
VStem: 34 74<128.708 200> 48 73<451.954 597.375> 427 74<519 591.382> 438 74<113.119 268.572>
LayerCount: 2
Fore
SplineSet
103 46 m 0xea
 63 81 40 132 34 200 c 1
 108 200 l 1
 118 106 173 59 275 59 c 0
 328 59 369 70 397 93 c 0
 425 116 438 148 438 191 c 0xf2
 438 230 428 260 406 280 c 0
 384 300 350 313 306 321 c 2
 226 334 l 2
 169 344 125 363 94 393 c 0
 63 423 48 464 48 518 c 0
 48 580 69 629 111 664 c 0
 153 699 207 716 275 716 c 0
 338 716 390 699 430 667 c 0
 470 635 493 585 501 519 c 1
 427 519 l 1xec
 419 607 368 651 274 651 c 0
 226 651 188 640 161 617 c 0
 134 594 121 563 121 523 c 0
 121 488 131 461 152 442 c 0
 173 423 205 409 247 401 c 2
 329 387 l 2
 388 377 434 357 465 326 c 0
 496 295 512 252 512 196 c 0
 512 132 490 82 447 47 c 0
 404 12 345 -6 270 -6 c 0
 199 -6 143 11 103 46 c 0xea
141 911 m 1
 205 911 l 1
 280 814 l 1
 353 911 l 1
 417 911 l 1
 307 764 l 1
 251 764 l 1
 141 911 l 1
EndSplineSet
Validated: 1
EndChar

StartChar: scaron
Encoding: 353 353 197
Width: 473
GlyphClass: 2
Flags: W
HStem: -6 59<152.868 327.413> 469 57<156.89 323.288>
VStem: 48 68<88.1055 150> 56 68<328.199 437.503> 364 67<87.8337 200.457 378 428.191>
LayerCount: 2
Fore
SplineSet
99 35 m 0xd8
 65 62 48 99 48 145 c 2
 48 150 l 1
 116 150 l 1
 116 146 l 2xe8
 116 117 127 95 149 78 c 0
 171 61 201 53 239 53 c 0
 278 53 308 61 330 77 c 0
 352 93 364 115 364 144 c 0
 364 170 355 190 340 202 c 0
 325 214 300 223 266 229 c 2
 202 241 l 2
 151 250 114 265 91 286 c 0
 68 307 56 338 56 378 c 0
 56 423 73 459 106 486 c 0
 139 513 184 526 237 526 c 0
 294 526 340 513 374 487 c 0
 408 461 425 426 425 384 c 2
 425 378 l 1
 357 378 l 1
 357 381 l 2
 357 408 347 429 326 445 c 0
 305 461 276 469 239 469 c 0
 203 469 174 461 154 445 c 0
 134 429 124 408 124 381 c 0
 124 358 131 341 145 328 c 0
 159 315 183 306 214 301 c 2
 282 289 l 2
 333 279 371 264 395 242 c 0
 419 220 431 189 431 148 c 0
 431 99 413 61 378 34 c 0
 343 7 295 -6 236 -6 c 0
 179 -6 133 8 99 35 c 0xd8
98 724 m 1
 162 724 l 1
 237 627 l 1
 310 724 l 1
 374 724 l 1
 264 577 l 1
 208 577 l 1
 98 724 l 1
EndSplineSet
Validated: 1
EndChar

StartChar: Ydieresis
Encoding: 376 376 198
Width: 510
GlyphClass: 2
Flags: W
HStem: 0 21G<218 293> 687 20G<7 97.8525 413.088 504> 779 88<129 207 304 382>
VStem: 129 78<779 867> 218 75<0 296> 304 78<779 867>
CounterMasks: 1 1c
LayerCount: 2
Fore
SplineSet
293 296 m 1
 293 0 l 1
 218 0 l 1
 218 297 l 1
 7 707 l 1
 88 707 l 1
 255 368 l 1
 423 707 l 1
 504 707 l 1
 293 296 l 1
129 867 m 1
 207 867 l 1
 207 779 l 1
 129 779 l 1
 129 867 l 1
304 867 m 1
 382 867 l 1
 382 779 l 1
 304 779 l 1
 304 867 l 1
EndSplineSet
Validated: 1
EndChar

StartChar: Zcaron
Encoding: 381 381 199
Width: 528
GlyphClass: 2
Flags: W
HStem: 0 68<126 492> 639 68<54 403>
LayerCount: 2
Fore
SplineSet
492 68 m 1
 492 0 l 1
 41 0 l 1
 41 68 l 1
 403 639 l 1
 54 639 l 1
 54 707 l 1
 488 707 l 1
 488 639 l 1
 126 68 l 1
 492 68 l 1
126 911 m 1
 189 911 l 1
 264 814 l 1
 338 911 l 1
 401 911 l 1
 292 764 l 1
 236 764 l 1
 126 911 l 1
EndSplineSet
Validated: 1
EndChar

StartChar: zcaron
Encoding: 382 382 200
Width: 466
GlyphClass: 2
Flags: W
HStem: 0 65<138 407> 455 64<60 327>
LayerCount: 2
Fore
SplineSet
407 455 m 1
 138 65 l 1
 407 65 l 1
 407 0 l 1
 60 0 l 1
 60 65 l 1
 327 455 l 1
 60 455 l 1
 60 519 l 1
 407 519 l 1
 407 455 l 1
95 724 m 1
 159 724 l 1
 233 627 l 1
 307 724 l 1
 371 724 l 1
 261 577 l 1
 205 577 l 1
 95 724 l 1
EndSplineSet
Validated: 1
EndChar

StartChar: florin
Encoding: 402 402 201
Width: 415
GlyphClass: 2
Flags: W
HStem: -156 68<13 101.385> 355 65<94 181 263 371> 639 68<311.614 402>
LayerCount: 2
Fore
SplineSet
13 -88 m 1
 42 -88 l 2
 69 -88 89 -83 102 -71 c 0
 115 -59 123 -37 128 -4 c 2
 181 355 l 1
 94 355 l 1
 94 420 l 1
 191 420 l 1
 212 555 l 2
 220 609 237 647 261 671 c 0
 285 695 322 707 370 707 c 2
 402 707 l 1
 402 639 l 1
 369 639 l 2
 343 639 324 633 311 621 c 0
 298 609 290 587 285 556 c 2
 263 420 l 1
 371 420 l 1
 371 355 l 1
 253 355 l 1
 200 -2 l 2
 192 -58 176 -98 152 -121 c 0
 128 -144 91 -156 42 -156 c 2
 13 -156 l 1
 13 -88 l 1
EndSplineSet
Validated: 1
EndChar

StartChar: circumflex
Encoding: 710 710 202
Width: 512
GlyphClass: 2
Flags: W
HStem: 575 148
VStem: 118 275
LayerCount: 2
Fore
SplineSet
227 723 m 1
 284 723 l 1
 393 575 l 1
 330 575 l 1
 256 673 l 1
 181 575 l 1
 118 575 l 1
 227 723 l 1
EndSplineSet
Validated: 1
EndChar

StartChar: caron
Encoding: 711 711 203
Width: 512
GlyphClass: 2
Flags: W
HStem: 577 147
VStem: 118 275
LayerCount: 2
Fore
SplineSet
118 724 m 1
 181 724 l 1
 256 627 l 1
 330 724 l 1
 393 724 l 1
 284 577 l 1
 227 577 l 1
 118 724 l 1
EndSplineSet
Validated: 1
EndChar

StartChar: dotaccent
Encoding: 729 729 204
Width: 512
GlyphClass: 2
Flags: W
HStem: 604 92<219 293>
VStem: 219 74<604 696>
LayerCount: 2
Fore
SplineSet
219 696 m 1
 293 696 l 1
 293 604 l 1
 219 604 l 1
 219 696 l 1
EndSplineSet
Validated: 1
EndChar

StartChar: ring
Encoding: 730 730 205
Width: 512
GlyphClass: 2
Flags: W
HStem: 572 39<217.045 295.262> 721 39<217.045 294.752>
VStem: 163 40<625.228 706.749> 309 40<625.228 706.749>
LayerCount: 2
Fore
SplineSet
189 599 m 0
 172 617 163 639 163 666 c 0
 163 693 172 715 189 733 c 0
 206 751 229 760 256 760 c 0
 283 760 305 751 323 733 c 0
 341 715 349 693 349 666 c 0
 349 639 341 617 323 599 c 0
 305 581 283 572 256 572 c 0
 229 572 206 581 189 599 c 0
294 627 m 0
 304 637 309 650 309 666 c 0
 309 682 304 694 294 705 c 0
 284 716 271 721 256 721 c 0
 241 721 228 716 218 705 c 0
 208 694 203 682 203 666 c 0
 203 650 208 637 218 627 c 0
 228 617 241 611 256 611 c 0
 271 611 284 617 294 627 c 0
EndSplineSet
Validated: 1
EndChar

StartChar: tilde
Encoding: 732 732 206
Width: 512
GlyphClass: 2
Flags: W
HStem: 584 60<257.1 363.734> 623 61<146.916 255.452>
VStem: 129 253
LayerCount: 2
Fore
SplineSet
129 645 m 1x60
 141 659 152 669 163 675 c 0
 174 681 186 684 200 684 c 0x60
 211 684 220 682 229 679 c 0
 238 676 249 671 261 664 c 0
 271 658 280 652 288 649 c 0
 296 646 304 644 314 644 c 0xa0
 326 644 338 647 347 653 c 0
 356 659 368 669 382 684 c 1x60
 382 622 l 1
 360 597 336 584 311 584 c 0xa0
 299 584 290 586 281 589 c 0
 272 592 261 597 248 605 c 0
 246 606 241 609 234 612 c 0
 227 615 221 618 215 620 c 0
 209 622 203 623 198 623 c 0
 185 623 174 620 164 614 c 0
 154 608 143 598 129 583 c 1
 129 645 l 1x60
EndSplineSet
Validated: 1
EndChar

StartChar: gravecomb
Encoding: 768 768 207
Width: 0
GlyphClass: 2
Flags: W
HStem: 586 128
VStem: -129 187
LayerCount: 2
Fore
SplineSet
-129 714 m 1
 -43 714 l 1
 58 586 l 1
 -6 586 l 1
 -129 714 l 1
EndSplineSet
Validated: 1
EndChar

StartChar: acutecomb
Encoding: 769 769 208
Width: 0
GlyphClass: 2
Flags: W
HStem: 586 128
VStem: -77 188
LayerCount: 2
Fore
SplineSet
25 714 m 1
 111 714 l 1
 -12 586 l 1
 -77 586 l 1
 25 714 l 1
EndSplineSet
Validated: 1
EndChar

StartChar: uni0302
Encoding: 770 770 209
Width: 0
GlyphClass: 2
Flags: W
HStem: 575 148
VStem: -138 275
LayerCount: 2
Fore
SplineSet
-29 723 m 1
 28 723 l 1
 137 575 l 1
 74 575 l 1
 0 673 l 1
 -75 575 l 1
 -138 575 l 1
 -29 723 l 1
EndSplineSet
Validated: 1
EndChar

StartChar: tildecomb
Encoding: 771 771 210
Width: 0
GlyphClass: 2
Flags: W
HStem: 584 60<1.0997 107.734> 623 61<-109.084 -0.547943>
VStem: -127 253
LayerCount: 2
Fore
SplineSet
-127 645 m 1x60
 -115 659 -104 669 -93 675 c 0
 -82 681 -70 684 -56 684 c 0x60
 -45 684 -36 682 -27 679 c 0
 -18 676 -7 671 5 664 c 0
 15 658 24 652 32 649 c 0
 40 646 48 644 58 644 c 0xa0
 70 644 82 647 91 653 c 0
 100 659 112 669 126 684 c 1x60
 126 622 l 1
 104 597 80 584 55 584 c 0xa0
 43 584 34 586 25 589 c 0
 16 592 5 597 -8 605 c 0
 -10 606 -15 609 -22 612 c 0
 -29 615 -35 618 -41 620 c 0
 -47 622 -53 623 -58 623 c 0
 -71 623 -82 620 -92 614 c 0
 -102 608 -113 598 -127 583 c 1
 -127 645 l 1x60
EndSplineSet
Validated: 1
EndChar

StartChar: uni0308
Encoding: 776 776 211
Width: 0
GlyphClass: 2
Flags: W
HStem: 592 88<-127 -49 48 126>
VStem: -127 78<592 680> 48 78<592 680>
LayerCount: 2
Fore
SplineSet
-127 680 m 1
 -49 680 l 1
 -49 592 l 1
 -127 592 l 1
 -127 680 l 1
48 680 m 1
 126 680 l 1
 126 592 l 1
 48 592 l 1
 48 680 l 1
EndSplineSet
Validated: 1
EndChar

StartChar: uni030A
Encoding: 778 778 212
Width: 0
GlyphClass: 2
Flags: W
HStem: 572 39<-38.955 39.2617> 721 39<-38.955 38.7517>
VStem: -93 40<625.228 706.749> 53 40<625.228 706.749>
LayerCount: 2
Fore
SplineSet
-67 599 m 0
 -84 617 -93 639 -93 666 c 0
 -93 693 -84 715 -67 733 c 0
 -50 751 -27 760 0 760 c 0
 27 760 49 751 67 733 c 0
 85 715 93 693 93 666 c 0
 93 639 85 617 67 599 c 0
 49 581 27 572 0 572 c 0
 -27 572 -50 581 -67 599 c 0
38 627 m 0
 48 637 53 650 53 666 c 0
 53 682 48 694 38 705 c 0
 28 716 15 721 0 721 c 0
 -15 721 -28 716 -38 705 c 0
 -48 694 -53 682 -53 666 c 0
 -53 650 -48 637 -38 627 c 0
 -28 617 -15 611 0 611 c 0
 15 611 28 617 38 627 c 0
EndSplineSet
Validated: 1
EndChar

StartChar: endash
Encoding: 8211 8211 213
Width: 427
GlyphClass: 2
Flags: W
HStem: 322 67<0 427>
LayerCount: 2
Fore
SplineSet
0 389 m 1
 427 389 l 1
 427 322 l 1
 0 322 l 1
 0 389 l 1
EndSplineSet
Validated: 1
EndChar

StartChar: emdash
Encoding: 8212 8212 214
Width: 852
GlyphClass: 2
Flags: W
HStem: 322 67<0 853>
LayerCount: 2
Fore
SplineSet
0 389 m 1
 853 389 l 1
 853 322 l 1
 0 322 l 1
 0 389 l 1
EndSplineSet
Validated: 1
EndChar

StartChar: quoteleft
Encoding: 8216 8216 215
Width: 176
GlyphClass: 2
Flags: W
HStem: 507 235
VStem: 54 68<507 679>
LayerCount: 2
Fore
SplineSet
122 507 m 1
 54 507 l 1
 54 679 l 1
 122 742 l 1
 122 507 l 1
69 707 m 1024
EndSplineSet
Validated: 1
EndChar

StartChar: quoteright
Encoding: 8217 8217 216
Width: 176
GlyphClass: 2
Flags: W
HStem: 471 236
VStem: 54 68<535 707>
LayerCount: 2
Fore
SplineSet
54 707 m 1
 122 707 l 1
 122 535 l 1
 54 471 l 1
 54 707 l 1
EndSplineSet
Validated: 1
EndChar

StartChar: quotesinglbase
Encoding: 8218 8218 217
Width: 176
GlyphClass: 2
Flags: W
HStem: -140 235
VStem: 54 68<-77 95>
LayerCount: 2
Fore
SplineSet
54 95 m 1
 122 95 l 1
 122 -77 l 1
 54 -140 l 1
 54 95 l 1
EndSplineSet
Validated: 1
EndChar

StartChar: quotedblleft
Encoding: 8220 8220 218
Width: 315
GlyphClass: 2
Flags: W
HStem: 507 235
VStem: 53 68<507 679> 194 67<507 679>
LayerCount: 2
Fore
SplineSet
121 507 m 1
 53 507 l 1
 53 679 l 1
 121 742 l 1
 121 507 l 1
261 507 m 1
 194 507 l 1
 194 679 l 1
 261 742 l 1
 261 507 l 1
105 707 m 1024
EndSplineSet
Validated: 1
EndChar

StartChar: quotedblright
Encoding: 8221 8221 219
Width: 315
GlyphClass: 2
Flags: W
HStem: 472 236
VStem: 54 68<536 708> 195 67<536 708>
LayerCount: 2
Fore
SplineSet
54 708 m 1
 122 708 l 1
 122 536 l 1
 54 472 l 1
 54 708 l 1
195 708 m 1
 262 708 l 1
 262 536 l 1
 195 472 l 1
 195 708 l 1
EndSplineSet
Validated: 1
EndChar

StartChar: quotedblbase
Encoding: 8222 8222 220
Width: 315
GlyphClass: 2
Flags: W
HStem: -140 235
VStem: 54 68<-77 95> 194 67<-77 95>
LayerCount: 2
Fore
SplineSet
194 95 m 1
 261 95 l 1
 261 -77 l 1
 194 -140 l 1
 194 95 l 1
54 95 m 1
 122 95 l 1
 122 -77 l 1
 54 -140 l 1
 54 95 l 1
EndSplineSet
Validated: 1
EndChar

StartChar: dagger
Encoding: 8224 8224 221
Width: 539
GlyphClass: 2
Flags: W
HStem: -156 21G<232 307> 390 67<77 232 307 463> 687 20G<232 307>
VStem: 232 75<-156 390 457 707>
LayerCount: 2
Fore
SplineSet
463 390 m 1
 307 390 l 1
 307 -156 l 1
 232 -156 l 1
 232 390 l 1
 77 390 l 1
 77 457 l 1
 232 457 l 1
 232 707 l 1
 307 707 l 1
 307 457 l 1
 463 457 l 1
 463 390 l 1
EndSplineSet
Validated: 1
EndChar

StartChar: daggerdbl
Encoding: 8225 8225 222
Width: 539
GlyphClass: 2
Flags: W
HStem: -156 21G<232 307> 93 68<77 232 307 463> 393 68<77 232 307 463> 687 20G<232 307>
VStem: 232 75<-156 93 161 393 461 707>
LayerCount: 2
Fore
SplineSet
307 393 m 1
 307 161 l 1
 463 161 l 1
 463 93 l 1
 307 93 l 1
 307 -156 l 1
 232 -156 l 1
 232 93 l 1
 77 93 l 1
 77 161 l 1
 232 161 l 1
 232 393 l 1
 77 393 l 1
 77 461 l 1
 232 461 l 1
 232 707 l 1
 307 707 l 1
 307 461 l 1
 463 461 l 1
 463 393 l 1
 307 393 l 1
EndSplineSet
Validated: 1
EndChar

StartChar: bullet
Encoding: 8226 8226 223
Width: 482
GlyphClass: 2
Flags: W
HStem: 190 250<167.611 314.389>
VStem: 116 251<242.489 388.389>
LayerCount: 2
Fore
SplineSet
151 226 m 0
 127 250 116 279 116 315 c 0
 116 351 127 381 151 405 c 0
 175 429 205 440 241 440 c 0
 277 440 307 429 331 405 c 0
 355 381 367 351 367 315 c 0
 367 279 355 250 331 226 c 0
 307 202 277 190 241 190 c 0
 205 190 175 202 151 226 c 0
EndSplineSet
Validated: 1
EndChar

StartChar: ellipsis
Encoding: 8230 8230 224
Width: 679
GlyphClass: 2
Flags: W
HStem: 0 94<54 144 295 385 536 626>
VStem: 54 90<0 94> 295 90<0 94> 536 90<0 94>
CounterMasks: 1 70
LayerCount: 2
Fore
SplineSet
54 94 m 1
 144 94 l 1
 144 0 l 1
 54 0 l 1
 54 94 l 1
536 94 m 1
 626 94 l 1
 626 0 l 1
 536 0 l 1
 536 94 l 1
295 94 m 1
 385 94 l 1
 385 0 l 1
 295 0 l 1
 295 94 l 1
EndSplineSet
Validated: 1
EndChar

StartChar: perthousand
Encoding: 8240 8240 225
Width: 1184
GlyphClass: 2
Flags: W
HStem: -6 59<639.812 724.336 974.812 1059.34> 273 60<124.812 209.336> 374 60<639.737 723.836 974.737 1058.84> 653 61<123.955 208.836>
VStem: 43 70<355.71 631.336> 221 71<355.71 631.336> 558 70<75.7097 351.337> 736 71<75.7097 351.337> 893 70<75.7097 351.337> 1071 71<75.7097 351.337>
LayerCount: 2
Fore
SplineSet
73 311 m 0
 53 336 43 374 43 425 c 2
 43 567 l 2
 43 615 53 652 74 677 c 0
 95 702 126 714 167 714 c 0
 210 714 242 701 262 677 c 0
 282 653 292 616 292 567 c 2
 292 425 l 2
 292 374 282 336 262 311 c 0
 242 286 210 273 167 273 c 0
 124 273 93 286 73 311 c 0
584 707 m 1
 648 707 l 1
 266 0 l 1
 202 0 l 1
 584 707 l 1
210 355 m 0
 218 370 221 394 221 428 c 2
 221 561 l 2
 221 594 217 618 209 632 c 0
 201 646 187 653 167 653 c 0
 147 653 132 646 124 632 c 0
 116 618 113 594 113 561 c 2
 113 428 l 2
 113 394 116 370 124 355 c 0
 132 340 147 333 167 333 c 0
 188 333 202 340 210 355 c 0
588 32 m 0
 568 57 558 94 558 145 c 2
 558 288 l 2
 558 336 568 372 589 397 c 0
 610 422 641 434 682 434 c 0
 725 434 757 422 777 398 c 0
 797 374 807 337 807 288 c 2
 807 145 l 2
 807 94 797 57 777 32 c 0
 757 7 725 -6 682 -6 c 0
 639 -6 608 7 588 32 c 0
923 32 m 0
 903 57 893 94 893 145 c 2
 893 288 l 2
 893 336 903 372 924 397 c 0
 945 422 976 434 1017 434 c 0
 1060 434 1092 422 1112 398 c 0
 1132 374 1142 337 1142 288 c 2
 1142 145 l 2
 1142 94 1132 57 1112 32 c 0
 1092 7 1060 -6 1017 -6 c 0
 974 -6 943 7 923 32 c 0
725 75 m 0
 733 90 736 114 736 148 c 2
 736 282 l 2
 736 315 732 338 724 352 c 0
 716 366 702 374 682 374 c 0
 662 374 647 366 639 352 c 0
 631 338 628 315 628 282 c 2
 628 148 l 2
 628 114 631 90 639 75 c 0
 647 60 662 53 682 53 c 0
 703 53 717 60 725 75 c 0
1060 75 m 0
 1068 90 1071 114 1071 148 c 2
 1071 282 l 2
 1071 315 1067 338 1059 352 c 0
 1051 366 1037 374 1017 374 c 0
 997 374 982 366 974 352 c 0
 966 338 963 315 963 282 c 2
 963 148 l 2
 963 114 966 90 974 75 c 0
 982 60 997 53 1017 53 c 0
 1038 53 1052 60 1060 75 c 0
EndSplineSet
Validated: 1
EndChar

StartChar: guilsinglleft
Encoding: 8249 8249 226
Width: 302
GlyphClass: 2
Flags: W
VStem: 26 199
LayerCount: 2
Fore
SplineSet
26 270 m 1
 225 473 l 1
 225 388 l 1
 110 270 l 1
 225 153 l 1
 225 68 l 1
 26 270 l 1
EndSplineSet
Validated: 1
Substitution2: "'rtla' Right to Left Alternates lookup 0 subtable" guilsinglright
EndChar

StartChar: guilsinglright
Encoding: 8250 8250 227
Width: 315
GlyphClass: 2
Flags: W
VStem: 77 199
LayerCount: 2
Fore
SplineSet
77 153 m 1
 193 270 l 1
 77 388 l 1
 77 473 l 1
 276 270 l 1
 77 68 l 1
 77 153 l 1
EndSplineSet
Validated: 1
Substitution2: "'rtla' Right to Left Alternates lookup 0 subtable" guilsinglleft
EndChar

StartChar: Euro
Encoding: 8364 8364 228
Width: 555
GlyphClass: 2
Flags: W
HStem: -10 67<222.918 375.357> 261 58<39 100 175 351> 393 58<39 100 175 376> 649 68<221.26 376.921>
VStem: 100 75<110.455 261 319 393 451 598.888> 417 70<98.7879 153 554 607.687>
LayerCount: 2
Fore
SplineSet
149 50 m 0
 117 90 100 144 100 211 c 2
 100 261 l 1
 39 261 l 1
 39 319 l 1
 100 319 l 1
 100 393 l 1
 39 393 l 1
 39 451 l 1
 100 451 l 1
 100 504 l 2
 100 567 117 619 150 658 c 0
 183 697 233 717 299 717 c 0
 354 717 397 702 429 673 c 0
 461 644 479 605 483 554 c 1
 417 554 l 1
 411 585 398 609 379 625 c 0
 360 641 333 649 298 649 c 0
 254 649 222 635 203 608 c 0
 184 581 175 547 175 505 c 2
 175 451 l 1
 387 451 l 1
 376 393 l 1
 175 393 l 1
 175 319 l 1
 361 319 l 1
 351 261 l 1
 175 261 l 1
 175 209 l 2
 175 163 185 127 204 99 c 0
 223 71 256 57 300 57 c 0
 366 57 405 90 417 153 c 1
 487 153 l 1
 482 102 464 62 430 33 c 0
 396 4 352 -10 299 -10 c 0
 231 -10 181 10 149 50 c 0
EndSplineSet
Validated: 1
EndChar

StartChar: trademark
Encoding: 8482 8482 229
Width: 838
GlyphClass: 2
Flags: W
HStem: 652 55<41 159 219 336>
VStem: 159 60<303 652> 407 57<303 570> 699 58<303 570>
LayerCount: 2
Fore
SplineSet
159 652 m 1
 41 652 l 1
 41 707 l 1
 336 707 l 1
 336 652 l 1
 219 652 l 1
 219 303 l 1
 159 303 l 1
 159 652 l 1
407 707 m 1
 462 707 l 1
 582 436 l 1
 585 436 l 1
 701 707 l 1
 757 707 l 1
 757 303 l 1
 699 303 l 1
 699 570 l 1
 697 570 l 1
 604 362 l 1
 560 362 l 1
 466 570 l 1
 464 570 l 1
 464 303 l 1
 407 303 l 1
 407 707 l 1
EndSplineSet
Validated: 1
EndChar

StartChar: fi
Encoding: 64257 64257 230
Width: 574
GlyphClass: 3
Flags: W
HStem: 0 21G<117 187 420 489> 464 55<51 117 187 296> 604 92<418 492> 651 56<200.019 296>
VStem: 117 70<0 464 519 638.544> 420 69<0 519 604 696>
LayerCount: 2
Fore
SplineSet
187 581 m 2xdc
 187 519 l 1
 296 519 l 1
 296 464 l 1
 187 464 l 1
 187 0 l 1
 117 0 l 1
 117 464 l 1
 51 464 l 1
 51 519 l 1
 117 519 l 1
 117 578 l 2
 117 618 128 649 150 672 c 0
 172 695 203 707 242 707 c 2
 296 707 l 1
 296 651 l 1
 253 651 l 2
 209 651 187 628 187 581 c 2xdc
420 519 m 1
 489 519 l 1
 489 0 l 1
 420 0 l 1
 420 519 l 1
418 696 m 1xec
 492 696 l 1
 492 604 l 1
 418 604 l 1
 418 696 l 1xec
EndSplineSet
Validated: 1
Ligature2: "'liga' Standard Ligatures in Latin lookup 4 subtable" f i
EndChar

StartChar: fl
Encoding: 64258 64258 231
Width: 614
GlyphClass: 3
Flags: W
HStem: 0 63<497.474 589> 464 55<51 117 187 296> 651 56<200.019 296>
VStem: 117 70<0 464 519 638.544> 412 69<82.5676 707>
LayerCount: 2
Fore
SplineSet
187 581 m 2
 187 519 l 1
 296 519 l 1
 296 464 l 1
 187 464 l 1
 187 0 l 1
 117 0 l 1
 117 464 l 1
 51 464 l 1
 51 519 l 1
 117 519 l 1
 117 578 l 2
 117 618 128 649 150 672 c 0
 172 695 203 707 242 707 c 2
 296 707 l 1
 296 651 l 1
 253 651 l 2
 209 651 187 628 187 581 c 2
444 35 m 0
 422 58 412 92 412 136 c 2
 412 707 l 1
 481 707 l 1
 481 140 l 2
 481 113 487 94 497 82 c 0
 507 70 524 63 547 63 c 2
 589 63 l 1
 589 0 l 1
 540 0 l 2
 498 0 466 12 444 35 c 0
EndSplineSet
Validated: 1
Ligature2: "'liga' Standard Ligatures in Latin lookup 4 subtable" f l
EndChar

StartChar: t_t
Encoding: 65539 -1 234
Width: 641
GlyphClass: 3
Flags: W
HStem: 0 61<199.981 294 492.245 587> 464 55<35 116 186 409 478 596>
VStem: 116 70<75.125 464 519 638> 409 69<75.125 464 519 638>
LayerCount: 2
Fore
SplineSet
478 464 m 1
 478 132 l 2
 478 85 501 61 546 61 c 2
 587 61 l 1
 587 0 l 1
 535 0 l 2
 495 0 464 11 442 34 c 0
 420 57 409 89 409 129 c 2
 409 464 l 1
 186 464 l 1
 186 132 l 2
 186 85 209 61 253 61 c 2
 294 61 l 1
 294 0 l 1
 242 0 l 2
 202 0 171 11 149 34 c 0
 127 57 116 89 116 129 c 2
 116 464 l 1
 35 464 l 1
 35 519 l 1
 116 519 l 1
 116 638 l 1
 186 671 l 1
 186 519 l 1
 409 519 l 1
 409 638 l 1
 478 671 l 1
 478 519 l 1
 596 519 l 1
 596 464 l 1
 478 464 l 1
EndSplineSet
Validated: 1
Ligature2: "'dlig' Discretionary Ligatures in Latin lookup 3 subtable" t t
EndChar

StartChar: zero.dnom
Encoding: 65540 -1 235
Width: 334
GlyphClass: 2
Flags: W
HStem: -6 59<124.812 209.336> 374 60<124.737 208.836>
VStem: 43 70<75.7097 351.337> 221 71<75.7097 351.337>
LayerCount: 2
Fore
SplineSet
73 32 m 0
 53 57 43 94 43 145 c 2
 43 288 l 2
 43 336 53 372 74 397 c 0
 95 422 126 434 167 434 c 0
 210 434 242 422 262 398 c 0
 282 374 292 337 292 288 c 2
 292 145 l 2
 292 94 282 57 262 32 c 0
 242 7 210 -6 167 -6 c 0
 124 -6 93 7 73 32 c 0
210 75 m 0
 218 90 221 114 221 148 c 2
 221 282 l 2
 221 315 217 338 209 352 c 0
 201 366 187 374 167 374 c 0
 147 374 132 366 124 352 c 0
 116 338 113 315 113 282 c 2
 113 148 l 2
 113 114 116 90 124 75 c 0
 132 60 147 53 167 53 c 0
 188 53 202 60 210 75 c 0
EndSplineSet
Validated: 1
EndChar

StartChar: one.dnom
Encoding: 65541 -1 236
Width: 227
GlyphClass: 2
Flags: W
HStem: 0 21G<101 172>
VStem: 101 71<0 352>
LayerCount: 2
Fore
SplineSet
101 352 m 1
 27 296 l 1
 27 372 l 1
 101 427 l 1
 172 427 l 1
 172 0 l 1
 101 0 l 1
 101 352 l 1
EndSplineSet
Validated: 1
EndChar

StartChar: two.dnom
Encoding: 65542 -1 237
Width: 328
GlyphClass: 2
Flags: W
HStem: 0 60<135 286> 377 57<122.483 202.493>
VStem: 43 68<304 360.527> 214 71<251.233 361.529>
LayerCount: 2
Fore
SplineSet
46 53 m 1
 188 246 l 2
 197 258 204 270 208 280 c 0
 212 290 214 300 214 312 c 2
 214 321 l 2
 214 339 209 352 200 362 c 0
 191 372 179 377 163 377 c 0
 147 377 133 371 124 361 c 0
 115 351 111 335 111 315 c 2
 111 304 l 1
 43 304 l 1
 43 319 l 2
 43 354 54 382 76 403 c 0
 98 424 128 434 165 434 c 0
 201 434 230 423 252 403 c 0
 274 383 285 357 285 324 c 2
 285 312 l 2
 285 294 281 277 275 261 c 0
 269 245 259 229 245 211 c 2
 135 60 l 1
 286 60 l 1
 286 0 l 1
 46 0 l 1
 46 53 l 1
EndSplineSet
Validated: 1
EndChar

StartChar: three.dnom
Encoding: 65543 -1 238
Width: 326
GlyphClass: 2
Flags: W
HStem: -6 56<114.237 203.541> 193 57<133 194.529> 377 57<115.577 197.959>
VStem: 40 61<65.4709 115 313 361.53> 217 67<67.5193 174.435 266.517 360.528>
LayerCount: 2
Fore
SplineSet
72 23 m 0
 51 42 40 69 40 103 c 2
 40 115 l 1
 101 115 l 1
 101 104 l 2
 101 88 107 75 117 65 c 0
 127 55 141 50 159 50 c 0
 177 50 192 56 202 67 c 0
 212 78 217 94 217 114 c 2
 217 127 l 2
 217 147 211 163 200 175 c 0
 189 187 174 193 155 193 c 2
 133 193 l 1
 133 250 l 1
 155 250 l 2
 172 250 185 255 195 266 c 0
 205 277 210 290 210 308 c 2
 210 318 l 2
 210 336 205 351 196 361 c 0
 187 371 174 377 158 377 c 0
 141 377 127 372 118 362 c 0
 109 352 104 340 104 324 c 2
 104 313 l 1
 42 313 l 1
 42 325 l 2
 42 358 53 384 74 404 c 0
 95 424 124 434 160 434 c 0
 196 434 225 424 246 404 c 0
 267 384 278 358 278 325 c 2
 278 314 l 2
 278 294 273 276 263 261 c 0
 253 246 241 234 225 226 c 1
 243 218 258 206 268 188 c 0
 278 170 284 150 284 126 c 2
 284 114 l 2
 284 79 272 49 249 27 c 0
 226 5 197 -6 160 -6 c 0
 122 -6 93 4 72 23 c 0
EndSplineSet
Validated: 1
EndChar

StartChar: four.dnom
Encoding: 65544 -1 239
Width: 339
GlyphClass: 2
Flags: W
HStem: 0 21G<198 268> 77 60<108 198 268 308>
VStem: 198 70<0 77 137 238>
LayerCount: 2
Fore
SplineSet
308 77 m 1
 268 77 l 1
 268 0 l 1
 198 0 l 1
 198 77 l 1
 37 77 l 1
 37 137 l 1
 157 427 l 1
 226 427 l 1
 108 137 l 1
 198 137 l 1
 198 238 l 1
 268 238 l 1
 268 137 l 1
 308 137 l 1
 308 77 l 1
EndSplineSet
Validated: 1
EndChar

StartChar: zero.numr
Encoding: 65545 -1 240
Width: 334
GlyphClass: 2
Flags: W
HStem: 273 60<124.812 209.336> 653 61<123.955 208.836>
VStem: 43 70<355.71 631.336> 221 71<355.71 631.336>
LayerCount: 2
Fore
SplineSet
73 311 m 0
 53 336 43 374 43 425 c 2
 43 567 l 2
 43 615 53 652 74 677 c 0
 95 702 126 714 167 714 c 0
 210 714 242 701 262 677 c 0
 282 653 292 616 292 567 c 2
 292 425 l 2
 292 374 282 336 262 311 c 0
 242 286 210 273 167 273 c 0
 124 273 93 286 73 311 c 0
210 355 m 0
 218 370 221 394 221 428 c 2
 221 561 l 2
 221 594 217 618 209 632 c 0
 201 646 187 653 167 653 c 0
 147 653 132 646 124 632 c 0
 116 618 113 594 113 561 c 2
 113 428 l 2
 113 394 116 370 124 355 c 0
 132 340 147 333 167 333 c 0
 188 333 202 340 210 355 c 0
EndSplineSet
Validated: 1
EndChar

StartChar: one.numr
Encoding: 65546 -1 241
Width: 227
GlyphClass: 2
Flags: W
HStem: 687 20G<74.5714 172>
VStem: 101 71<280 632>
LayerCount: 2
Fore
SplineSet
101 632 m 1
 27 575 l 1
 27 651 l 1
 101 707 l 1
 172 707 l 1
 172 280 l 1
 101 280 l 1
 101 632 l 1
EndSplineSet
Validated: 1
EndChar

StartChar: two.numr
Encoding: 65547 -1 242
Width: 328
GlyphClass: 2
Flags: W
HStem: 280 60<135 286> 656 58<121.767 202.493>
VStem: 43 68<584 640.527> 214 71<530.356 641.528>
LayerCount: 2
Fore
SplineSet
46 333 m 1
 188 525 l 2
 197 537 204 549 208 559 c 0
 212 569 214 580 214 592 c 2
 214 600 l 2
 214 618 209 632 200 642 c 0
 191 652 179 656 163 656 c 0
 147 656 133 651 124 641 c 0
 115 631 111 615 111 595 c 2
 111 584 l 1
 43 584 l 1
 43 599 l 2
 43 634 54 661 76 682 c 0
 98 703 128 714 165 714 c 0
 201 714 230 703 252 683 c 0
 274 663 285 636 285 603 c 2
 285 592 l 2
 285 574 281 557 275 541 c 0
 269 525 259 508 245 490 c 2
 135 340 l 1
 286 340 l 1
 286 280 l 1
 46 280 l 1
 46 333 l 1
EndSplineSet
Validated: 1
EndChar

StartChar: three.numr
Encoding: 65548 -1 243
Width: 326
GlyphClass: 2
Flags: W
HStem: 273 57<114.237 203.541> 472 57<133 194.529> 656 58<115.577 197.959>
VStem: 40 61<345.471 394 593 641.529> 217 67<347.519 453.435 545.518 640.528>
LayerCount: 2
Fore
SplineSet
72 303 m 0
 51 322 40 349 40 383 c 2
 40 394 l 1
 101 394 l 1
 101 384 l 2
 101 368 107 355 117 345 c 0
 127 335 141 330 159 330 c 0
 177 330 192 336 202 347 c 0
 212 358 217 373 217 393 c 2
 217 407 l 2
 217 427 211 442 200 454 c 0
 189 466 174 472 155 472 c 2
 133 472 l 1
 133 529 l 1
 155 529 l 2
 172 529 185 534 195 545 c 0
 205 556 210 570 210 588 c 2
 210 598 l 2
 210 616 205 631 196 641 c 0
 187 651 174 656 158 656 c 0
 141 656 127 652 118 642 c 0
 109 632 104 619 104 603 c 2
 104 593 l 1
 42 593 l 1
 42 604 l 2
 42 637 53 664 74 684 c 0
 95 704 124 714 160 714 c 0
 196 714 225 704 246 684 c 0
 267 664 278 637 278 604 c 2
 278 594 l 2
 278 574 273 556 263 541 c 0
 253 526 241 514 225 506 c 1
 243 498 258 486 268 468 c 0
 278 450 284 430 284 406 c 2
 284 393 l 2
 284 358 272 329 249 307 c 0
 226 285 197 273 160 273 c 0
 122 273 93 284 72 303 c 0
EndSplineSet
Validated: 1
EndChar

StartChar: four.numr
Encoding: 65549 -1 244
Width: 339
GlyphClass: 2
Flags: W
HStem: 356 61<108 198 268 308> 687 20G<148.724 226>
VStem: 198 70<280 356 417 517>
LayerCount: 2
Fore
SplineSet
308 356 m 1
 268 356 l 1
 268 280 l 1
 198 280 l 1
 198 356 l 1
 37 356 l 1
 37 417 l 1
 157 707 l 1
 226 707 l 1
 108 417 l 1
 198 417 l 1
 198 517 l 1
 268 517 l 1
 268 417 l 1
 308 417 l 1
 308 356 l 1
EndSplineSet
Validated: 1
EndChar

StartChar: zero.sups
Encoding: 65550 -1 245
Width: 334
GlyphClass: 2
Flags: W
HStem: 434 60<124.812 209.336> 814 60<123.955 208.836>
VStem: 43 70<516.71 792.336> 221 71<516.71 792.336>
LayerCount: 2
Fore
SplineSet
73 472 m 0
 53 497 43 535 43 586 c 2
 43 728 l 2
 43 776 53 813 74 838 c 0
 95 863 126 874 167 874 c 0
 210 874 242 862 262 838 c 0
 282 814 292 777 292 728 c 2
 292 586 l 2
 292 535 282 497 262 472 c 0
 242 447 210 434 167 434 c 0
 124 434 93 447 73 472 c 0
210 516 m 0
 218 531 221 555 221 589 c 2
 221 722 l 2
 221 755 217 779 209 793 c 0
 201 807 187 814 167 814 c 0
 147 814 132 807 124 793 c 0
 116 779 113 755 113 722 c 2
 113 589 l 2
 113 555 116 531 124 516 c 0
 132 501 147 494 167 494 c 0
 188 494 202 501 210 516 c 0
EndSplineSet
Validated: 1
EndChar

StartChar: one.sups
Encoding: 65551 -1 246
Width: 227
GlyphClass: 2
Flags: W
VStem: 101 71<440 793>
LayerCount: 2
Fore
SplineSet
101 793 m 1
 27 736 l 1
 27 812 l 1
 101 867 l 1
 172 867 l 1
 172 440 l 1
 101 440 l 1
 101 793 l 1
EndSplineSet
Validated: 1
EndChar

StartChar: two.sups
Encoding: 65552 -1 247
Width: 328
GlyphClass: 2
Flags: W
HStem: 440 61<135 286> 817 57<121.767 202.493>
VStem: 43 68<744 801.527> 214 71<691.233 801.529>
LayerCount: 2
Fore
SplineSet
46 494 m 1
 188 686 l 2
 197 698 204 710 208 720 c 0
 212 730 214 741 214 753 c 2
 214 761 l 2
 214 779 209 792 200 802 c 0
 191 812 179 817 163 817 c 0
 147 817 133 812 124 802 c 0
 115 792 111 776 111 756 c 2
 111 744 l 1
 43 744 l 1
 43 760 l 2
 43 795 54 822 76 843 c 0
 98 864 128 874 165 874 c 0
 201 874 230 864 252 844 c 0
 274 824 285 797 285 764 c 2
 285 753 l 2
 285 735 281 717 275 701 c 0
 269 685 259 669 245 651 c 2
 135 501 l 1
 286 501 l 1
 286 440 l 1
 46 440 l 1
 46 494 l 1
EndSplineSet
Validated: 1
EndChar

StartChar: three.sups
Encoding: 65553 -1 248
Width: 326
GlyphClass: 2
Flags: W
HStem: 434 56<114.237 203.541> 633 57<133 194.529> 817 57<115.577 197.959>
VStem: 40 61<505.472 555 754 802.529> 217 67<507.519 614.435 706.518 801.528>
LayerCount: 2
Fore
SplineSet
72 463 m 0
 51 482 40 510 40 544 c 2
 40 555 l 1
 101 555 l 1
 101 545 l 2
 101 529 107 515 117 505 c 0
 127 495 141 490 159 490 c 0
 177 490 192 496 202 507 c 0
 212 518 217 534 217 554 c 2
 217 567 l 2
 217 587 211 603 200 615 c 0
 189 627 174 633 155 633 c 2
 133 633 l 1
 133 690 l 1
 155 690 l 2
 172 690 185 695 195 706 c 0
 205 717 210 731 210 749 c 2
 210 759 l 2
 210 777 205 792 196 802 c 0
 187 812 174 817 158 817 c 0
 141 817 127 813 118 803 c 0
 109 793 104 780 104 764 c 2
 104 754 l 1
 42 754 l 1
 42 765 l 2
 42 798 53 825 74 845 c 0
 95 865 124 874 160 874 c 0
 196 874 225 864 246 844 c 0
 267 824 278 798 278 765 c 2
 278 755 l 2
 278 735 273 716 263 701 c 0
 253 686 241 675 225 667 c 1
 243 659 258 647 268 629 c 0
 278 611 284 590 284 566 c 2
 284 554 l 2
 284 519 272 489 249 467 c 0
 226 445 197 434 160 434 c 0
 122 434 93 444 72 463 c 0
EndSplineSet
Validated: 1
EndChar

StartChar: four.sups
Encoding: 65554 -1 249
Width: 339
GlyphClass: 2
Flags: W
HStem: 517 61<108 198 268 308>
VStem: 198 70<440 517 578 678>
LayerCount: 2
Fore
SplineSet
308 517 m 1
 268 517 l 1
 268 440 l 1
 198 440 l 1
 198 517 l 1
 37 517 l 1
 37 578 l 1
 157 867 l 1
 226 867 l 1
 108 578 l 1
 198 578 l 1
 198 678 l 1
 268 678 l 1
 268 578 l 1
 308 578 l 1
 308 517 l 1
EndSplineSet
Validated: 1
EndChar

StartChar: glyph249
Encoding: 65555 -1 250
Width: 180
GlyphClass: 2
Flags: W
HStem: 0 21G<-128 -52.2221> 687 20G<243.194 318>
LayerCount: 2
Fore
SplineSet
254 707 m 1
 318 707 l 1
 -63 0 l 1
 -128 0 l 1
 254 707 l 1
EndSplineSet
Validated: 1
EndChar
